STARTFONT 2.1
FONT -Efont-Fixed-Medium-R-Normal--10-100-75-75-C-50-ISO10646-1
SIZE 10 75 75
FONTBOUNDINGBOX 5 10 0 -2
STARTPROPERTIES 18
COPYRIGHT "(c) Copyright 2000-2003 /efont/ The Electronic Font Open Laboratory."
FOUNDRY "Efont"
FAMILY_NAME "Fixed"
WEIGHT_NAME "Medium"
SLANT "R"
SETWIDTH_NAME "Normal"
ADD_STYLE_NAME ""
PIXEL_SIZE 10
POINT_SIZE 100
RESOLUTION_X 75
RESOLUTION_Y 75
AVERAGE_WIDTH 50
CHARSET_REGISTRY "ISO10646"
CHARSET_ENCODING "1"
_MULE_BASELINE_OFFSET -3
FONT_ASCENT 8
FONT_DESCENT 2
DEFAULT_CHAR 32
ENDPROPERTIES
CHARS 2179
STARTCHAR U+0000
ENCODING 0
SWIDTH 500 0
DWIDTH 5 0
BBX 5 10 0 -2
BITMAP 
00
00
A0
10
80
10
80
50
00
00
ENDCHAR
STARTCHAR U+0020
ENCODING 32
SWIDTH 500 0
DWIDTH 5 0
BBX 5 10 0 -2
BITMAP 
00
00
00
00
00
00
00
00
00
00
ENDCHAR
STARTCHAR U+0021
ENCODING 33
SWIDTH 500 0
DWIDTH 5 0
BBX 5 10 0 -2
BITMAP 
00
00
20
20
20
20
00
20
00
00
ENDCHAR
STARTCHAR U+0022
ENCODING 34
SWIDTH 500 0
DWIDTH 5 0
BBX 5 10 0 -2
BITMAP 
00
00
50
50
50
00
00
00
00
00
ENDCHAR
STARTCHAR U+0023
ENCODING 35
SWIDTH 500 0
DWIDTH 5 0
BBX 5 10 0 -2
BITMAP 
00
50
50
F8
50
F8
50
50
00
00
ENDCHAR
STARTCHAR U+0024
ENCODING 36
SWIDTH 500 0
DWIDTH 5 0
BBX 5 10 0 -2
BITMAP 
00
20
70
A0
70
28
70
20
00
00
ENDCHAR
STARTCHAR U+0025
ENCODING 37
SWIDTH 500 0
DWIDTH 5 0
BBX 5 10 0 -2
BITMAP 
00
00
40
50
20
50
10
00
00
00
ENDCHAR
STARTCHAR U+0026
ENCODING 38
SWIDTH 500 0
DWIDTH 5 0
BBX 5 10 0 -2
BITMAP 
00
40
A0
A0
40
A0
A0
50
00
00
ENDCHAR
STARTCHAR U+0027
ENCODING 39
SWIDTH 500 0
DWIDTH 5 0
BBX 5 10 0 -2
BITMAP 
00
00
20
20
20
00
00
00
00
00
ENDCHAR
STARTCHAR U+0028
ENCODING 40
SWIDTH 500 0
DWIDTH 5 0
BBX 5 10 0 -2
BITMAP 
00
00
20
40
40
40
40
20
00
00
ENDCHAR
STARTCHAR U+0029
ENCODING 41
SWIDTH 500 0
DWIDTH 5 0
BBX 5 10 0 -2
BITMAP 
00
00
40
20
20
20
20
40
00
00
ENDCHAR
STARTCHAR U+002A
ENCODING 42
SWIDTH 500 0
DWIDTH 5 0
BBX 5 10 0 -2
BITMAP 
00
00
00
90
60
F0
60
90
00
00
ENDCHAR
STARTCHAR U+002B
ENCODING 43
SWIDTH 500 0
DWIDTH 5 0
BBX 5 10 0 -2
BITMAP 
00
00
00
20
20
F8
20
20
00
00
ENDCHAR
STARTCHAR U+002C
ENCODING 44
SWIDTH 500 0
DWIDTH 5 0
BBX 5 10 0 -2
BITMAP 
00
00
00
00
00
00
30
20
40
00
ENDCHAR
STARTCHAR U+002D
ENCODING 45
SWIDTH 500 0
DWIDTH 5 0
BBX 5 10 0 -2
BITMAP 
00
00
00
00
00
F0
00
00
00
00
ENDCHAR
STARTCHAR U+002E
ENCODING 46
SWIDTH 500 0
DWIDTH 5 0
BBX 5 10 0 -2
BITMAP 
00
00
00
00
00
00
20
70
20
00
ENDCHAR
STARTCHAR U+002F
ENCODING 47
SWIDTH 500 0
DWIDTH 5 0
BBX 5 10 0 -2
BITMAP 
00
00
10
10
20
40
80
80
00
00
ENDCHAR
STARTCHAR U+0030
ENCODING 48
SWIDTH 500 0
DWIDTH 5 0
BBX 5 10 0 -2
BITMAP 
00
00
20
50
50
50
50
20
00
00
ENDCHAR
STARTCHAR U+0031
ENCODING 49
SWIDTH 500 0
DWIDTH 5 0
BBX 5 10 0 -2
BITMAP 
00
00
20
60
20
20
20
70
00
00
ENDCHAR
STARTCHAR U+0032
ENCODING 50
SWIDTH 500 0
DWIDTH 5 0
BBX 5 10 0 -2
BITMAP 
00
00
60
90
10
60
80
F0
00
00
ENDCHAR
STARTCHAR U+0033
ENCODING 51
SWIDTH 500 0
DWIDTH 5 0
BBX 5 10 0 -2
BITMAP 
00
00
F0
20
60
10
90
60
00
00
ENDCHAR
STARTCHAR U+0034
ENCODING 52
SWIDTH 500 0
DWIDTH 5 0
BBX 5 10 0 -2
BITMAP 
00
00
20
60
A0
F0
20
20
00
00
ENDCHAR
STARTCHAR U+0035
ENCODING 53
SWIDTH 500 0
DWIDTH 5 0
BBX 5 10 0 -2
BITMAP 
00
00
F0
80
E0
10
90
60
00
00
ENDCHAR
STARTCHAR U+0036
ENCODING 54
SWIDTH 500 0
DWIDTH 5 0
BBX 5 10 0 -2
BITMAP 
00
00
60
80
E0
90
90
60
00
00
ENDCHAR
STARTCHAR U+0037
ENCODING 55
SWIDTH 500 0
DWIDTH 5 0
BBX 5 10 0 -2
BITMAP 
00
00
F0
10
20
20
40
40
00
00
ENDCHAR
STARTCHAR U+0038
ENCODING 56
SWIDTH 500 0
DWIDTH 5 0
BBX 5 10 0 -2
BITMAP 
00
00
60
90
60
90
90
60
00
00
ENDCHAR
STARTCHAR U+0039
ENCODING 57
SWIDTH 500 0
DWIDTH 5 0
BBX 5 10 0 -2
BITMAP 
00
00
60
90
90
70
10
60
00
00
ENDCHAR
STARTCHAR U+003A
ENCODING 58
SWIDTH 500 0
DWIDTH 5 0
BBX 5 10 0 -2
BITMAP 
00
00
00
60
60
00
60
60
00
00
ENDCHAR
STARTCHAR U+003B
ENCODING 59
SWIDTH 500 0
DWIDTH 5 0
BBX 5 10 0 -2
BITMAP 
00
00
00
30
30
00
30
20
40
00
ENDCHAR
STARTCHAR U+003C
ENCODING 60
SWIDTH 500 0
DWIDTH 5 0
BBX 5 10 0 -2
BITMAP 
00
00
10
20
40
40
20
10
00
00
ENDCHAR
STARTCHAR U+003D
ENCODING 61
SWIDTH 500 0
DWIDTH 5 0
BBX 5 10 0 -2
BITMAP 
00
00
00
00
F0
00
F0
00
00
00
ENDCHAR
STARTCHAR U+003E
ENCODING 62
SWIDTH 500 0
DWIDTH 5 0
BBX 5 10 0 -2
BITMAP 
00
00
40
20
10
10
20
40
00
00
ENDCHAR
STARTCHAR U+003F
ENCODING 63
SWIDTH 500 0
DWIDTH 5 0
BBX 5 10 0 -2
BITMAP 
00
00
20
50
10
20
00
20
00
00
ENDCHAR
STARTCHAR U+0040
ENCODING 64
SWIDTH 500 0
DWIDTH 5 0
BBX 5 10 0 -2
BITMAP 
00
30
48
98
A8
A8
90
40
30
00
ENDCHAR
STARTCHAR U+0041
ENCODING 65
SWIDTH 500 0
DWIDTH 5 0
BBX 5 10 0 -2
BITMAP 
00
00
60
90
90
F0
90
90
00
00
ENDCHAR
STARTCHAR U+0042
ENCODING 66
SWIDTH 500 0
DWIDTH 5 0
BBX 5 10 0 -2
BITMAP 
00
00
E0
90
E0
90
90
E0
00
00
ENDCHAR
STARTCHAR U+0043
ENCODING 67
SWIDTH 500 0
DWIDTH 5 0
BBX 5 10 0 -2
BITMAP 
00
00
60
90
80
80
90
60
00
00
ENDCHAR
STARTCHAR U+0044
ENCODING 68
SWIDTH 500 0
DWIDTH 5 0
BBX 5 10 0 -2
BITMAP 
00
00
E0
90
90
90
90
E0
00
00
ENDCHAR
STARTCHAR U+0045
ENCODING 69
SWIDTH 500 0
DWIDTH 5 0
BBX 5 10 0 -2
BITMAP 
00
00
F0
80
E0
80
80
F0
00
00
ENDCHAR
STARTCHAR U+0046
ENCODING 70
SWIDTH 500 0
DWIDTH 5 0
BBX 5 10 0 -2
BITMAP 
00
00
F0
80
E0
80
80
80
00
00
ENDCHAR
STARTCHAR U+0047
ENCODING 71
SWIDTH 500 0
DWIDTH 5 0
BBX 5 10 0 -2
BITMAP 
00
00
60
90
80
B0
90
60
00
00
ENDCHAR
STARTCHAR U+0048
ENCODING 72
SWIDTH 500 0
DWIDTH 5 0
BBX 5 10 0 -2
BITMAP 
00
00
90
90
F0
90
90
90
00
00
ENDCHAR
STARTCHAR U+0049
ENCODING 73
SWIDTH 500 0
DWIDTH 5 0
BBX 5 10 0 -2
BITMAP 
00
00
70
20
20
20
20
70
00
00
ENDCHAR
STARTCHAR U+004A
ENCODING 74
SWIDTH 500 0
DWIDTH 5 0
BBX 5 10 0 -2
BITMAP 
00
00
70
20
20
20
A0
40
00
00
ENDCHAR
STARTCHAR U+004B
ENCODING 75
SWIDTH 500 0
DWIDTH 5 0
BBX 5 10 0 -2
BITMAP 
00
00
90
A0
C0
A0
A0
90
00
00
ENDCHAR
STARTCHAR U+004C
ENCODING 76
SWIDTH 500 0
DWIDTH 5 0
BBX 5 10 0 -2
BITMAP 
00
00
80
80
80
80
80
F0
00
00
ENDCHAR
STARTCHAR U+004D
ENCODING 77
SWIDTH 500 0
DWIDTH 5 0
BBX 5 10 0 -2
BITMAP 
00
00
90
F0
F0
90
90
90
00
00
ENDCHAR
STARTCHAR U+004E
ENCODING 78
SWIDTH 500 0
DWIDTH 5 0
BBX 5 10 0 -2
BITMAP 
00
00
90
D0
F0
B0
B0
90
00
00
ENDCHAR
STARTCHAR U+004F
ENCODING 79
SWIDTH 500 0
DWIDTH 5 0
BBX 5 10 0 -2
BITMAP 
00
00
60
90
90
90
90
60
00
00
ENDCHAR
STARTCHAR U+0050
ENCODING 80
SWIDTH 500 0
DWIDTH 5 0
BBX 5 10 0 -2
BITMAP 
00
00
E0
90
90
E0
80
80
00
00
ENDCHAR
STARTCHAR U+0051
ENCODING 81
SWIDTH 500 0
DWIDTH 5 0
BBX 5 10 0 -2
BITMAP 
00
00
60
90
90
D0
B0
60
10
00
ENDCHAR
STARTCHAR U+0052
ENCODING 82
SWIDTH 500 0
DWIDTH 5 0
BBX 5 10 0 -2
BITMAP 
00
00
E0
90
90
E0
90
90
00
00
ENDCHAR
STARTCHAR U+0053
ENCODING 83
SWIDTH 500 0
DWIDTH 5 0
BBX 5 10 0 -2
BITMAP 
00
00
60
90
40
20
90
60
00
00
ENDCHAR
STARTCHAR U+0054
ENCODING 84
SWIDTH 500 0
DWIDTH 5 0
BBX 5 10 0 -2
BITMAP 
00
00
70
20
20
20
20
20
00
00
ENDCHAR
STARTCHAR U+0055
ENCODING 85
SWIDTH 500 0
DWIDTH 5 0
BBX 5 10 0 -2
BITMAP 
00
00
90
90
90
90
90
60
00
00
ENDCHAR
STARTCHAR U+0056
ENCODING 86
SWIDTH 500 0
DWIDTH 5 0
BBX 5 10 0 -2
BITMAP 
00
00
90
90
90
90
60
60
00
00
ENDCHAR
STARTCHAR U+0057
ENCODING 87
SWIDTH 500 0
DWIDTH 5 0
BBX 5 10 0 -2
BITMAP 
00
00
90
90
90
F0
F0
90
00
00
ENDCHAR
STARTCHAR U+0058
ENCODING 88
SWIDTH 500 0
DWIDTH 5 0
BBX 5 10 0 -2
BITMAP 
00
00
90
90
60
60
90
90
00
00
ENDCHAR
STARTCHAR U+0059
ENCODING 89
SWIDTH 500 0
DWIDTH 5 0
BBX 5 10 0 -2
BITMAP 
00
00
88
88
50
20
20
20
00
00
ENDCHAR
STARTCHAR U+005A
ENCODING 90
SWIDTH 500 0
DWIDTH 5 0
BBX 5 10 0 -2
BITMAP 
00
00
F0
10
20
40
80
F0
00
00
ENDCHAR
STARTCHAR U+005B
ENCODING 91
SWIDTH 500 0
DWIDTH 5 0
BBX 5 10 0 -2
BITMAP 
00
00
70
40
40
40
40
70
00
00
ENDCHAR
STARTCHAR U+005C
ENCODING 92
SWIDTH 500 0
DWIDTH 5 0
BBX 5 10 0 -2
BITMAP 
00
00
80
80
40
20
10
10
00
00
ENDCHAR
STARTCHAR U+005D
ENCODING 93
SWIDTH 500 0
DWIDTH 5 0
BBX 5 10 0 -2
BITMAP 
00
00
70
10
10
10
10
70
00
00
ENDCHAR
STARTCHAR U+005E
ENCODING 94
SWIDTH 500 0
DWIDTH 5 0
BBX 5 10 0 -2
BITMAP 
00
00
20
50
00
00
00
00
00
00
ENDCHAR
STARTCHAR U+005F
ENCODING 95
SWIDTH 500 0
DWIDTH 5 0
BBX 5 10 0 -2
BITMAP 
00
00
00
00
00
00
00
00
F0
00
ENDCHAR
STARTCHAR U+0060
ENCODING 96
SWIDTH 500 0
DWIDTH 5 0
BBX 5 10 0 -2
BITMAP 
00
00
40
20
00
00
00
00
00
00
ENDCHAR
STARTCHAR U+0061
ENCODING 97
SWIDTH 500 0
DWIDTH 5 0
BBX 5 10 0 -2
BITMAP 
00
00
00
00
70
90
90
70
00
00
ENDCHAR
STARTCHAR U+0062
ENCODING 98
SWIDTH 500 0
DWIDTH 5 0
BBX 5 10 0 -2
BITMAP 
00
00
80
80
E0
90
90
E0
00
00
ENDCHAR
STARTCHAR U+0063
ENCODING 99
SWIDTH 500 0
DWIDTH 5 0
BBX 5 10 0 -2
BITMAP 
00
00
00
00
30
40
40
30
00
00
ENDCHAR
STARTCHAR U+0064
ENCODING 100
SWIDTH 500 0
DWIDTH 5 0
BBX 5 10 0 -2
BITMAP 
00
00
10
10
70
90
90
70
00
00
ENDCHAR
STARTCHAR U+0065
ENCODING 101
SWIDTH 500 0
DWIDTH 5 0
BBX 5 10 0 -2
BITMAP 
00
00
00
00
60
B0
C0
60
00
00
ENDCHAR
STARTCHAR U+0066
ENCODING 102
SWIDTH 500 0
DWIDTH 5 0
BBX 5 10 0 -2
BITMAP 
00
00
20
50
40
E0
40
40
00
00
ENDCHAR
STARTCHAR U+0067
ENCODING 103
SWIDTH 500 0
DWIDTH 5 0
BBX 5 10 0 -2
BITMAP 
00
00
00
00
60
90
70
10
60
00
ENDCHAR
STARTCHAR U+0068
ENCODING 104
SWIDTH 500 0
DWIDTH 5 0
BBX 5 10 0 -2
BITMAP 
00
00
80
80
E0
90
90
90
00
00
ENDCHAR
STARTCHAR U+0069
ENCODING 105
SWIDTH 500 0
DWIDTH 5 0
BBX 5 10 0 -2
BITMAP 
00
00
20
00
60
20
20
70
00
00
ENDCHAR
STARTCHAR U+006A
ENCODING 106
SWIDTH 500 0
DWIDTH 5 0
BBX 5 10 0 -2
BITMAP 
00
00
10
00
10
10
10
50
20
00
ENDCHAR
STARTCHAR U+006B
ENCODING 107
SWIDTH 500 0
DWIDTH 5 0
BBX 5 10 0 -2
BITMAP 
00
00
80
80
90
E0
90
90
00
00
ENDCHAR
STARTCHAR U+006C
ENCODING 108
SWIDTH 500 0
DWIDTH 5 0
BBX 5 10 0 -2
BITMAP 
00
00
60
20
20
20
20
70
00
00
ENDCHAR
STARTCHAR U+006D
ENCODING 109
SWIDTH 500 0
DWIDTH 5 0
BBX 5 10 0 -2
BITMAP 
00
00
00
00
D0
A8
A8
A8
00
00
ENDCHAR
STARTCHAR U+006E
ENCODING 110
SWIDTH 500 0
DWIDTH 5 0
BBX 5 10 0 -2
BITMAP 
00
00
00
00
E0
90
90
90
00
00
ENDCHAR
STARTCHAR U+006F
ENCODING 111
SWIDTH 500 0
DWIDTH 5 0
BBX 5 10 0 -2
BITMAP 
00
00
00
00
60
90
90
60
00
00
ENDCHAR
STARTCHAR U+0070
ENCODING 112
SWIDTH 500 0
DWIDTH 5 0
BBX 5 10 0 -2
BITMAP 
00
00
00
00
E0
90
E0
80
80
00
ENDCHAR
STARTCHAR U+0071
ENCODING 113
SWIDTH 500 0
DWIDTH 5 0
BBX 5 10 0 -2
BITMAP 
00
00
00
00
70
90
70
10
10
00
ENDCHAR
STARTCHAR U+0072
ENCODING 114
SWIDTH 500 0
DWIDTH 5 0
BBX 5 10 0 -2
BITMAP 
00
00
00
00
A0
D0
80
80
00
00
ENDCHAR
STARTCHAR U+0073
ENCODING 115
SWIDTH 500 0
DWIDTH 5 0
BBX 5 10 0 -2
BITMAP 
00
00
00
00
30
60
10
60
00
00
ENDCHAR
STARTCHAR U+0074
ENCODING 116
SWIDTH 500 0
DWIDTH 5 0
BBX 5 10 0 -2
BITMAP 
00
00
40
40
E0
40
50
20
00
00
ENDCHAR
STARTCHAR U+0075
ENCODING 117
SWIDTH 500 0
DWIDTH 5 0
BBX 5 10 0 -2
BITMAP 
00
00
00
00
90
90
90
70
00
00
ENDCHAR
STARTCHAR U+0076
ENCODING 118
SWIDTH 500 0
DWIDTH 5 0
BBX 5 10 0 -2
BITMAP 
00
00
00
00
50
50
50
20
00
00
ENDCHAR
STARTCHAR U+0077
ENCODING 119
SWIDTH 500 0
DWIDTH 5 0
BBX 5 10 0 -2
BITMAP 
00
00
00
00
88
A8
A8
50
00
00
ENDCHAR
STARTCHAR U+0078
ENCODING 120
SWIDTH 500 0
DWIDTH 5 0
BBX 5 10 0 -2
BITMAP 
00
00
00
00
90
60
60
90
00
00
ENDCHAR
STARTCHAR U+0079
ENCODING 121
SWIDTH 500 0
DWIDTH 5 0
BBX 5 10 0 -2
BITMAP 
00
00
00
00
90
90
70
90
60
00
ENDCHAR
STARTCHAR U+007A
ENCODING 122
SWIDTH 500 0
DWIDTH 5 0
BBX 5 10 0 -2
BITMAP 
00
00
00
00
F0
20
40
F0
00
00
ENDCHAR
STARTCHAR U+007B
ENCODING 123
SWIDTH 500 0
DWIDTH 5 0
BBX 5 10 0 -2
BITMAP 
00
30
40
20
C0
20
40
30
00
00
ENDCHAR
STARTCHAR U+007C
ENCODING 124
SWIDTH 500 0
DWIDTH 5 0
BBX 5 10 0 -2
BITMAP 
00
00
20
20
20
20
20
20
00
00
ENDCHAR
STARTCHAR U+007D
ENCODING 125
SWIDTH 500 0
DWIDTH 5 0
BBX 5 10 0 -2
BITMAP 
00
C0
20
40
30
40
20
C0
00
00
ENDCHAR
STARTCHAR U+007E
ENCODING 126
SWIDTH 500 0
DWIDTH 5 0
BBX 5 10 0 -2
BITMAP 
00
00
50
A0
00
00
00
00
00
00
ENDCHAR
STARTCHAR U+00A0
ENCODING 160
SWIDTH 500 0
DWIDTH 5 0
BBX 5 10 0 -2
BITMAP 
00
00
00
00
00
00
00
00
00
00
ENDCHAR
STARTCHAR U+00A1
ENCODING 161
SWIDTH 500 0
DWIDTH 5 0
BBX 5 10 0 -2
BITMAP 
00
00
20
00
20
20
20
20
00
00
ENDCHAR
STARTCHAR U+00A2
ENCODING 162
SWIDTH 500 0
DWIDTH 5 0
BBX 5 10 0 -2
BITMAP 
00
00
00
20
70
A0
A0
70
20
00
ENDCHAR
STARTCHAR U+00A3
ENCODING 163
SWIDTH 500 0
DWIDTH 5 0
BBX 5 10 0 -2
BITMAP 
00
00
20
50
E0
40
50
A0
00
00
ENDCHAR
STARTCHAR U+00A4
ENCODING 164
SWIDTH 500 0
DWIDTH 5 0
BBX 5 10 0 -2
BITMAP 
00
00
00
88
70
50
70
88
00
00
ENDCHAR
STARTCHAR U+00A5
ENCODING 165
SWIDTH 500 0
DWIDTH 5 0
BBX 5 10 0 -2
BITMAP 
00
00
88
50
F8
20
F8
20
00
00
ENDCHAR
STARTCHAR U+00A6
ENCODING 166
SWIDTH 500 0
DWIDTH 5 0
BBX 5 10 0 -2
BITMAP 
00
20
20
20
00
20
20
20
00
00
ENDCHAR
STARTCHAR U+00A7
ENCODING 167
SWIDTH 500 0
DWIDTH 5 0
BBX 5 10 0 -2
BITMAP 
00
70
80
E0
90
70
10
E0
00
00
ENDCHAR
STARTCHAR U+00A8
ENCODING 168
SWIDTH 500 0
DWIDTH 5 0
BBX 5 10 0 -2
BITMAP 
00
00
50
00
00
00
00
00
00
00
ENDCHAR
STARTCHAR U+00A9
ENCODING 169
SWIDTH 500 0
DWIDTH 5 0
BBX 5 10 0 -2
BITMAP 
00
00
70
A8
C8
C8
A8
70
00
00
ENDCHAR
STARTCHAR U+00AA
ENCODING 170
SWIDTH 500 0
DWIDTH 5 0
BBX 5 10 0 -2
BITMAP 
00
30
50
30
00
70
00
00
00
00
ENDCHAR
STARTCHAR U+00AB
ENCODING 171
SWIDTH 500 0
DWIDTH 5 0
BBX 5 10 0 -2
BITMAP 
00
00
00
00
50
A0
50
00
00
00
ENDCHAR
STARTCHAR U+00AC
ENCODING 172
SWIDTH 500 0
DWIDTH 5 0
BBX 5 10 0 -2
BITMAP 
00
00
00
00
00
70
10
10
00
00
ENDCHAR
STARTCHAR U+00AD
ENCODING 173
SWIDTH 500 0
DWIDTH 5 0
BBX 5 10 0 -2
BITMAP 
00
00
00
00
00
70
00
00
00
00
ENDCHAR
STARTCHAR U+00AE
ENCODING 174
SWIDTH 500 0
DWIDTH 5 0
BBX 5 10 0 -2
BITMAP 
00
00
70
E8
D8
E8
D8
70
00
00
ENDCHAR
STARTCHAR U+00AF
ENCODING 175
SWIDTH 500 0
DWIDTH 5 0
BBX 5 10 0 -2
BITMAP 
00
00
70
00
00
00
00
00
00
00
ENDCHAR
STARTCHAR U+00B0
ENCODING 176
SWIDTH 500 0
DWIDTH 5 0
BBX 5 10 0 -2
BITMAP 
00
00
20
50
20
00
00
00
00
00
ENDCHAR
STARTCHAR U+00B1
ENCODING 177
SWIDTH 500 0
DWIDTH 5 0
BBX 5 10 0 -2
BITMAP 
00
00
00
20
70
20
00
70
00
00
ENDCHAR
STARTCHAR U+00B2
ENCODING 178
SWIDTH 500 0
DWIDTH 5 0
BBX 5 10 0 -2
BITMAP 
00
20
50
10
20
70
00
00
00
00
ENDCHAR
STARTCHAR U+00B3
ENCODING 179
SWIDTH 500 0
DWIDTH 5 0
BBX 5 10 0 -2
BITMAP 
00
60
10
60
10
60
00
00
00
00
ENDCHAR
STARTCHAR U+00B4
ENCODING 180
SWIDTH 500 0
DWIDTH 5 0
BBX 5 10 0 -2
BITMAP 
00
00
20
40
00
00
00
00
00
00
ENDCHAR
STARTCHAR U+00B5
ENCODING 181
SWIDTH 500 0
DWIDTH 5 0
BBX 5 10 0 -2
BITMAP 
00
00
00
00
90
90
90
E0
80
00
ENDCHAR
STARTCHAR U+00B6
ENCODING 182
SWIDTH 500 0
DWIDTH 5 0
BBX 5 10 0 -2
BITMAP 
00
00
78
E8
E8
68
28
28
00
00
ENDCHAR
STARTCHAR U+00B7
ENCODING 183
SWIDTH 500 0
DWIDTH 5 0
BBX 5 10 0 -2
BITMAP 
00
00
00
00
00
20
00
00
00
00
ENDCHAR
STARTCHAR U+00B8
ENCODING 184
SWIDTH 500 0
DWIDTH 5 0
BBX 5 10 0 -2
BITMAP 
00
00
00
00
00
00
00
20
40
00
ENDCHAR
STARTCHAR U+00B9
ENCODING 185
SWIDTH 500 0
DWIDTH 5 0
BBX 5 10 0 -2
BITMAP 
00
20
60
20
20
70
00
00
00
00
ENDCHAR
STARTCHAR U+00BA
ENCODING 186
SWIDTH 500 0
DWIDTH 5 0
BBX 5 10 0 -2
BITMAP 
00
20
50
20
00
70
00
00
00
00
ENDCHAR
STARTCHAR U+00BB
ENCODING 187
SWIDTH 500 0
DWIDTH 5 0
BBX 5 10 0 -2
BITMAP 
00
00
00
00
A0
50
A0
00
00
00
ENDCHAR
STARTCHAR U+00BC
ENCODING 188
SWIDTH 500 0
DWIDTH 5 0
BBX 5 10 0 -2
BITMAP 
00
80
80
80
A0
60
F0
20
00
00
ENDCHAR
STARTCHAR U+00BD
ENCODING 189
SWIDTH 500 0
DWIDTH 5 0
BBX 5 10 0 -2
BITMAP 
00
80
80
A0
D0
10
20
70
00
00
ENDCHAR
STARTCHAR U+00BE
ENCODING 190
SWIDTH 500 0
DWIDTH 5 0
BBX 5 10 0 -2
BITMAP 
00
80
40
80
60
A0
F0
20
00
00
ENDCHAR
STARTCHAR U+00BF
ENCODING 191
SWIDTH 500 0
DWIDTH 5 0
BBX 5 10 0 -2
BITMAP 
00
00
20
00
20
40
50
20
00
00
ENDCHAR
STARTCHAR U+00C0
ENCODING 192
SWIDTH 500 0
DWIDTH 5 0
BBX 5 10 0 -2
BITMAP 
00
40
20
60
90
F0
90
90
00
00
ENDCHAR
STARTCHAR U+00C1
ENCODING 193
SWIDTH 500 0
DWIDTH 5 0
BBX 5 10 0 -2
BITMAP 
00
20
40
60
90
F0
90
90
00
00
ENDCHAR
STARTCHAR U+00C2
ENCODING 194
SWIDTH 500 0
DWIDTH 5 0
BBX 5 10 0 -2
BITMAP 
00
60
90
60
90
F0
90
90
00
00
ENDCHAR
STARTCHAR U+00C3
ENCODING 195
SWIDTH 500 0
DWIDTH 5 0
BBX 5 10 0 -2
BITMAP 
00
50
A0
60
90
F0
90
90
00
00
ENDCHAR
STARTCHAR U+00C4
ENCODING 196
SWIDTH 500 0
DWIDTH 5 0
BBX 5 10 0 -2
BITMAP 
00
90
00
60
90
F0
90
90
00
00
ENDCHAR
STARTCHAR U+00C5
ENCODING 197
SWIDTH 500 0
DWIDTH 5 0
BBX 5 10 0 -2
BITMAP 
00
60
90
60
90
F0
90
90
00
00
ENDCHAR
STARTCHAR U+00C6
ENCODING 198
SWIDTH 500 0
DWIDTH 5 0
BBX 5 10 0 -2
BITMAP 
00
00
70
A0
A0
F0
A0
B0
00
00
ENDCHAR
STARTCHAR U+00C7
ENCODING 199
SWIDTH 500 0
DWIDTH 5 0
BBX 5 10 0 -2
BITMAP 
00
00
60
90
80
80
90
60
40
00
ENDCHAR
STARTCHAR U+00C8
ENCODING 200
SWIDTH 500 0
DWIDTH 5 0
BBX 5 10 0 -2
BITMAP 
00
40
20
F0
80
E0
80
F0
00
00
ENDCHAR
STARTCHAR U+00C9
ENCODING 201
SWIDTH 500 0
DWIDTH 5 0
BBX 5 10 0 -2
BITMAP 
00
20
40
F0
80
E0
80
F0
00
00
ENDCHAR
STARTCHAR U+00CA
ENCODING 202
SWIDTH 500 0
DWIDTH 5 0
BBX 5 10 0 -2
BITMAP 
00
60
90
F0
80
E0
80
F0
00
00
ENDCHAR
STARTCHAR U+00CB
ENCODING 203
SWIDTH 500 0
DWIDTH 5 0
BBX 5 10 0 -2
BITMAP 
00
90
00
F0
80
E0
80
F0
00
00
ENDCHAR
STARTCHAR U+00CC
ENCODING 204
SWIDTH 500 0
DWIDTH 5 0
BBX 5 10 0 -2
BITMAP 
00
40
20
70
20
20
20
70
00
00
ENDCHAR
STARTCHAR U+00CD
ENCODING 205
SWIDTH 500 0
DWIDTH 5 0
BBX 5 10 0 -2
BITMAP 
00
10
20
70
20
20
20
70
00
00
ENDCHAR
STARTCHAR U+00CE
ENCODING 206
SWIDTH 500 0
DWIDTH 5 0
BBX 5 10 0 -2
BITMAP 
00
20
50
70
20
20
20
70
00
00
ENDCHAR
STARTCHAR U+00CF
ENCODING 207
SWIDTH 500 0
DWIDTH 5 0
BBX 5 10 0 -2
BITMAP 
00
50
00
70
20
20
20
70
00
00
ENDCHAR
STARTCHAR U+00D0
ENCODING 208
SWIDTH 500 0
DWIDTH 5 0
BBX 5 10 0 -2
BITMAP 
00
00
70
48
E8
48
48
70
00
00
ENDCHAR
STARTCHAR U+00D1
ENCODING 209
SWIDTH 500 0
DWIDTH 5 0
BBX 5 10 0 -2
BITMAP 
00
50
A0
90
D0
B0
90
90
00
00
ENDCHAR
STARTCHAR U+00D2
ENCODING 210
SWIDTH 500 0
DWIDTH 5 0
BBX 5 10 0 -2
BITMAP 
00
40
20
60
90
90
90
60
00
00
ENDCHAR
STARTCHAR U+00D3
ENCODING 211
SWIDTH 500 0
DWIDTH 5 0
BBX 5 10 0 -2
BITMAP 
00
20
40
60
90
90
90
60
00
00
ENDCHAR
STARTCHAR U+00D4
ENCODING 212
SWIDTH 500 0
DWIDTH 5 0
BBX 5 10 0 -2
BITMAP 
00
60
90
60
90
90
90
60
00
00
ENDCHAR
STARTCHAR U+00D5
ENCODING 213
SWIDTH 500 0
DWIDTH 5 0
BBX 5 10 0 -2
BITMAP 
00
50
A0
60
90
90
90
60
00
00
ENDCHAR
STARTCHAR U+00D6
ENCODING 214
SWIDTH 500 0
DWIDTH 5 0
BBX 5 10 0 -2
BITMAP 
00
90
00
60
90
90
90
60
00
00
ENDCHAR
STARTCHAR U+00D7
ENCODING 215
SWIDTH 500 0
DWIDTH 5 0
BBX 5 10 0 -2
BITMAP 
00
00
00
00
00
50
20
50
00
00
ENDCHAR
STARTCHAR U+00D8
ENCODING 216
SWIDTH 500 0
DWIDTH 5 0
BBX 5 10 0 -2
BITMAP 
00
00
70
B0
B0
D0
D0
E0
00
00
ENDCHAR
STARTCHAR U+00D9
ENCODING 217
SWIDTH 500 0
DWIDTH 5 0
BBX 5 10 0 -2
BITMAP 
00
40
20
90
90
90
90
60
00
00
ENDCHAR
STARTCHAR U+00DA
ENCODING 218
SWIDTH 500 0
DWIDTH 5 0
BBX 5 10 0 -2
BITMAP 
00
20
40
90
90
90
90
60
00
00
ENDCHAR
STARTCHAR U+00DB
ENCODING 219
SWIDTH 500 0
DWIDTH 5 0
BBX 5 10 0 -2
BITMAP 
00
60
90
90
90
90
90
60
00
00
ENDCHAR
STARTCHAR U+00DC
ENCODING 220
SWIDTH 500 0
DWIDTH 5 0
BBX 5 10 0 -2
BITMAP 
00
90
00
90
90
90
90
60
00
00
ENDCHAR
STARTCHAR U+00DD
ENCODING 221
SWIDTH 500 0
DWIDTH 5 0
BBX 5 10 0 -2
BITMAP 
00
10
20
88
50
20
20
20
00
00
ENDCHAR
STARTCHAR U+00DE
ENCODING 222
SWIDTH 500 0
DWIDTH 5 0
BBX 5 10 0 -2
BITMAP 
00
00
80
E0
90
90
E0
80
00
00
ENDCHAR
STARTCHAR U+00DF
ENCODING 223
SWIDTH 500 0
DWIDTH 5 0
BBX 5 10 0 -2
BITMAP 
00
00
60
90
A0
A0
90
A0
00
00
ENDCHAR
STARTCHAR U+00E0
ENCODING 224
SWIDTH 500 0
DWIDTH 5 0
BBX 5 10 0 -2
BITMAP 
00
40
20
00
70
90
90
70
00
00
ENDCHAR
STARTCHAR U+00E1
ENCODING 225
SWIDTH 500 0
DWIDTH 5 0
BBX 5 10 0 -2
BITMAP 
00
20
40
00
70
90
90
70
00
00
ENDCHAR
STARTCHAR U+00E2
ENCODING 226
SWIDTH 500 0
DWIDTH 5 0
BBX 5 10 0 -2
BITMAP 
00
20
50
00
70
90
90
70
00
00
ENDCHAR
STARTCHAR U+00E3
ENCODING 227
SWIDTH 500 0
DWIDTH 5 0
BBX 5 10 0 -2
BITMAP 
00
50
A0
00
70
90
90
70
00
00
ENDCHAR
STARTCHAR U+00E4
ENCODING 228
SWIDTH 500 0
DWIDTH 5 0
BBX 5 10 0 -2
BITMAP 
00
00
50
00
70
90
90
70
00
00
ENDCHAR
STARTCHAR U+00E5
ENCODING 229
SWIDTH 500 0
DWIDTH 5 0
BBX 5 10 0 -2
BITMAP 
00
60
90
60
70
90
90
70
00
00
ENDCHAR
STARTCHAR U+00E6
ENCODING 230
SWIDTH 500 0
DWIDTH 5 0
BBX 5 10 0 -2
BITMAP 
00
00
00
00
F0
68
B0
78
00
00
ENDCHAR
STARTCHAR U+00E7
ENCODING 231
SWIDTH 500 0
DWIDTH 5 0
BBX 5 10 0 -2
BITMAP 
00
00
00
00
30
40
40
30
20
00
ENDCHAR
STARTCHAR U+00E8
ENCODING 232
SWIDTH 500 0
DWIDTH 5 0
BBX 5 10 0 -2
BITMAP 
00
40
20
00
60
B0
C0
60
00
00
ENDCHAR
STARTCHAR U+00E9
ENCODING 233
SWIDTH 500 0
DWIDTH 5 0
BBX 5 10 0 -2
BITMAP 
00
20
40
00
60
B0
C0
60
00
00
ENDCHAR
STARTCHAR U+00EA
ENCODING 234
SWIDTH 500 0
DWIDTH 5 0
BBX 5 10 0 -2
BITMAP 
00
60
90
00
60
B0
C0
60
00
00
ENDCHAR
STARTCHAR U+00EB
ENCODING 235
SWIDTH 500 0
DWIDTH 5 0
BBX 5 10 0 -2
BITMAP 
00
00
50
00
60
B0
C0
60
00
00
ENDCHAR
STARTCHAR U+00EC
ENCODING 236
SWIDTH 500 0
DWIDTH 5 0
BBX 5 10 0 -2
BITMAP 
00
40
20
00
60
20
20
70
00
00
ENDCHAR
STARTCHAR U+00ED
ENCODING 237
SWIDTH 500 0
DWIDTH 5 0
BBX 5 10 0 -2
BITMAP 
00
10
20
00
60
20
20
70
00
00
ENDCHAR
STARTCHAR U+00EE
ENCODING 238
SWIDTH 500 0
DWIDTH 5 0
BBX 5 10 0 -2
BITMAP 
00
20
50
00
60
20
20
70
00
00
ENDCHAR
STARTCHAR U+00EF
ENCODING 239
SWIDTH 500 0
DWIDTH 5 0
BBX 5 10 0 -2
BITMAP 
00
00
50
00
60
20
20
70
00
00
ENDCHAR
STARTCHAR U+00F0
ENCODING 240
SWIDTH 500 0
DWIDTH 5 0
BBX 5 10 0 -2
BITMAP 
00
A0
40
A0
10
70
90
60
00
00
ENDCHAR
STARTCHAR U+00F1
ENCODING 241
SWIDTH 500 0
DWIDTH 5 0
BBX 5 10 0 -2
BITMAP 
00
50
A0
00
E0
90
90
90
00
00
ENDCHAR
STARTCHAR U+00F2
ENCODING 242
SWIDTH 500 0
DWIDTH 5 0
BBX 5 10 0 -2
BITMAP 
00
40
20
00
60
90
90
60
00
00
ENDCHAR
STARTCHAR U+00F3
ENCODING 243
SWIDTH 500 0
DWIDTH 5 0
BBX 5 10 0 -2
BITMAP 
00
20
40
00
60
90
90
60
00
00
ENDCHAR
STARTCHAR U+00F4
ENCODING 244
SWIDTH 500 0
DWIDTH 5 0
BBX 5 10 0 -2
BITMAP 
00
60
90
00
60
90
90
60
00
00
ENDCHAR
STARTCHAR U+00F5
ENCODING 245
SWIDTH 500 0
DWIDTH 5 0
BBX 5 10 0 -2
BITMAP 
00
50
A0
00
60
90
90
60
00
00
ENDCHAR
STARTCHAR U+00F6
ENCODING 246
SWIDTH 500 0
DWIDTH 5 0
BBX 5 10 0 -2
BITMAP 
00
00
90
00
60
90
90
60
00
00
ENDCHAR
STARTCHAR U+00F7
ENCODING 247
SWIDTH 500 0
DWIDTH 5 0
BBX 5 10 0 -2
BITMAP 
00
00
00
20
00
70
00
20
00
00
ENDCHAR
STARTCHAR U+00F8
ENCODING 248
SWIDTH 500 0
DWIDTH 5 0
BBX 5 10 0 -2
BITMAP 
00
00
00
00
70
B0
D0
E0
00
00
ENDCHAR
STARTCHAR U+00F9
ENCODING 249
SWIDTH 500 0
DWIDTH 5 0
BBX 5 10 0 -2
BITMAP 
00
40
20
00
90
90
90
70
00
00
ENDCHAR
STARTCHAR U+00FA
ENCODING 250
SWIDTH 500 0
DWIDTH 5 0
BBX 5 10 0 -2
BITMAP 
00
20
40
00
90
90
90
70
00
00
ENDCHAR
STARTCHAR U+00FB
ENCODING 251
SWIDTH 500 0
DWIDTH 5 0
BBX 5 10 0 -2
BITMAP 
00
60
90
00
90
90
90
70
00
00
ENDCHAR
STARTCHAR U+00FC
ENCODING 252
SWIDTH 500 0
DWIDTH 5 0
BBX 5 10 0 -2
BITMAP 
00
00
90
00
90
90
90
70
00
00
ENDCHAR
STARTCHAR U+00FD
ENCODING 253
SWIDTH 500 0
DWIDTH 5 0
BBX 5 10 0 -2
BITMAP 
00
20
40
00
90
90
70
90
60
00
ENDCHAR
STARTCHAR U+00FE
ENCODING 254
SWIDTH 500 0
DWIDTH 5 0
BBX 5 10 0 -2
BITMAP 
00
00
80
80
E0
90
E0
80
80
00
ENDCHAR
STARTCHAR U+00FF
ENCODING 255
SWIDTH 500 0
DWIDTH 5 0
BBX 5 10 0 -2
BITMAP 
00
00
90
00
90
90
70
90
60
00
ENDCHAR
STARTCHAR U+0100
ENCODING 256
SWIDTH 500 0
DWIDTH 5 0
BBX 5 10 0 -2
BITMAP 
00
F0
00
60
90
F0
90
90
00
00
ENDCHAR
STARTCHAR U+0101
ENCODING 257
SWIDTH 500 0
DWIDTH 5 0
BBX 5 10 0 -2
BITMAP 
00
00
F0
00
70
90
90
70
00
00
ENDCHAR
STARTCHAR U+0102
ENCODING 258
SWIDTH 500 0
DWIDTH 5 0
BBX 5 10 0 -2
BITMAP 
00
90
60
60
90
F0
90
90
00
00
ENDCHAR
STARTCHAR U+0103
ENCODING 259
SWIDTH 500 0
DWIDTH 5 0
BBX 5 10 0 -2
BITMAP 
00
90
60
00
70
90
90
70
00
00
ENDCHAR
STARTCHAR U+0104
ENCODING 260
SWIDTH 500 0
DWIDTH 5 0
BBX 5 10 0 -2
BITMAP 
00
00
60
90
90
F0
90
90
30
00
ENDCHAR
STARTCHAR U+0105
ENCODING 261
SWIDTH 500 0
DWIDTH 5 0
BBX 5 10 0 -2
BITMAP 
00
00
00
00
70
90
90
70
20
00
ENDCHAR
STARTCHAR U+0106
ENCODING 262
SWIDTH 500 0
DWIDTH 5 0
BBX 5 10 0 -2
BITMAP 
00
20
40
60
90
80
90
60
00
00
ENDCHAR
STARTCHAR U+0107
ENCODING 263
SWIDTH 500 0
DWIDTH 5 0
BBX 5 10 0 -2
BITMAP 
00
10
20
00
30
40
40
30
00
00
ENDCHAR
STARTCHAR U+0108
ENCODING 264
SWIDTH 500 0
DWIDTH 5 0
BBX 5 10 0 -2
BITMAP 
00
60
90
60
90
80
90
60
00
00
ENDCHAR
STARTCHAR U+0109
ENCODING 265
SWIDTH 500 0
DWIDTH 5 0
BBX 5 10 0 -2
BITMAP 
00
60
90
00
60
80
80
60
00
00
ENDCHAR
STARTCHAR U+010A
ENCODING 266
SWIDTH 500 0
DWIDTH 5 0
BBX 5 10 0 -2
BITMAP 
00
40
00
60
90
80
90
60
00
00
ENDCHAR
STARTCHAR U+010B
ENCODING 267
SWIDTH 500 0
DWIDTH 5 0
BBX 5 10 0 -2
BITMAP 
00
00
20
00
30
40
40
30
00
00
ENDCHAR
STARTCHAR U+010C
ENCODING 268
SWIDTH 500 0
DWIDTH 5 0
BBX 5 10 0 -2
BITMAP 
00
90
60
60
90
80
90
60
00
00
ENDCHAR
STARTCHAR U+010D
ENCODING 269
SWIDTH 500 0
DWIDTH 5 0
BBX 5 10 0 -2
BITMAP 
00
90
60
00
60
80
80
60
00
00
ENDCHAR
STARTCHAR U+010E
ENCODING 270
SWIDTH 500 0
DWIDTH 5 0
BBX 5 10 0 -2
BITMAP 
00
90
60
E0
90
90
90
E0
00
00
ENDCHAR
STARTCHAR U+010F
ENCODING 271
SWIDTH 500 0
DWIDTH 5 0
BBX 5 10 0 -2
BITMAP 
00
A0
50
10
70
90
90
70
00
00
ENDCHAR
STARTCHAR U+0110
ENCODING 272
SWIDTH 500 0
DWIDTH 5 0
BBX 5 10 0 -2
BITMAP 
00
00
70
48
E8
48
48
70
00
00
ENDCHAR
STARTCHAR U+0111
ENCODING 273
SWIDTH 500 0
DWIDTH 5 0
BBX 5 10 0 -2
BITMAP 
00
00
20
70
20
60
A0
60
00
00
ENDCHAR
STARTCHAR U+0112
ENCODING 274
SWIDTH 500 0
DWIDTH 5 0
BBX 5 10 0 -2
BITMAP 
00
F0
00
F0
80
E0
80
F0
00
00
ENDCHAR
STARTCHAR U+0113
ENCODING 275
SWIDTH 500 0
DWIDTH 5 0
BBX 5 10 0 -2
BITMAP 
00
00
F0
00
60
B0
C0
60
00
00
ENDCHAR
STARTCHAR U+0114
ENCODING 276
SWIDTH 500 0
DWIDTH 5 0
BBX 5 10 0 -2
BITMAP 
00
90
60
F0
80
E0
80
F0
00
00
ENDCHAR
STARTCHAR U+0115
ENCODING 277
SWIDTH 500 0
DWIDTH 5 0
BBX 5 10 0 -2
BITMAP 
00
90
60
00
60
B0
C0
60
00
00
ENDCHAR
STARTCHAR U+0116
ENCODING 278
SWIDTH 500 0
DWIDTH 5 0
BBX 5 10 0 -2
BITMAP 
00
60
00
F0
80
E0
80
F0
00
00
ENDCHAR
STARTCHAR U+0117
ENCODING 279
SWIDTH 500 0
DWIDTH 5 0
BBX 5 10 0 -2
BITMAP 
00
00
60
00
60
B0
C0
60
00
00
ENDCHAR
STARTCHAR U+0118
ENCODING 280
SWIDTH 500 0
DWIDTH 5 0
BBX 5 10 0 -2
BITMAP 
00
00
F0
80
E0
80
80
F0
20
00
ENDCHAR
STARTCHAR U+0119
ENCODING 281
SWIDTH 500 0
DWIDTH 5 0
BBX 5 10 0 -2
BITMAP 
00
00
00
00
60
B0
C0
60
20
00
ENDCHAR
STARTCHAR U+011A
ENCODING 282
SWIDTH 500 0
DWIDTH 5 0
BBX 5 10 0 -2
BITMAP 
00
90
60
F0
80
E0
80
F0
00
00
ENDCHAR
STARTCHAR U+011B
ENCODING 283
SWIDTH 500 0
DWIDTH 5 0
BBX 5 10 0 -2
BITMAP 
00
90
60
00
60
B0
C0
60
00
00
ENDCHAR
STARTCHAR U+011C
ENCODING 284
SWIDTH 500 0
DWIDTH 5 0
BBX 5 10 0 -2
BITMAP 
00
60
90
70
80
B0
90
60
00
00
ENDCHAR
STARTCHAR U+011D
ENCODING 285
SWIDTH 500 0
DWIDTH 5 0
BBX 5 10 0 -2
BITMAP 
00
60
90
00
60
90
70
10
60
00
ENDCHAR
STARTCHAR U+011E
ENCODING 286
SWIDTH 500 0
DWIDTH 5 0
BBX 5 10 0 -2
BITMAP 
00
90
60
70
80
B0
90
60
00
00
ENDCHAR
STARTCHAR U+011F
ENCODING 287
SWIDTH 500 0
DWIDTH 5 0
BBX 5 10 0 -2
BITMAP 
00
90
60
00
60
90
70
10
60
00
ENDCHAR
STARTCHAR U+0120
ENCODING 288
SWIDTH 500 0
DWIDTH 5 0
BBX 5 10 0 -2
BITMAP 
00
60
00
70
80
B0
90
60
00
00
ENDCHAR
STARTCHAR U+0121
ENCODING 289
SWIDTH 500 0
DWIDTH 5 0
BBX 5 10 0 -2
BITMAP 
00
00
60
00
60
90
70
10
60
00
ENDCHAR
STARTCHAR U+0122
ENCODING 290
SWIDTH 500 0
DWIDTH 5 0
BBX 5 10 0 -2
BITMAP 
00
00
60
90
80
B0
90
60
20
00
ENDCHAR
STARTCHAR U+0123
ENCODING 291
SWIDTH 500 0
DWIDTH 5 0
BBX 5 10 0 -2
BITMAP 
00
60
40
00
60
90
70
10
60
00
ENDCHAR
STARTCHAR U+0124
ENCODING 292
SWIDTH 500 0
DWIDTH 5 0
BBX 5 10 0 -2
BITMAP 
00
60
90
00
90
F0
90
90
00
00
ENDCHAR
STARTCHAR U+0125
ENCODING 293
SWIDTH 500 0
DWIDTH 5 0
BBX 5 10 0 -2
BITMAP 
00
60
90
80
E0
90
90
90
00
00
ENDCHAR
STARTCHAR U+0126
ENCODING 294
SWIDTH 500 0
DWIDTH 5 0
BBX 5 10 0 -2
BITMAP 
00
00
50
F8
50
70
50
50
00
00
ENDCHAR
STARTCHAR U+0127
ENCODING 295
SWIDTH 500 0
DWIDTH 5 0
BBX 5 10 0 -2
BITMAP 
00
00
40
F0
40
70
48
48
00
00
ENDCHAR
STARTCHAR U+0128
ENCODING 296
SWIDTH 500 0
DWIDTH 5 0
BBX 5 10 0 -2
BITMAP 
00
50
A0
E0
40
40
40
E0
00
00
ENDCHAR
STARTCHAR U+0129
ENCODING 297
SWIDTH 500 0
DWIDTH 5 0
BBX 5 10 0 -2
BITMAP 
00
50
A0
00
C0
40
40
E0
00
00
ENDCHAR
STARTCHAR U+012A
ENCODING 298
SWIDTH 500 0
DWIDTH 5 0
BBX 5 10 0 -2
BITMAP 
00
70
00
70
20
20
20
70
00
00
ENDCHAR
STARTCHAR U+012B
ENCODING 299
SWIDTH 500 0
DWIDTH 5 0
BBX 5 10 0 -2
BITMAP 
00
00
70
00
60
20
20
70
00
00
ENDCHAR
STARTCHAR U+012C
ENCODING 300
SWIDTH 500 0
DWIDTH 5 0
BBX 5 10 0 -2
BITMAP 
00
90
60
70
20
20
20
70
00
00
ENDCHAR
STARTCHAR U+012D
ENCODING 301
SWIDTH 500 0
DWIDTH 5 0
BBX 5 10 0 -2
BITMAP 
00
90
60
00
60
20
20
70
00
00
ENDCHAR
STARTCHAR U+012E
ENCODING 302
SWIDTH 500 0
DWIDTH 5 0
BBX 5 10 0 -2
BITMAP 
00
00
70
20
20
20
20
70
10
00
ENDCHAR
STARTCHAR U+012F
ENCODING 303
SWIDTH 500 0
DWIDTH 5 0
BBX 5 10 0 -2
BITMAP 
00
00
20
00
60
20
20
70
10
00
ENDCHAR
STARTCHAR U+0130
ENCODING 304
SWIDTH 500 0
DWIDTH 5 0
BBX 5 10 0 -2
BITMAP 
00
20
00
70
20
20
20
70
00
00
ENDCHAR
STARTCHAR U+0131
ENCODING 305
SWIDTH 500 0
DWIDTH 5 0
BBX 5 10 0 -2
BITMAP 
00
00
00
00
60
20
20
70
00
00
ENDCHAR
STARTCHAR U+0132
ENCODING 306
SWIDTH 500 0
DWIDTH 5 0
BBX 5 10 0 -2
BITMAP 
00
00
B0
90
90
90
D0
A0
00
00
ENDCHAR
STARTCHAR U+0133
ENCODING 307
SWIDTH 500 0
DWIDTH 5 0
BBX 5 10 0 -2
BITMAP 
00
00
50
00
50
50
50
50
20
00
ENDCHAR
STARTCHAR U+0134
ENCODING 308
SWIDTH 500 0
DWIDTH 5 0
BBX 5 10 0 -2
BITMAP 
00
20
50
70
20
20
A0
40
00
00
ENDCHAR
STARTCHAR U+0135
ENCODING 309
SWIDTH 500 0
DWIDTH 5 0
BBX 5 10 0 -2
BITMAP 
00
20
50
00
20
20
20
A0
40
00
ENDCHAR
STARTCHAR U+0136
ENCODING 310
SWIDTH 500 0
DWIDTH 5 0
BBX 5 10 0 -2
BITMAP 
00
00
48
50
60
50
50
48
80
00
ENDCHAR
STARTCHAR U+0137
ENCODING 311
SWIDTH 500 0
DWIDTH 5 0
BBX 5 10 0 -2
BITMAP 
00
00
40
40
48
70
48
48
80
00
ENDCHAR
STARTCHAR U+0138
ENCODING 312
SWIDTH 500 0
DWIDTH 5 0
BBX 5 10 0 -2
BITMAP 
00
00
00
00
50
60
50
50
00
00
ENDCHAR
STARTCHAR U+0139
ENCODING 313
SWIDTH 500 0
DWIDTH 5 0
BBX 5 10 0 -2
BITMAP 
00
10
20
80
80
80
80
F0
00
00
ENDCHAR
STARTCHAR U+013A
ENCODING 314
SWIDTH 500 0
DWIDTH 5 0
BBX 5 10 0 -2
BITMAP 
00
10
20
60
20
20
20
70
00
00
ENDCHAR
STARTCHAR U+013B
ENCODING 315
SWIDTH 500 0
DWIDTH 5 0
BBX 5 10 0 -2
BITMAP 
00
00
80
80
80
80
80
F0
20
00
ENDCHAR
STARTCHAR U+013C
ENCODING 316
SWIDTH 500 0
DWIDTH 5 0
BBX 5 10 0 -2
BITMAP 
00
00
60
20
20
20
20
70
20
00
ENDCHAR
STARTCHAR U+013D
ENCODING 317
SWIDTH 500 0
DWIDTH 5 0
BBX 5 10 0 -2
BITMAP 
00
50
20
80
80
80
80
F0
00
00
ENDCHAR
STARTCHAR U+013E
ENCODING 318
SWIDTH 500 0
DWIDTH 5 0
BBX 5 10 0 -2
BITMAP 
00
50
20
60
20
20
20
70
00
00
ENDCHAR
STARTCHAR U+013F
ENCODING 319
SWIDTH 500 0
DWIDTH 5 0
BBX 5 10 0 -2
BITMAP 
00
00
80
80
A0
80
80
F0
00
00
ENDCHAR
STARTCHAR U+0140
ENCODING 320
SWIDTH 500 0
DWIDTH 5 0
BBX 5 10 0 -2
BITMAP 
00
00
C0
40
50
40
40
E0
00
00
ENDCHAR
STARTCHAR U+0141
ENCODING 321
SWIDTH 500 0
DWIDTH 5 0
BBX 5 10 0 -2
BITMAP 
00
00
40
60
C0
40
40
78
00
00
ENDCHAR
STARTCHAR U+0142
ENCODING 322
SWIDTH 500 0
DWIDTH 5 0
BBX 5 10 0 -2
BITMAP 
00
00
60
20
30
60
20
70
00
00
ENDCHAR
STARTCHAR U+0143
ENCODING 323
SWIDTH 500 0
DWIDTH 5 0
BBX 5 10 0 -2
BITMAP 
00
20
40
90
D0
B0
90
90
00
00
ENDCHAR
STARTCHAR U+0144
ENCODING 324
SWIDTH 500 0
DWIDTH 5 0
BBX 5 10 0 -2
BITMAP 
00
20
40
00
E0
90
90
90
00
00
ENDCHAR
STARTCHAR U+0145
ENCODING 325
SWIDTH 500 0
DWIDTH 5 0
BBX 5 10 0 -2
BITMAP 
00
00
90
D0
F0
B0
B0
90
40
00
ENDCHAR
STARTCHAR U+0146
ENCODING 326
SWIDTH 500 0
DWIDTH 5 0
BBX 5 10 0 -2
BITMAP 
00
00
00
00
E0
90
90
90
40
00
ENDCHAR
STARTCHAR U+0147
ENCODING 327
SWIDTH 500 0
DWIDTH 5 0
BBX 5 10 0 -2
BITMAP 
00
90
60
90
D0
B0
90
90
00
00
ENDCHAR
STARTCHAR U+0148
ENCODING 328
SWIDTH 500 0
DWIDTH 5 0
BBX 5 10 0 -2
BITMAP 
00
90
60
00
E0
90
90
90
00
00
ENDCHAR
STARTCHAR U+0149
ENCODING 329
SWIDTH 500 0
DWIDTH 5 0
BBX 5 10 0 -2
BITMAP 
00
C0
40
80
30
28
28
28
00
00
ENDCHAR
STARTCHAR U+014A
ENCODING 330
SWIDTH 500 0
DWIDTH 5 0
BBX 5 10 0 -2
BITMAP 
00
00
90
D0
F0
B0
B0
90
20
00
ENDCHAR
STARTCHAR U+014B
ENCODING 331
SWIDTH 500 0
DWIDTH 5 0
BBX 5 10 0 -2
BITMAP 
00
00
00
00
E0
90
90
90
20
00
ENDCHAR
STARTCHAR U+014C
ENCODING 332
SWIDTH 500 0
DWIDTH 5 0
BBX 5 10 0 -2
BITMAP 
00
F0
00
60
90
90
90
60
00
00
ENDCHAR
STARTCHAR U+014D
ENCODING 333
SWIDTH 500 0
DWIDTH 5 0
BBX 5 10 0 -2
BITMAP 
00
00
F0
00
60
90
90
60
00
00
ENDCHAR
STARTCHAR U+014E
ENCODING 334
SWIDTH 500 0
DWIDTH 5 0
BBX 5 10 0 -2
BITMAP 
00
90
60
60
90
90
90
60
00
00
ENDCHAR
STARTCHAR U+014F
ENCODING 335
SWIDTH 500 0
DWIDTH 5 0
BBX 5 10 0 -2
BITMAP 
00
90
60
00
60
90
90
60
00
00
ENDCHAR
STARTCHAR U+0150
ENCODING 336
SWIDTH 500 0
DWIDTH 5 0
BBX 5 10 0 -2
BITMAP 
00
48
90
30
48
48
48
30
00
00
ENDCHAR
STARTCHAR U+0151
ENCODING 337
SWIDTH 500 0
DWIDTH 5 0
BBX 5 10 0 -2
BITMAP 
00
48
90
00
30
48
48
30
00
00
ENDCHAR
STARTCHAR U+0152
ENCODING 338
SWIDTH 500 0
DWIDTH 5 0
BBX 5 10 0 -2
BITMAP 
00
00
70
A0
B0
A0
A0
70
00
00
ENDCHAR
STARTCHAR U+0153
ENCODING 339
SWIDTH 500 0
DWIDTH 5 0
BBX 5 10 0 -2
BITMAP 
00
00
00
00
70
A8
B0
78
00
00
ENDCHAR
STARTCHAR U+0154
ENCODING 340
SWIDTH 500 0
DWIDTH 5 0
BBX 5 10 0 -2
BITMAP 
00
20
40
E0
90
E0
90
90
00
00
ENDCHAR
STARTCHAR U+0155
ENCODING 341
SWIDTH 500 0
DWIDTH 5 0
BBX 5 10 0 -2
BITMAP 
00
20
40
00
A0
D0
80
80
00
00
ENDCHAR
STARTCHAR U+0156
ENCODING 342
SWIDTH 500 0
DWIDTH 5 0
BBX 5 10 0 -2
BITMAP 
00
00
E0
90
90
E0
90
90
20
00
ENDCHAR
STARTCHAR U+0157
ENCODING 343
SWIDTH 500 0
DWIDTH 5 0
BBX 5 10 0 -2
BITMAP 
00
00
00
00
50
68
40
40
80
00
ENDCHAR
STARTCHAR U+0158
ENCODING 344
SWIDTH 500 0
DWIDTH 5 0
BBX 5 10 0 -2
BITMAP 
00
90
60
E0
90
E0
90
90
00
00
ENDCHAR
STARTCHAR U+0159
ENCODING 345
SWIDTH 500 0
DWIDTH 5 0
BBX 5 10 0 -2
BITMAP 
00
90
60
00
A0
D0
80
80
00
00
ENDCHAR
STARTCHAR U+015A
ENCODING 346
SWIDTH 500 0
DWIDTH 5 0
BBX 5 10 0 -2
BITMAP 
00
20
40
70
80
60
10
E0
00
00
ENDCHAR
STARTCHAR U+015B
ENCODING 347
SWIDTH 500 0
DWIDTH 5 0
BBX 5 10 0 -2
BITMAP 
00
10
20
00
30
60
10
60
00
00
ENDCHAR
STARTCHAR U+015C
ENCODING 348
SWIDTH 500 0
DWIDTH 5 0
BBX 5 10 0 -2
BITMAP 
00
60
90
70
80
60
10
E0
00
00
ENDCHAR
STARTCHAR U+015D
ENCODING 349
SWIDTH 500 0
DWIDTH 5 0
BBX 5 10 0 -2
BITMAP 
00
20
50
00
30
60
10
60
00
00
ENDCHAR
STARTCHAR U+015E
ENCODING 350
SWIDTH 500 0
DWIDTH 5 0
BBX 5 10 0 -2
BITMAP 
00
00
60
90
40
20
90
60
20
00
ENDCHAR
STARTCHAR U+015F
ENCODING 351
SWIDTH 500 0
DWIDTH 5 0
BBX 5 10 0 -2
BITMAP 
00
00
00
00
30
60
10
60
20
00
ENDCHAR
STARTCHAR U+0160
ENCODING 352
SWIDTH 500 0
DWIDTH 5 0
BBX 5 10 0 -2
BITMAP 
00
90
60
70
80
60
10
E0
00
00
ENDCHAR
STARTCHAR U+0161
ENCODING 353
SWIDTH 500 0
DWIDTH 5 0
BBX 5 10 0 -2
BITMAP 
00
50
20
00
30
60
10
60
00
00
ENDCHAR
STARTCHAR U+0162
ENCODING 354
SWIDTH 500 0
DWIDTH 5 0
BBX 5 10 0 -2
BITMAP 
00
00
70
20
20
20
20
20
40
00
ENDCHAR
STARTCHAR U+0163
ENCODING 355
SWIDTH 500 0
DWIDTH 5 0
BBX 5 10 0 -2
BITMAP 
00
00
40
40
E0
40
50
20
40
00
ENDCHAR
STARTCHAR U+0164
ENCODING 356
SWIDTH 500 0
DWIDTH 5 0
BBX 5 10 0 -2
BITMAP 
00
50
20
70
20
20
20
20
00
00
ENDCHAR
STARTCHAR U+0165
ENCODING 357
SWIDTH 500 0
DWIDTH 5 0
BBX 5 10 0 -2
BITMAP 
00
A0
40
40
E0
40
50
20
00
00
ENDCHAR
STARTCHAR U+0166
ENCODING 358
SWIDTH 500 0
DWIDTH 5 0
BBX 5 10 0 -2
BITMAP 
00
00
70
20
70
20
20
20
00
00
ENDCHAR
STARTCHAR U+0167
ENCODING 359
SWIDTH 500 0
DWIDTH 5 0
BBX 5 10 0 -2
BITMAP 
00
40
E0
40
E0
40
50
20
00
00
ENDCHAR
STARTCHAR U+0168
ENCODING 360
SWIDTH 500 0
DWIDTH 5 0
BBX 5 10 0 -2
BITMAP 
00
50
A0
00
90
90
90
60
00
00
ENDCHAR
STARTCHAR U+0169
ENCODING 361
SWIDTH 500 0
DWIDTH 5 0
BBX 5 10 0 -2
BITMAP 
00
50
A0
00
90
90
90
70
00
00
ENDCHAR
STARTCHAR U+016A
ENCODING 362
SWIDTH 500 0
DWIDTH 5 0
BBX 5 10 0 -2
BITMAP 
00
F0
00
90
90
90
90
60
00
00
ENDCHAR
STARTCHAR U+016B
ENCODING 363
SWIDTH 500 0
DWIDTH 5 0
BBX 5 10 0 -2
BITMAP 
00
00
F0
00
90
90
90
70
00
00
ENDCHAR
STARTCHAR U+016C
ENCODING 364
SWIDTH 500 0
DWIDTH 5 0
BBX 5 10 0 -2
BITMAP 
00
90
60
00
90
90
90
60
00
00
ENDCHAR
STARTCHAR U+016D
ENCODING 365
SWIDTH 500 0
DWIDTH 5 0
BBX 5 10 0 -2
BITMAP 
00
90
60
00
90
90
90
70
00
00
ENDCHAR
STARTCHAR U+016E
ENCODING 366
SWIDTH 500 0
DWIDTH 5 0
BBX 5 10 0 -2
BITMAP 
00
20
50
20
90
90
90
60
00
00
ENDCHAR
STARTCHAR U+016F
ENCODING 367
SWIDTH 500 0
DWIDTH 5 0
BBX 5 10 0 -2
BITMAP 
00
20
50
20
90
90
90
70
00
00
ENDCHAR
STARTCHAR U+0170
ENCODING 368
SWIDTH 500 0
DWIDTH 5 0
BBX 5 10 0 -2
BITMAP 
00
48
90
00
48
48
48
30
00
00
ENDCHAR
STARTCHAR U+0171
ENCODING 369
SWIDTH 500 0
DWIDTH 5 0
BBX 5 10 0 -2
BITMAP 
00
48
90
00
48
48
48
38
00
00
ENDCHAR
STARTCHAR U+0172
ENCODING 370
SWIDTH 500 0
DWIDTH 5 0
BBX 5 10 0 -2
BITMAP 
00
00
90
90
90
90
90
60
20
00
ENDCHAR
STARTCHAR U+0173
ENCODING 371
SWIDTH 500 0
DWIDTH 5 0
BBX 5 10 0 -2
BITMAP 
00
00
00
00
90
90
90
70
20
00
ENDCHAR
STARTCHAR U+0174
ENCODING 372
SWIDTH 500 0
DWIDTH 5 0
BBX 5 10 0 -2
BITMAP 
00
60
00
90
90
F0
F0
90
00
00
ENDCHAR
STARTCHAR U+0175
ENCODING 373
SWIDTH 500 0
DWIDTH 5 0
BBX 5 10 0 -2
BITMAP 
00
20
50
00
88
A8
A8
50
00
00
ENDCHAR
STARTCHAR U+0176
ENCODING 374
SWIDTH 500 0
DWIDTH 5 0
BBX 5 10 0 -2
BITMAP 
00
20
50
00
50
50
20
20
00
00
ENDCHAR
STARTCHAR U+0177
ENCODING 375
SWIDTH 500 0
DWIDTH 5 0
BBX 5 10 0 -2
BITMAP 
00
60
90
00
90
90
70
90
60
00
ENDCHAR
STARTCHAR U+0178
ENCODING 376
SWIDTH 500 0
DWIDTH 5 0
BBX 5 10 0 -2
BITMAP 
00
50
00
88
50
20
20
20
00
00
ENDCHAR
STARTCHAR U+0179
ENCODING 377
SWIDTH 500 0
DWIDTH 5 0
BBX 5 10 0 -2
BITMAP 
00
20
40
F0
20
40
80
F0
00
00
ENDCHAR
STARTCHAR U+017A
ENCODING 378
SWIDTH 500 0
DWIDTH 5 0
BBX 5 10 0 -2
BITMAP 
00
20
40
00
F0
20
40
F0
00
00
ENDCHAR
STARTCHAR U+017B
ENCODING 379
SWIDTH 500 0
DWIDTH 5 0
BBX 5 10 0 -2
BITMAP 
00
60
00
F0
20
40
80
F0
00
00
ENDCHAR
STARTCHAR U+017C
ENCODING 380
SWIDTH 500 0
DWIDTH 5 0
BBX 5 10 0 -2
BITMAP 
00
00
60
00
F0
20
40
F0
00
00
ENDCHAR
STARTCHAR U+017D
ENCODING 381
SWIDTH 500 0
DWIDTH 5 0
BBX 5 10 0 -2
BITMAP 
00
90
60
F0
20
40
80
F0
00
00
ENDCHAR
STARTCHAR U+017E
ENCODING 382
SWIDTH 500 0
DWIDTH 5 0
BBX 5 10 0 -2
BITMAP 
00
90
60
00
F0
20
40
F0
00
00
ENDCHAR
STARTCHAR U+017F
ENCODING 383
SWIDTH 500 0
DWIDTH 5 0
BBX 5 10 0 -2
BITMAP 
00
00
20
50
40
C0
40
40
00
00
ENDCHAR
STARTCHAR U+0180
ENCODING 384
SWIDTH 500 0
DWIDTH 5 0
BBX 5 10 0 -2
BITMAP 
00
00
40
E0
40
60
50
60
00
00
ENDCHAR
STARTCHAR U+0181
ENCODING 385
SWIDTH 500 0
DWIDTH 5 0
BBX 5 10 0 -2
BITMAP 
00
00
E0
50
60
50
50
60
00
00
ENDCHAR
STARTCHAR U+0182
ENCODING 386
SWIDTH 500 0
DWIDTH 5 0
BBX 5 10 0 -2
BITMAP 
00
00
E0
80
E0
90
90
E0
00
00
ENDCHAR
STARTCHAR U+0183
ENCODING 387
SWIDTH 500 0
DWIDTH 5 0
BBX 5 10 0 -2
BITMAP 
00
00
60
40
60
50
50
60
00
00
ENDCHAR
STARTCHAR U+0184
ENCODING 388
SWIDTH 500 0
DWIDTH 5 0
BBX 5 10 0 -2
BITMAP 
00
00
40
C0
F0
48
48
70
00
00
ENDCHAR
STARTCHAR U+0185
ENCODING 389
SWIDTH 500 0
DWIDTH 5 0
BBX 5 10 0 -2
BITMAP 
00
00
40
C0
60
50
50
60
00
00
ENDCHAR
STARTCHAR U+0186
ENCODING 390
SWIDTH 500 0
DWIDTH 5 0
BBX 5 10 0 -2
BITMAP 
00
00
60
90
10
10
90
60
00
00
ENDCHAR
STARTCHAR U+0187
ENCODING 391
SWIDTH 500 0
DWIDTH 5 0
BBX 5 10 0 -2
BITMAP 
00
00
68
90
80
80
90
60
00
00
ENDCHAR
STARTCHAR U+0188
ENCODING 392
SWIDTH 500 0
DWIDTH 5 0
BBX 5 10 0 -2
BITMAP 
00
00
00
10
60
80
80
60
00
00
ENDCHAR
STARTCHAR U+0189
ENCODING 393
SWIDTH 500 0
DWIDTH 5 0
BBX 5 10 0 -2
BITMAP 
00
00
E0
50
D0
50
50
E0
00
00
ENDCHAR
STARTCHAR U+018A
ENCODING 394
SWIDTH 500 0
DWIDTH 5 0
BBX 5 10 0 -2
BITMAP 
00
00
E0
50
50
50
50
60
00
00
ENDCHAR
STARTCHAR U+018B
ENCODING 395
SWIDTH 500 0
DWIDTH 5 0
BBX 5 10 0 -2
BITMAP 
00
00
70
10
70
90
90
70
00
00
ENDCHAR
STARTCHAR U+018C
ENCODING 396
SWIDTH 500 0
DWIDTH 5 0
BBX 5 10 0 -2
BITMAP 
00
00
30
10
30
50
50
30
00
00
ENDCHAR
STARTCHAR U+018D
ENCODING 397
SWIDTH 500 0
DWIDTH 5 0
BBX 5 10 0 -2
BITMAP 
00
00
00
00
60
90
60
10
60
00
ENDCHAR
STARTCHAR U+018E
ENCODING 398
SWIDTH 500 0
DWIDTH 5 0
BBX 5 10 0 -2
BITMAP 
00
00
F0
10
70
10
10
F0
00
00
ENDCHAR
STARTCHAR U+018F
ENCODING 399
SWIDTH 500 0
DWIDTH 5 0
BBX 5 10 0 -2
BITMAP 
00
00
60
90
10
F0
90
60
00
00
ENDCHAR
STARTCHAR U+0190
ENCODING 400
SWIDTH 500 0
DWIDTH 5 0
BBX 5 10 0 -2
BITMAP 
00
00
60
90
40
80
90
60
00
00
ENDCHAR
STARTCHAR U+0191
ENCODING 401
SWIDTH 500 0
DWIDTH 5 0
BBX 5 10 0 -2
BITMAP 
00
00
70
40
60
40
40
40
80
00
ENDCHAR
STARTCHAR U+0192
ENCODING 402
SWIDTH 500 0
DWIDTH 5 0
BBX 5 10 0 -2
BITMAP 
00
00
10
28
20
70
20
A0
40
00
ENDCHAR
STARTCHAR U+0193
ENCODING 403
SWIDTH 500 0
DWIDTH 5 0
BBX 5 10 0 -2
BITMAP 
00
00
70
90
80
B0
90
70
00
00
ENDCHAR
STARTCHAR U+0194
ENCODING 404
SWIDTH 500 0
DWIDTH 5 0
BBX 5 10 0 -2
BITMAP 
00
00
00
90
90
60
90
60
00
00
ENDCHAR
STARTCHAR U+0195
ENCODING 405
SWIDTH 500 0
DWIDTH 5 0
BBX 5 10 0 -2
BITMAP 
00
00
80
80
C8
A8
A8
90
00
00
ENDCHAR
STARTCHAR U+0196
ENCODING 406
SWIDTH 500 0
DWIDTH 5 0
BBX 5 10 0 -2
BITMAP 
00
00
60
20
20
20
20
10
00
00
ENDCHAR
STARTCHAR U+0197
ENCODING 407
SWIDTH 500 0
DWIDTH 5 0
BBX 5 10 0 -2
BITMAP 
00
00
70
20
70
20
20
70
00
00
ENDCHAR
STARTCHAR U+0198
ENCODING 408
SWIDTH 500 0
DWIDTH 5 0
BBX 5 10 0 -2
BITMAP 
00
00
A0
D0
80
C0
A0
90
00
00
ENDCHAR
STARTCHAR U+0199
ENCODING 409
SWIDTH 500 0
DWIDTH 5 0
BBX 5 10 0 -2
BITMAP 
00
00
60
80
A0
C0
A0
90
00
00
ENDCHAR
STARTCHAR U+019A
ENCODING 410
SWIDTH 500 0
DWIDTH 5 0
BBX 5 10 0 -2
BITMAP 
00
00
60
20
70
20
20
70
00
00
ENDCHAR
STARTCHAR U+019B
ENCODING 411
SWIDTH 500 0
DWIDTH 5 0
BBX 5 10 0 -2
BITMAP 
00
00
40
30
60
20
50
50
00
00
ENDCHAR
STARTCHAR U+019C
ENCODING 412
SWIDTH 500 0
DWIDTH 5 0
BBX 5 10 0 -2
BITMAP 
00
00
90
90
90
90
F0
50
00
00
ENDCHAR
STARTCHAR U+019D
ENCODING 413
SWIDTH 500 0
DWIDTH 5 0
BBX 5 10 0 -2
BITMAP 
00
00
48
68
68
58
58
48
80
00
ENDCHAR
STARTCHAR U+019E
ENCODING 414
SWIDTH 500 0
DWIDTH 5 0
BBX 5 10 0 -2
BITMAP 
00
00
00
00
E0
90
90
90
10
00
ENDCHAR
STARTCHAR U+019F
ENCODING 415
SWIDTH 500 0
DWIDTH 5 0
BBX 5 10 0 -2
BITMAP 
00
00
60
90
F0
90
90
60
00
00
ENDCHAR
STARTCHAR U+01A0
ENCODING 416
SWIDTH 500 0
DWIDTH 5 0
BBX 5 10 0 -2
BITMAP 
00
00
68
90
90
90
90
60
00
00
ENDCHAR
STARTCHAR U+01A1
ENCODING 417
SWIDTH 500 0
DWIDTH 5 0
BBX 5 10 0 -2
BITMAP 
00
00
00
00
68
90
90
60
00
00
ENDCHAR
STARTCHAR U+01A2
ENCODING 418
SWIDTH 500 0
DWIDTH 5 0
BBX 5 10 0 -2
BITMAP 
00
00
70
A8
A8
A8
A8
40
00
00
ENDCHAR
STARTCHAR U+01A3
ENCODING 419
SWIDTH 500 0
DWIDTH 5 0
BBX 5 10 0 -2
BITMAP 
00
00
00
00
70
A8
A8
48
00
00
ENDCHAR
STARTCHAR U+01A4
ENCODING 420
SWIDTH 500 0
DWIDTH 5 0
BBX 5 10 0 -2
BITMAP 
00
00
E0
50
50
60
40
40
00
00
ENDCHAR
STARTCHAR U+01A5
ENCODING 421
SWIDTH 500 0
DWIDTH 5 0
BBX 5 10 0 -2
BITMAP 
00
00
60
80
E0
90
90
E0
80
00
ENDCHAR
STARTCHAR U+01A6
ENCODING 422
SWIDTH 500 0
DWIDTH 5 0
BBX 5 10 0 -2
BITMAP 
00
00
80
E0
90
E0
C0
A0
10
00
ENDCHAR
STARTCHAR U+01A7
ENCODING 423
SWIDTH 500 0
DWIDTH 5 0
BBX 5 10 0 -2
BITMAP 
00
00
60
90
20
40
90
60
00
00
ENDCHAR
STARTCHAR U+01A8
ENCODING 424
SWIDTH 500 0
DWIDTH 5 0
BBX 5 10 0 -2
BITMAP 
00
00
00
00
E0
30
C0
70
00
00
ENDCHAR
STARTCHAR U+01A9
ENCODING 425
SWIDTH 500 0
DWIDTH 5 0
BBX 5 10 0 -2
BITMAP 
00
00
F0
80
40
40
80
F0
00
00
ENDCHAR
STARTCHAR U+01AA
ENCODING 426
SWIDTH 500 0
DWIDTH 5 0
BBX 5 10 0 -2
BITMAP 
00
00
40
A0
70
20
20
20
10
00
ENDCHAR
STARTCHAR U+01AB
ENCODING 427
SWIDTH 500 0
DWIDTH 5 0
BBX 5 10 0 -2
BITMAP 
00
00
40
40
E0
40
70
10
20
00
ENDCHAR
STARTCHAR U+01AC
ENCODING 428
SWIDTH 500 0
DWIDTH 5 0
BBX 5 10 0 -2
BITMAP 
00
00
70
A0
A0
20
20
20
00
00
ENDCHAR
STARTCHAR U+01AD
ENCODING 429
SWIDTH 500 0
DWIDTH 5 0
BBX 5 10 0 -2
BITMAP 
00
00
30
40
E0
40
40
30
00
00
ENDCHAR
STARTCHAR U+01AE
ENCODING 430
SWIDTH 500 0
DWIDTH 5 0
BBX 5 10 0 -2
BITMAP 
00
00
E0
40
40
40
40
40
30
00
ENDCHAR
STARTCHAR U+01AF
ENCODING 431
SWIDTH 500 0
DWIDTH 5 0
BBX 5 10 0 -2
BITMAP 
00
00
A8
B0
A0
A0
A0
40
00
00
ENDCHAR
STARTCHAR U+01B0
ENCODING 432
SWIDTH 500 0
DWIDTH 5 0
BBX 5 10 0 -2
BITMAP 
00
00
00
00
A8
B0
A0
60
00
00
ENDCHAR
STARTCHAR U+01B1
ENCODING 433
SWIDTH 500 0
DWIDTH 5 0
BBX 5 10 0 -2
BITMAP 
00
00
50
88
88
88
88
70
00
00
ENDCHAR
STARTCHAR U+01B2
ENCODING 434
SWIDTH 500 0
DWIDTH 5 0
BBX 5 10 0 -2
BITMAP 
00
00
A0
90
90
90
90
60
00
00
ENDCHAR
STARTCHAR U+01B3
ENCODING 435
SWIDTH 500 0
DWIDTH 5 0
BBX 5 10 0 -2
BITMAP 
00
00
90
50
50
20
20
20
00
00
ENDCHAR
STARTCHAR U+01B4
ENCODING 436
SWIDTH 500 0
DWIDTH 5 0
BBX 5 10 0 -2
BITMAP 
00
00
00
00
90
A0
A0
40
80
00
ENDCHAR
STARTCHAR U+01B5
ENCODING 437
SWIDTH 500 0
DWIDTH 5 0
BBX 5 10 0 -2
BITMAP 
00
00
F0
10
F0
40
80
F0
00
00
ENDCHAR
STARTCHAR U+01B6
ENCODING 438
SWIDTH 500 0
DWIDTH 5 0
BBX 5 10 0 -2
BITMAP 
00
00
00
00
F0
F0
40
F0
00
00
ENDCHAR
STARTCHAR U+01B7
ENCODING 439
SWIDTH 500 0
DWIDTH 5 0
BBX 5 10 0 -2
BITMAP 
00
00
F0
20
60
10
10
E0
00
00
ENDCHAR
STARTCHAR U+01B8
ENCODING 440
SWIDTH 500 0
DWIDTH 5 0
BBX 5 10 0 -2
BITMAP 
00
00
F0
40
60
80
80
70
00
00
ENDCHAR
STARTCHAR U+01B9
ENCODING 441
SWIDTH 500 0
DWIDTH 5 0
BBX 5 10 0 -2
BITMAP 
00
00
00
00
F0
40
60
80
70
00
ENDCHAR
STARTCHAR U+01BA
ENCODING 442
SWIDTH 500 0
DWIDTH 5 0
BBX 5 10 0 -2
BITMAP 
00
00
00
00
F0
20
60
30
F8
00
ENDCHAR
STARTCHAR U+01BB
ENCODING 443
SWIDTH 500 0
DWIDTH 5 0
BBX 5 10 0 -2
BITMAP 
00
00
60
90
10
F0
40
F0
00
00
ENDCHAR
STARTCHAR U+01BC
ENCODING 444
SWIDTH 500 0
DWIDTH 5 0
BBX 5 10 0 -2
BITMAP 
00
00
F0
80
E0
90
10
E0
00
00
ENDCHAR
STARTCHAR U+01BD
ENCODING 445
SWIDTH 500 0
DWIDTH 5 0
BBX 5 10 0 -2
BITMAP 
00
00
00
00
70
60
10
60
00
00
ENDCHAR
STARTCHAR U+01BE
ENCODING 446
SWIDTH 500 0
DWIDTH 5 0
BBX 5 10 0 -2
BITMAP 
00
00
00
20
70
20
10
60
00
00
ENDCHAR
STARTCHAR U+01BF
ENCODING 447
SWIDTH 500 0
DWIDTH 5 0
BBX 5 10 0 -2
BITMAP 
00
00
00
00
E0
90
A0
C0
80
00
ENDCHAR
STARTCHAR U+01C0
ENCODING 448
SWIDTH 500 0
DWIDTH 5 0
BBX 5 10 0 -2
BITMAP 
00
00
00
20
20
20
20
20
00
00
ENDCHAR
STARTCHAR U+01C1
ENCODING 449
SWIDTH 500 0
DWIDTH 5 0
BBX 5 10 0 -2
BITMAP 
00
00
00
50
50
50
50
50
00
00
ENDCHAR
STARTCHAR U+01C2
ENCODING 450
SWIDTH 500 0
DWIDTH 5 0
BBX 5 10 0 -2
BITMAP 
00
00
00
20
70
20
70
20
00
00
ENDCHAR
STARTCHAR U+01C3
ENCODING 451
SWIDTH 500 0
DWIDTH 5 0
BBX 5 10 0 -2
BITMAP 
00
00
00
20
20
20
00
20
00
00
ENDCHAR
STARTCHAR U+01C4
ENCODING 452
SWIDTH 500 0
DWIDTH 5 0
BBX 5 10 0 -2
BITMAP 
00
00
18
D8
A8
A8
B0
D8
00
00
ENDCHAR
STARTCHAR U+01C5
ENCODING 453
SWIDTH 500 0
DWIDTH 5 0
BBX 5 10 0 -2
BITMAP 
00
00
D8
A0
B8
A8
B0
D8
00
00
ENDCHAR
STARTCHAR U+01C6
ENCODING 454
SWIDTH 500 0
DWIDTH 5 0
BBX 5 10 0 -2
BITMAP 
00
00
38
20
78
A8
B0
78
00
00
ENDCHAR
STARTCHAR U+01C7
ENCODING 455
SWIDTH 500 0
DWIDTH 5 0
BBX 5 10 0 -2
BITMAP 
00
00
88
88
88
88
A8
D0
00
00
ENDCHAR
STARTCHAR U+01C8
ENCODING 456
SWIDTH 500 0
DWIDTH 5 0
BBX 5 10 0 -2
BITMAP 
00
00
88
80
88
88
88
E8
10
00
ENDCHAR
STARTCHAR U+01C9
ENCODING 457
SWIDTH 500 0
DWIDTH 5 0
BBX 5 10 0 -2
BITMAP 
00
00
C8
40
48
48
48
E8
10
00
ENDCHAR
STARTCHAR U+01CA
ENCODING 458
SWIDTH 500 0
DWIDTH 5 0
BBX 5 10 0 -2
BITMAP 
00
00
C8
A8
A8
A8
A8
B0
00
00
ENDCHAR
STARTCHAR U+01CB
ENCODING 459
SWIDTH 500 0
DWIDTH 5 0
BBX 5 10 0 -2
BITMAP 
00
00
C8
A0
A8
A8
A8
A8
10
00
ENDCHAR
STARTCHAR U+01CC
ENCODING 460
SWIDTH 500 0
DWIDTH 5 0
BBX 5 10 0 -2
BITMAP 
00
00
08
00
C8
A8
A8
A8
10
00
ENDCHAR
STARTCHAR U+01CD
ENCODING 461
SWIDTH 500 0
DWIDTH 5 0
BBX 5 10 0 -2
BITMAP 
00
00
60
90
90
F0
90
90
00
00
ENDCHAR
STARTCHAR U+01CE
ENCODING 462
SWIDTH 500 0
DWIDTH 5 0
BBX 5 10 0 -2
BITMAP 
00
00
50
20
70
90
B0
50
00
00
ENDCHAR
STARTCHAR U+01CF
ENCODING 463
SWIDTH 500 0
DWIDTH 5 0
BBX 5 10 0 -2
BITMAP 
00
00
70
20
20
20
20
70
00
00
ENDCHAR
STARTCHAR U+01D0
ENCODING 464
SWIDTH 500 0
DWIDTH 5 0
BBX 5 10 0 -2
BITMAP 
00
00
50
20
60
20
20
70
00
00
ENDCHAR
STARTCHAR U+01D1
ENCODING 465
SWIDTH 500 0
DWIDTH 5 0
BBX 5 10 0 -2
BITMAP 
00
90
60
60
90
90
90
60
00
00
ENDCHAR
STARTCHAR U+01D2
ENCODING 466
SWIDTH 500 0
DWIDTH 5 0
BBX 5 10 0 -2
BITMAP 
00
90
60
00
60
90
90
60
00
00
ENDCHAR
STARTCHAR U+01D3
ENCODING 467
SWIDTH 500 0
DWIDTH 5 0
BBX 5 10 0 -2
BITMAP 
00
00
90
90
90
90
90
60
00
00
ENDCHAR
STARTCHAR U+01D4
ENCODING 468
SWIDTH 500 0
DWIDTH 5 0
BBX 5 10 0 -2
BITMAP 
00
00
50
20
90
90
90
70
00
00
ENDCHAR
STARTCHAR U+01D5
ENCODING 469
SWIDTH 500 0
DWIDTH 5 0
BBX 5 10 0 -2
BITMAP 
00
00
90
90
90
90
90
60
00
00
ENDCHAR
STARTCHAR U+01D6
ENCODING 470
SWIDTH 500 0
DWIDTH 5 0
BBX 5 10 0 -2
BITMAP 
00
00
70
50
00
90
90
70
00
00
ENDCHAR
STARTCHAR U+01D7
ENCODING 471
SWIDTH 500 0
DWIDTH 5 0
BBX 5 10 0 -2
BITMAP 
00
00
90
90
90
90
90
60
00
00
ENDCHAR
STARTCHAR U+01D8
ENCODING 472
SWIDTH 500 0
DWIDTH 5 0
BBX 5 10 0 -2
BITMAP 
00
00
10
70
00
90
90
70
00
00
ENDCHAR
STARTCHAR U+01D9
ENCODING 473
SWIDTH 500 0
DWIDTH 5 0
BBX 5 10 0 -2
BITMAP 
00
00
90
90
90
90
90
60
00
00
ENDCHAR
STARTCHAR U+01DA
ENCODING 474
SWIDTH 500 0
DWIDTH 5 0
BBX 5 10 0 -2
BITMAP 
00
00
50
70
00
90
90
70
00
00
ENDCHAR
STARTCHAR U+01DB
ENCODING 475
SWIDTH 500 0
DWIDTH 5 0
BBX 5 10 0 -2
BITMAP 
00
00
90
90
90
90
90
60
00
00
ENDCHAR
STARTCHAR U+01DC
ENCODING 476
SWIDTH 500 0
DWIDTH 5 0
BBX 5 10 0 -2
BITMAP 
00
00
40
70
00
90
90
70
00
00
ENDCHAR
STARTCHAR U+01DD
ENCODING 477
SWIDTH 500 0
DWIDTH 5 0
BBX 5 10 0 -2
BITMAP 
00
00
00
00
60
30
D0
60
00
00
ENDCHAR
STARTCHAR U+01DE
ENCODING 478
SWIDTH 500 0
DWIDTH 5 0
BBX 5 10 0 -2
BITMAP 
00
00
60
90
90
F0
90
90
00
00
ENDCHAR
STARTCHAR U+01DF
ENCODING 479
SWIDTH 500 0
DWIDTH 5 0
BBX 5 10 0 -2
BITMAP 
00
00
70
50
70
90
B0
50
00
00
ENDCHAR
STARTCHAR U+01E0
ENCODING 480
SWIDTH 500 0
DWIDTH 5 0
BBX 5 10 0 -2
BITMAP 
00
00
60
90
90
F0
90
90
00
00
ENDCHAR
STARTCHAR U+01E1
ENCODING 481
SWIDTH 500 0
DWIDTH 5 0
BBX 5 10 0 -2
BITMAP 
00
00
70
20
70
90
B0
50
00
00
ENDCHAR
STARTCHAR U+01E2
ENCODING 482
SWIDTH 500 0
DWIDTH 5 0
BBX 5 10 0 -2
BITMAP 
00
00
F0
70
A0
F0
A0
B0
00
00
ENDCHAR
STARTCHAR U+01E3
ENCODING 483
SWIDTH 500 0
DWIDTH 5 0
BBX 5 10 0 -2
BITMAP 
00
00
F0
00
70
B0
A0
70
00
00
ENDCHAR
STARTCHAR U+01E4
ENCODING 484
SWIDTH 500 0
DWIDTH 5 0
BBX 5 10 0 -2
BITMAP 
00
00
60
90
80
B0
B8
70
00
00
ENDCHAR
STARTCHAR U+01E5
ENCODING 485
SWIDTH 500 0
DWIDTH 5 0
BBX 5 10 0 -2
BITMAP 
00
00
00
00
70
90
60
B8
70
00
ENDCHAR
STARTCHAR U+01E6
ENCODING 486
SWIDTH 500 0
DWIDTH 5 0
BBX 5 10 0 -2
BITMAP 
00
90
60
70
80
B0
90
70
00
00
ENDCHAR
STARTCHAR U+01E7
ENCODING 487
SWIDTH 500 0
DWIDTH 5 0
BBX 5 10 0 -2
BITMAP 
00
90
60
00
60
90
70
10
60
00
ENDCHAR
STARTCHAR U+01E8
ENCODING 488
SWIDTH 500 0
DWIDTH 5 0
BBX 5 10 0 -2
BITMAP 
00
00
90
A0
C0
C0
A0
90
00
00
ENDCHAR
STARTCHAR U+01E9
ENCODING 489
SWIDTH 500 0
DWIDTH 5 0
BBX 5 10 0 -2
BITMAP 
00
00
D0
A0
80
A0
C0
A0
00
00
ENDCHAR
STARTCHAR U+01EA
ENCODING 490
SWIDTH 500 0
DWIDTH 5 0
BBX 5 10 0 -2
BITMAP 
00
00
60
90
90
90
90
60
40
00
ENDCHAR
STARTCHAR U+01EB
ENCODING 491
SWIDTH 500 0
DWIDTH 5 0
BBX 5 10 0 -2
BITMAP 
00
00
00
00
60
90
90
60
40
00
ENDCHAR
STARTCHAR U+01EC
ENCODING 492
SWIDTH 500 0
DWIDTH 5 0
BBX 5 10 0 -2
BITMAP 
00
00
60
90
90
90
90
60
40
00
ENDCHAR
STARTCHAR U+01ED
ENCODING 493
SWIDTH 500 0
DWIDTH 5 0
BBX 5 10 0 -2
BITMAP 
00
00
F0
00
60
90
90
60
40
00
ENDCHAR
STARTCHAR U+01EE
ENCODING 494
SWIDTH 500 0
DWIDTH 5 0
BBX 5 10 0 -2
BITMAP 
00
00
F0
20
60
10
10
E0
00
00
ENDCHAR
STARTCHAR U+01EF
ENCODING 495
SWIDTH 500 0
DWIDTH 5 0
BBX 5 10 0 -2
BITMAP 
00
00
50
20
F0
20
60
10
E0
00
ENDCHAR
STARTCHAR U+01F0
ENCODING 496
SWIDTH 500 0
DWIDTH 5 0
BBX 5 10 0 -2
BITMAP 
00
00
50
20
00
20
20
A0
40
00
ENDCHAR
STARTCHAR U+01F1
ENCODING 497
SWIDTH 500 0
DWIDTH 5 0
BBX 5 10 0 -2
BITMAP 
00
00
D8
A8
A8
B0
B0
D8
00
00
ENDCHAR
STARTCHAR U+01F2
ENCODING 498
SWIDTH 500 0
DWIDTH 5 0
BBX 5 10 0 -2
BITMAP 
00
00
C0
A0
B8
A8
B0
D8
00
00
ENDCHAR
STARTCHAR U+01F3
ENCODING 499
SWIDTH 500 0
DWIDTH 5 0
BBX 5 10 0 -2
BITMAP 
00
00
20
20
78
A8
B0
78
00
00
ENDCHAR
STARTCHAR U+01F4
ENCODING 500
SWIDTH 500 0
DWIDTH 5 0
BBX 5 10 0 -2
BITMAP 
00
00
60
90
80
B0
90
70
00
00
ENDCHAR
STARTCHAR U+01F5
ENCODING 501
SWIDTH 500 0
DWIDTH 5 0
BBX 5 10 0 -2
BITMAP 
00
00
10
20
70
90
60
80
70
00
ENDCHAR
STARTCHAR U+01F6
ENCODING 502
SWIDTH 500 0
DWIDTH 5 0
BBX 5 10 0 -2
BITMAP 
00
00
A0
A0
E8
A8
A8
90
00
00
ENDCHAR
STARTCHAR U+01F7
ENCODING 503
SWIDTH 500 0
DWIDTH 5 0
BBX 5 10 0 -2
BITMAP 
00
00
E0
90
A0
C0
80
80
00
00
ENDCHAR
STARTCHAR U+01F8
ENCODING 504
SWIDTH 500 0
DWIDTH 5 0
BBX 5 10 0 -2
BITMAP 
00
00
90
D0
D0
B0
B0
90
00
00
ENDCHAR
STARTCHAR U+01F9
ENCODING 505
SWIDTH 500 0
DWIDTH 5 0
BBX 5 10 0 -2
BITMAP 
00
00
40
20
E0
90
90
90
00
00
ENDCHAR
STARTCHAR U+01FA
ENCODING 506
SWIDTH 500 0
DWIDTH 5 0
BBX 5 10 0 -2
BITMAP 
00
10
60
90
60
90
F0
90
00
00
ENDCHAR
STARTCHAR U+01FB
ENCODING 507
SWIDTH 500 0
DWIDTH 5 0
BBX 5 10 0 -2
BITMAP 
00
10
60
90
60
70
90
70
00
00
ENDCHAR
STARTCHAR U+01FC
ENCODING 508
SWIDTH 500 0
DWIDTH 5 0
BBX 5 10 0 -2
BITMAP 
00
10
20
70
A0
F0
A0
B0
00
00
ENDCHAR
STARTCHAR U+01FD
ENCODING 509
SWIDTH 500 0
DWIDTH 5 0
BBX 5 10 0 -2
BITMAP 
00
10
20
00
F0
68
B0
78
00
00
ENDCHAR
STARTCHAR U+01FE
ENCODING 510
SWIDTH 500 0
DWIDTH 5 0
BBX 5 10 0 -2
BITMAP 
00
10
20
70
B0
D0
D0
E0
00
00
ENDCHAR
STARTCHAR U+01FF
ENCODING 511
SWIDTH 500 0
DWIDTH 5 0
BBX 5 10 0 -2
BITMAP 
00
10
20
00
70
B0
D0
E0
00
00
ENDCHAR
STARTCHAR U+0200
ENCODING 512
SWIDTH 500 0
DWIDTH 5 0
BBX 5 10 0 -2
BITMAP 
00
00
60
90
90
F0
90
90
00
00
ENDCHAR
STARTCHAR U+0201
ENCODING 513
SWIDTH 500 0
DWIDTH 5 0
BBX 5 10 0 -2
BITMAP 
00
00
A0
50
70
90
B0
50
00
00
ENDCHAR
STARTCHAR U+0202
ENCODING 514
SWIDTH 500 0
DWIDTH 5 0
BBX 5 10 0 -2
BITMAP 
00
00
60
90
90
F0
90
90
00
00
ENDCHAR
STARTCHAR U+0203
ENCODING 515
SWIDTH 500 0
DWIDTH 5 0
BBX 5 10 0 -2
BITMAP 
00
00
60
90
70
90
B0
50
00
00
ENDCHAR
STARTCHAR U+0204
ENCODING 516
SWIDTH 500 0
DWIDTH 5 0
BBX 5 10 0 -2
BITMAP 
00
00
F0
80
E0
80
80
F0
00
00
ENDCHAR
STARTCHAR U+0205
ENCODING 517
SWIDTH 500 0
DWIDTH 5 0
BBX 5 10 0 -2
BITMAP 
00
00
A0
50
60
B0
C0
60
00
00
ENDCHAR
STARTCHAR U+0206
ENCODING 518
SWIDTH 500 0
DWIDTH 5 0
BBX 5 10 0 -2
BITMAP 
00
00
F0
80
E0
80
80
F0
00
00
ENDCHAR
STARTCHAR U+0207
ENCODING 519
SWIDTH 500 0
DWIDTH 5 0
BBX 5 10 0 -2
BITMAP 
00
00
60
90
60
B0
C0
60
00
00
ENDCHAR
STARTCHAR U+0208
ENCODING 520
SWIDTH 500 0
DWIDTH 5 0
BBX 5 10 0 -2
BITMAP 
00
00
70
20
20
20
20
70
00
00
ENDCHAR
STARTCHAR U+0209
ENCODING 521
SWIDTH 500 0
DWIDTH 5 0
BBX 5 10 0 -2
BITMAP 
00
00
A0
50
60
20
20
70
00
00
ENDCHAR
STARTCHAR U+020A
ENCODING 522
SWIDTH 500 0
DWIDTH 5 0
BBX 5 10 0 -2
BITMAP 
00
00
70
20
20
20
20
70
00
00
ENDCHAR
STARTCHAR U+020B
ENCODING 523
SWIDTH 500 0
DWIDTH 5 0
BBX 5 10 0 -2
BITMAP 
00
00
60
90
60
20
20
70
00
00
ENDCHAR
STARTCHAR U+020C
ENCODING 524
SWIDTH 500 0
DWIDTH 5 0
BBX 5 10 0 -2
BITMAP 
00
00
60
90
90
90
90
60
00
00
ENDCHAR
STARTCHAR U+020D
ENCODING 525
SWIDTH 500 0
DWIDTH 5 0
BBX 5 10 0 -2
BITMAP 
00
00
A0
50
60
90
90
60
00
00
ENDCHAR
STARTCHAR U+020E
ENCODING 526
SWIDTH 500 0
DWIDTH 5 0
BBX 5 10 0 -2
BITMAP 
00
00
60
90
90
90
90
60
00
00
ENDCHAR
STARTCHAR U+020F
ENCODING 527
SWIDTH 500 0
DWIDTH 5 0
BBX 5 10 0 -2
BITMAP 
00
00
60
90
60
90
90
60
00
00
ENDCHAR
STARTCHAR U+0210
ENCODING 528
SWIDTH 500 0
DWIDTH 5 0
BBX 5 10 0 -2
BITMAP 
00
00
E0
90
90
E0
A0
90
00
00
ENDCHAR
STARTCHAR U+0211
ENCODING 529
SWIDTH 500 0
DWIDTH 5 0
BBX 5 10 0 -2
BITMAP 
00
00
A0
50
E0
90
80
80
00
00
ENDCHAR
STARTCHAR U+0212
ENCODING 530
SWIDTH 500 0
DWIDTH 5 0
BBX 5 10 0 -2
BITMAP 
00
00
E0
90
90
E0
A0
90
00
00
ENDCHAR
STARTCHAR U+0213
ENCODING 531
SWIDTH 500 0
DWIDTH 5 0
BBX 5 10 0 -2
BITMAP 
00
00
60
90
E0
90
80
80
00
00
ENDCHAR
STARTCHAR U+0214
ENCODING 532
SWIDTH 500 0
DWIDTH 5 0
BBX 5 10 0 -2
BITMAP 
00
00
90
90
90
90
90
60
00
00
ENDCHAR
STARTCHAR U+0215
ENCODING 533
SWIDTH 500 0
DWIDTH 5 0
BBX 5 10 0 -2
BITMAP 
00
00
A0
50
90
90
90
70
00
00
ENDCHAR
STARTCHAR U+0216
ENCODING 534
SWIDTH 500 0
DWIDTH 5 0
BBX 5 10 0 -2
BITMAP 
00
00
90
90
90
90
90
60
00
00
ENDCHAR
STARTCHAR U+0217
ENCODING 535
SWIDTH 500 0
DWIDTH 5 0
BBX 5 10 0 -2
BITMAP 
00
00
60
90
90
90
90
70
00
00
ENDCHAR
STARTCHAR U+0218
ENCODING 536
SWIDTH 500 0
DWIDTH 5 0
BBX 5 10 0 -2
BITMAP 
00
00
60
90
40
20
90
60
20
00
ENDCHAR
STARTCHAR U+0219
ENCODING 537
SWIDTH 500 0
DWIDTH 5 0
BBX 5 10 0 -2
BITMAP 
00
00
00
00
30
60
10
60
20
00
ENDCHAR
STARTCHAR U+021A
ENCODING 538
SWIDTH 500 0
DWIDTH 5 0
BBX 5 10 0 -2
BITMAP 
00
00
70
20
20
20
20
20
40
00
ENDCHAR
STARTCHAR U+021B
ENCODING 539
SWIDTH 500 0
DWIDTH 5 0
BBX 5 10 0 -2
BITMAP 
00
00
40
40
E0
40
50
20
40
00
ENDCHAR
STARTCHAR U+021C
ENCODING 540
SWIDTH 500 0
DWIDTH 5 0
BBX 5 10 0 -2
BITMAP 
00
00
60
90
10
20
10
E0
00
00
ENDCHAR
STARTCHAR U+021D
ENCODING 541
SWIDTH 500 0
DWIDTH 5 0
BBX 5 10 0 -2
BITMAP 
00
00
00
00
60
B0
50
20
C0
00
ENDCHAR
STARTCHAR U+021E
ENCODING 542
SWIDTH 500 0
DWIDTH 5 0
BBX 5 10 0 -2
BITMAP 
00
00
90
90
F0
90
90
90
00
00
ENDCHAR
STARTCHAR U+021F
ENCODING 543
SWIDTH 500 0
DWIDTH 5 0
BBX 5 10 0 -2
BITMAP 
00
00
50
A0
80
E0
90
90
00
00
ENDCHAR
STARTCHAR U+0250
ENCODING 592
SWIDTH 500 0
DWIDTH 5 0
BBX 5 10 0 -2
BITMAP 
00
00
00
00
A0
D0
90
E0
00
00
ENDCHAR
STARTCHAR U+0251
ENCODING 593
SWIDTH 500 0
DWIDTH 5 0
BBX 5 10 0 -2
BITMAP 
00
00
00
00
70
90
90
70
00
00
ENDCHAR
STARTCHAR U+0252
ENCODING 594
SWIDTH 500 0
DWIDTH 5 0
BBX 5 10 0 -2
BITMAP 
00
00
00
00
E0
90
90
E0
00
00
ENDCHAR
STARTCHAR U+0253
ENCODING 595
SWIDTH 500 0
DWIDTH 5 0
BBX 5 10 0 -2
BITMAP 
00
00
60
80
E0
90
90
E0
00
00
ENDCHAR
STARTCHAR U+0254
ENCODING 596
SWIDTH 500 0
DWIDTH 5 0
BBX 5 10 0 -2
BITMAP 
00
00
00
00
60
10
10
60
00
00
ENDCHAR
STARTCHAR U+0255
ENCODING 597
SWIDTH 500 0
DWIDTH 5 0
BBX 5 10 0 -2
BITMAP 
00
00
00
00
60
80
B0
60
80
00
ENDCHAR
STARTCHAR U+0256
ENCODING 598
SWIDTH 500 0
DWIDTH 5 0
BBX 5 10 0 -2
BITMAP 
00
00
10
10
70
90
90
70
18
00
ENDCHAR
STARTCHAR U+0257
ENCODING 599
SWIDTH 500 0
DWIDTH 5 0
BBX 5 10 0 -2
BITMAP 
00
00
18
10
70
90
90
70
00
00
ENDCHAR
STARTCHAR U+0258
ENCODING 600
SWIDTH 500 0
DWIDTH 5 0
BBX 5 10 0 -2
BITMAP 
00
00
00
00
60
D0
30
60
00
00
ENDCHAR
STARTCHAR U+0259
ENCODING 601
SWIDTH 500 0
DWIDTH 5 0
BBX 5 10 0 -2
BITMAP 
00
00
00
00
60
30
D0
60
00
00
ENDCHAR
STARTCHAR U+025A
ENCODING 602
SWIDTH 500 0
DWIDTH 5 0
BBX 5 10 0 -2
BITMAP 
00
00
00
00
60
38
D0
60
00
00
ENDCHAR
STARTCHAR U+025B
ENCODING 603
SWIDTH 500 0
DWIDTH 5 0
BBX 5 10 0 -2
BITMAP 
00
00
00
00
30
20
40
30
00
00
ENDCHAR
STARTCHAR U+025C
ENCODING 604
SWIDTH 500 0
DWIDTH 5 0
BBX 5 10 0 -2
BITMAP 
00
00
00
00
60
20
10
60
00
00
ENDCHAR
STARTCHAR U+025D
ENCODING 605
SWIDTH 500 0
DWIDTH 5 0
BBX 5 10 0 -2
BITMAP 
00
00
00
00
F0
40
20
C0
00
00
ENDCHAR
STARTCHAR U+025E
ENCODING 606
SWIDTH 500 0
DWIDTH 5 0
BBX 5 10 0 -2
BITMAP 
00
00
00
00
60
A0
90
60
00
00
ENDCHAR
STARTCHAR U+025F
ENCODING 607
SWIDTH 500 0
DWIDTH 5 0
BBX 5 10 0 -2
BITMAP 
00
00
00
20
20
70
20
A0
40
00
ENDCHAR
STARTCHAR U+0260
ENCODING 608
SWIDTH 500 0
DWIDTH 5 0
BBX 5 10 0 -2
BITMAP 
00
00
00
08
70
90
70
10
60
00
ENDCHAR
STARTCHAR U+0261
ENCODING 609
SWIDTH 500 0
DWIDTH 5 0
BBX 5 10 0 -2
BITMAP 
00
00
00
00
70
90
70
10
60
00
ENDCHAR
STARTCHAR U+0262
ENCODING 610
SWIDTH 500 0
DWIDTH 5 0
BBX 5 10 0 -2
BITMAP 
00
00
00
00
70
80
90
70
00
00
ENDCHAR
STARTCHAR U+0263
ENCODING 611
SWIDTH 500 0
DWIDTH 5 0
BBX 5 10 0 -2
BITMAP 
00
00
00
00
50
50
20
50
20
00
ENDCHAR
STARTCHAR U+0264
ENCODING 612
SWIDTH 500 0
DWIDTH 5 0
BBX 5 10 0 -2
BITMAP 
00
00
00
00
50
20
50
20
00
00
ENDCHAR
STARTCHAR U+0265
ENCODING 613
SWIDTH 500 0
DWIDTH 5 0
BBX 5 10 0 -2
BITMAP 
00
00
00
00
90
90
90
70
10
00
ENDCHAR
STARTCHAR U+0266
ENCODING 614
SWIDTH 500 0
DWIDTH 5 0
BBX 5 10 0 -2
BITMAP 
00
00
60
80
E0
90
90
90
00
00
ENDCHAR
STARTCHAR U+0267
ENCODING 615
SWIDTH 500 0
DWIDTH 5 0
BBX 5 10 0 -2
BITMAP 
00
00
60
80
E0
90
90
90
20
00
ENDCHAR
STARTCHAR U+0268
ENCODING 616
SWIDTH 500 0
DWIDTH 5 0
BBX 5 10 0 -2
BITMAP 
00
00
20
00
20
70
20
70
00
00
ENDCHAR
STARTCHAR U+0269
ENCODING 617
SWIDTH 500 0
DWIDTH 5 0
BBX 5 10 0 -2
BITMAP 
00
00
00
00
40
40
40
20
00
00
ENDCHAR
STARTCHAR U+026A
ENCODING 618
SWIDTH 500 0
DWIDTH 5 0
BBX 5 10 0 -2
BITMAP 
00
00
00
00
E0
40
40
E0
00
00
ENDCHAR
STARTCHAR U+026B
ENCODING 619
SWIDTH 500 0
DWIDTH 5 0
BBX 5 10 0 -2
BITMAP 
00
00
60
20
68
B0
20
70
00
00
ENDCHAR
STARTCHAR U+026C
ENCODING 620
SWIDTH 500 0
DWIDTH 5 0
BBX 5 10 0 -2
BITMAP 
00
00
60
20
60
70
20
70
00
00
ENDCHAR
STARTCHAR U+026D
ENCODING 621
SWIDTH 500 0
DWIDTH 5 0
BBX 5 10 0 -2
BITMAP 
00
00
60
20
20
20
20
20
10
00
ENDCHAR
STARTCHAR U+026E
ENCODING 622
SWIDTH 500 0
DWIDTH 5 0
BBX 5 10 0 -2
BITMAP 
00
00
80
80
E0
90
90
A0
60
00
ENDCHAR
STARTCHAR U+026F
ENCODING 623
SWIDTH 500 0
DWIDTH 5 0
BBX 5 10 0 -2
BITMAP 
00
00
00
00
90
90
F0
50
00
00
ENDCHAR
STARTCHAR U+0270
ENCODING 624
SWIDTH 500 0
DWIDTH 5 0
BBX 5 10 0 -2
BITMAP 
00
00
00
00
90
90
F0
50
10
00
ENDCHAR
STARTCHAR U+0271
ENCODING 625
SWIDTH 500 0
DWIDTH 5 0
BBX 5 10 0 -2
BITMAP 
00
00
00
00
A0
F0
90
90
20
00
ENDCHAR
STARTCHAR U+0272
ENCODING 626
SWIDTH 500 0
DWIDTH 5 0
BBX 5 10 0 -2
BITMAP 
00
00
00
00
60
50
50
50
80
00
ENDCHAR
STARTCHAR U+0273
ENCODING 627
SWIDTH 500 0
DWIDTH 5 0
BBX 5 10 0 -2
BITMAP 
00
00
00
00
C0
A0
A0
A0
10
00
ENDCHAR
STARTCHAR U+0274
ENCODING 628
SWIDTH 500 0
DWIDTH 5 0
BBX 5 10 0 -2
BITMAP 
00
00
00
00
90
D0
B0
90
00
00
ENDCHAR
STARTCHAR U+0275
ENCODING 629
SWIDTH 500 0
DWIDTH 5 0
BBX 5 10 0 -2
BITMAP 
00
00
00
60
90
F0
90
60
00
00
ENDCHAR
STARTCHAR U+0276
ENCODING 630
SWIDTH 500 0
DWIDTH 5 0
BBX 5 10 0 -2
BITMAP 
00
00
00
00
70
B0
A0
70
00
00
ENDCHAR
STARTCHAR U+0277
ENCODING 631
SWIDTH 500 0
DWIDTH 5 0
BBX 5 10 0 -2
BITMAP 
00
00
00
00
60
90
F0
F0
00
00
ENDCHAR
STARTCHAR U+0278
ENCODING 632
SWIDTH 500 0
DWIDTH 5 0
BBX 5 10 0 -2
BITMAP 
00
00
00
20
70
A8
70
20
00
00
ENDCHAR
STARTCHAR U+0279
ENCODING 633
SWIDTH 500 0
DWIDTH 5 0
BBX 5 10 0 -2
BITMAP 
00
00
00
00
10
10
90
70
00
00
ENDCHAR
STARTCHAR U+027A
ENCODING 634
SWIDTH 500 0
DWIDTH 5 0
BBX 5 10 0 -2
BITMAP 
00
00
00
10
10
10
90
70
00
00
ENDCHAR
STARTCHAR U+027B
ENCODING 635
SWIDTH 500 0
DWIDTH 5 0
BBX 5 10 0 -2
BITMAP 
00
00
00
00
20
A0
60
30
00
00
ENDCHAR
STARTCHAR U+027C
ENCODING 636
SWIDTH 500 0
DWIDTH 5 0
BBX 5 10 0 -2
BITMAP 
00
00
00
E0
90
80
80
80
80
00
ENDCHAR
STARTCHAR U+027D
ENCODING 637
SWIDTH 500 0
DWIDTH 5 0
BBX 5 10 0 -2
BITMAP 
00
00
00
E0
90
80
80
80
40
00
ENDCHAR
STARTCHAR U+027E
ENCODING 638
SWIDTH 500 0
DWIDTH 5 0
BBX 5 10 0 -2
BITMAP 
00
00
00
00
60
90
80
80
00
00
ENDCHAR
STARTCHAR U+027F
ENCODING 639
SWIDTH 500 0
DWIDTH 5 0
BBX 5 10 0 -2
BITMAP 
00
00
00
00
60
90
10
10
00
00
ENDCHAR
STARTCHAR U+0280
ENCODING 640
SWIDTH 500 0
DWIDTH 5 0
BBX 5 10 0 -2
BITMAP 
00
00
00
00
E0
90
E0
90
00
00
ENDCHAR
STARTCHAR U+0281
ENCODING 641
SWIDTH 500 0
DWIDTH 5 0
BBX 5 10 0 -2
BITMAP 
00
00
00
00
90
E0
90
E0
00
00
ENDCHAR
STARTCHAR U+0282
ENCODING 642
SWIDTH 500 0
DWIDTH 5 0
BBX 5 10 0 -2
BITMAP 
00
00
00
00
70
C0
30
E0
80
00
ENDCHAR
STARTCHAR U+0283
ENCODING 643
SWIDTH 500 0
DWIDTH 5 0
BBX 5 10 0 -2
BITMAP 
00
00
10
20
20
20
20
20
40
00
ENDCHAR
STARTCHAR U+0284
ENCODING 644
SWIDTH 500 0
DWIDTH 5 0
BBX 5 10 0 -2
BITMAP 
00
00
10
20
20
20
70
20
40
00
ENDCHAR
STARTCHAR U+0285
ENCODING 645
SWIDTH 500 0
DWIDTH 5 0
BBX 5 10 0 -2
BITMAP 
00
00
00
00
40
20
20
10
00
00
ENDCHAR
STARTCHAR U+0286
ENCODING 646
SWIDTH 500 0
DWIDTH 5 0
BBX 5 10 0 -2
BITMAP 
00
00
10
20
20
20
70
A0
40
00
ENDCHAR
STARTCHAR U+0287
ENCODING 647
SWIDTH 500 0
DWIDTH 5 0
BBX 5 10 0 -2
BITMAP 
00
00
00
C0
20
20
70
20
20
00
ENDCHAR
STARTCHAR U+0288
ENCODING 648
SWIDTH 500 0
DWIDTH 5 0
BBX 5 10 0 -2
BITMAP 
00
00
40
40
E0
40
40
40
30
00
ENDCHAR
STARTCHAR U+0289
ENCODING 649
SWIDTH 500 0
DWIDTH 5 0
BBX 5 10 0 -2
BITMAP 
00
00
00
00
90
F0
90
70
00
00
ENDCHAR
STARTCHAR U+028A
ENCODING 650
SWIDTH 500 0
DWIDTH 5 0
BBX 5 10 0 -2
BITMAP 
00
00
00
00
90
90
90
60
00
00
ENDCHAR
STARTCHAR U+028B
ENCODING 651
SWIDTH 500 0
DWIDTH 5 0
BBX 5 10 0 -2
BITMAP 
00
00
00
00
A0
90
90
60
00
00
ENDCHAR
STARTCHAR U+028C
ENCODING 652
SWIDTH 500 0
DWIDTH 5 0
BBX 5 10 0 -2
BITMAP 
00
00
00
00
20
50
50
50
00
00
ENDCHAR
STARTCHAR U+028D
ENCODING 653
SWIDTH 500 0
DWIDTH 5 0
BBX 5 10 0 -2
BITMAP 
00
00
00
00
F0
F0
90
90
00
00
ENDCHAR
STARTCHAR U+028E
ENCODING 654
SWIDTH 500 0
DWIDTH 5 0
BBX 5 10 0 -2
BITMAP 
00
00
00
20
40
A0
90
90
00
00
ENDCHAR
STARTCHAR U+028F
ENCODING 655
SWIDTH 500 0
DWIDTH 5 0
BBX 5 10 0 -2
BITMAP 
00
00
00
00
A0
40
40
40
00
00
ENDCHAR
STARTCHAR U+0290
ENCODING 656
SWIDTH 500 0
DWIDTH 5 0
BBX 5 10 0 -2
BITMAP 
00
00
00
00
F0
20
40
F0
10
00
ENDCHAR
STARTCHAR U+0291
ENCODING 657
SWIDTH 500 0
DWIDTH 5 0
BBX 5 10 0 -2
BITMAP 
00
00
00
00
F0
20
50
F0
40
00
ENDCHAR
STARTCHAR U+0292
ENCODING 658
SWIDTH 500 0
DWIDTH 5 0
BBX 5 10 0 -2
BITMAP 
00
00
00
00
F0
20
60
10
E0
00
ENDCHAR
STARTCHAR U+0293
ENCODING 659
SWIDTH 500 0
DWIDTH 5 0
BBX 5 10 0 -2
BITMAP 
00
00
00
00
F0
20
60
50
78
00
ENDCHAR
STARTCHAR U+0294
ENCODING 660
SWIDTH 500 0
DWIDTH 5 0
BBX 5 10 0 -2
BITMAP 
00
00
00
60
10
30
20
20
00
00
ENDCHAR
STARTCHAR U+0295
ENCODING 661
SWIDTH 500 0
DWIDTH 5 0
BBX 5 10 0 -2
BITMAP 
00
00
00
30
40
60
20
20
00
00
ENDCHAR
STARTCHAR U+0296
ENCODING 662
SWIDTH 500 0
DWIDTH 5 0
BBX 5 10 0 -2
BITMAP 
00
00
00
20
20
30
10
60
00
00
ENDCHAR
STARTCHAR U+0297
ENCODING 663
SWIDTH 500 0
DWIDTH 5 0
BBX 5 10 0 -2
BITMAP 
00
00
00
20
50
40
40
50
20
00
ENDCHAR
STARTCHAR U+0298
ENCODING 664
SWIDTH 500 0
DWIDTH 5 0
BBX 5 10 0 -2
BITMAP 
00
00
00
70
88
A8
88
70
00
00
ENDCHAR
STARTCHAR U+0299
ENCODING 665
SWIDTH 500 0
DWIDTH 5 0
BBX 5 10 0 -2
BITMAP 
00
00
00
00
E0
E0
90
E0
00
00
ENDCHAR
STARTCHAR U+029A
ENCODING 666
SWIDTH 500 0
DWIDTH 5 0
BBX 5 10 0 -2
BITMAP 
00
00
00
00
60
50
90
60
00
00
ENDCHAR
STARTCHAR U+029B
ENCODING 667
SWIDTH 500 0
DWIDTH 5 0
BBX 5 10 0 -2
BITMAP 
00
00
00
18
70
80
90
70
00
00
ENDCHAR
STARTCHAR U+029C
ENCODING 668
SWIDTH 500 0
DWIDTH 5 0
BBX 5 10 0 -2
BITMAP 
00
00
00
00
90
F0
90
90
00
00
ENDCHAR
STARTCHAR U+029D
ENCODING 669
SWIDTH 500 0
DWIDTH 5 0
BBX 5 10 0 -2
BITMAP 
00
00
20
00
20
20
70
A0
40
00
ENDCHAR
STARTCHAR U+029E
ENCODING 670
SWIDTH 500 0
DWIDTH 5 0
BBX 5 10 0 -2
BITMAP 
00
00
00
00
90
50
30
50
10
00
ENDCHAR
STARTCHAR U+029F
ENCODING 671
SWIDTH 500 0
DWIDTH 5 0
BBX 5 10 0 -2
BITMAP 
00
00
00
00
80
80
80
F0
00
00
ENDCHAR
STARTCHAR U+02A0
ENCODING 672
SWIDTH 500 0
DWIDTH 5 0
BBX 5 10 0 -2
BITMAP 
00
00
00
18
70
90
90
70
10
00
ENDCHAR
STARTCHAR U+02A1
ENCODING 673
SWIDTH 500 0
DWIDTH 5 0
BBX 5 10 0 -2
BITMAP 
00
00
00
60
10
20
70
20
00
00
ENDCHAR
STARTCHAR U+02A2
ENCODING 674
SWIDTH 500 0
DWIDTH 5 0
BBX 5 10 0 -2
BITMAP 
00
00
00
30
40
20
70
20
00
00
ENDCHAR
STARTCHAR U+02A3
ENCODING 675
SWIDTH 500 0
DWIDTH 5 0
BBX 5 10 0 -2
BITMAP 
00
00
20
20
78
A8
B0
78
00
00
ENDCHAR
STARTCHAR U+02A4
ENCODING 676
SWIDTH 500 0
DWIDTH 5 0
BBX 5 10 0 -2
BITMAP 
00
00
20
20
78
A8
B0
68
10
00
ENDCHAR
STARTCHAR U+02A5
ENCODING 677
SWIDTH 500 0
DWIDTH 5 0
BBX 5 10 0 -2
BITMAP 
00
00
20
20
78
A8
B8
78
00
00
ENDCHAR
STARTCHAR U+02A6
ENCODING 678
SWIDTH 500 0
DWIDTH 5 0
BBX 5 10 0 -2
BITMAP 
00
00
40
40
E8
50
48
30
00
00
ENDCHAR
STARTCHAR U+02A7
ENCODING 679
SWIDTH 500 0
DWIDTH 5 0
BBX 5 10 0 -2
BITMAP 
00
00
48
50
F0
50
50
30
20
00
ENDCHAR
STARTCHAR U+02A8
ENCODING 680
SWIDTH 500 0
DWIDTH 5 0
BBX 5 10 0 -2
BITMAP 
00
00
40
40
E8
50
50
38
10
00
ENDCHAR
STARTCHAR U+02B6
ENCODING 694
SWIDTH 500 0
DWIDTH 5 0
BBX 5 10 0 -2
BITMAP 
00
00
A0
C0
A0
C0
00
00
00
00
ENDCHAR
STARTCHAR U+02B8
ENCODING 696
SWIDTH 500 0
DWIDTH 5 0
BBX 5 10 0 -2
BITMAP 
00
00
40
80
00
00
00
00
00
00
ENDCHAR
STARTCHAR U+02B9
ENCODING 697
SWIDTH 500 0
DWIDTH 5 0
BBX 5 10 0 -2
BITMAP 
00
00
50
A0
00
00
00
00
00
00
ENDCHAR
STARTCHAR U+02BB
ENCODING 699
SWIDTH 500 0
DWIDTH 5 0
BBX 5 10 0 -2
BITMAP 
00
00
20
40
60
00
00
00
00
00
ENDCHAR
STARTCHAR U+02BC
ENCODING 700
SWIDTH 500 0
DWIDTH 5 0
BBX 5 10 0 -2
BITMAP 
00
00
60
20
40
00
00
00
00
00
ENDCHAR
STARTCHAR U+02BD
ENCODING 701
SWIDTH 500 0
DWIDTH 5 0
BBX 5 10 0 -2
BITMAP 
00
00
60
40
20
00
00
00
00
00
ENDCHAR
STARTCHAR U+02BE
ENCODING 702
SWIDTH 500 0
DWIDTH 5 0
BBX 5 10 0 -2
BITMAP 
00
00
40
20
40
00
00
00
00
00
ENDCHAR
STARTCHAR U+02BF
ENCODING 703
SWIDTH 500 0
DWIDTH 5 0
BBX 5 10 0 -2
BITMAP 
00
00
20
40
20
00
00
00
00
00
ENDCHAR
STARTCHAR U+02C6
ENCODING 710
SWIDTH 500 0
DWIDTH 5 0
BBX 5 10 0 -2
BITMAP 
00
20
50
00
00
00
00
00
00
00
ENDCHAR
STARTCHAR U+02C7
ENCODING 711
SWIDTH 500 0
DWIDTH 5 0
BBX 5 10 0 -2
BITMAP 
00
50
20
00
00
00
00
00
00
00
ENDCHAR
STARTCHAR U+02C8
ENCODING 712
SWIDTH 500 0
DWIDTH 5 0
BBX 5 10 0 -2
BITMAP 
00
00
20
20
00
00
00
00
00
00
ENDCHAR
STARTCHAR U+02C9
ENCODING 713
SWIDTH 500 0
DWIDTH 5 0
BBX 5 10 0 -2
BITMAP 
00
00
70
00
00
00
00
00
00
00
ENDCHAR
STARTCHAR U+02CA
ENCODING 714
SWIDTH 500 0
DWIDTH 5 0
BBX 5 10 0 -2
BITMAP 
00
00
00
00
20
20
40
00
00
00
ENDCHAR
STARTCHAR U+02CB
ENCODING 715
SWIDTH 500 0
DWIDTH 5 0
BBX 5 10 0 -2
BITMAP 
00
00
00
60
20
20
10
00
00
00
ENDCHAR
STARTCHAR U+02CC
ENCODING 716
SWIDTH 500 0
DWIDTH 5 0
BBX 5 10 0 -2
BITMAP 
00
00
00
00
00
00
00
20
20
00
ENDCHAR
STARTCHAR U+02D0
ENCODING 720
SWIDTH 500 0
DWIDTH 5 0
BBX 5 10 0 -2
BITMAP 
00
00
00
70
20
00
20
70
00
00
ENDCHAR
STARTCHAR U+02D1
ENCODING 721
SWIDTH 500 0
DWIDTH 5 0
BBX 5 10 0 -2
BITMAP 
00
00
00
30
30
20
00
00
00
00
ENDCHAR
STARTCHAR U+02D6
ENCODING 726
SWIDTH 500 0
DWIDTH 5 0
BBX 5 10 0 -2
BITMAP 
00
00
00
00
20
70
20
00
00
00
ENDCHAR
STARTCHAR U+02D8
ENCODING 728
SWIDTH 500 0
DWIDTH 5 0
BBX 5 10 0 -2
BITMAP 
00
88
70
00
00
00
00
00
00
00
ENDCHAR
STARTCHAR U+02D9
ENCODING 729
SWIDTH 500 0
DWIDTH 5 0
BBX 5 10 0 -2
BITMAP 
00
20
00
00
00
00
00
00
00
00
ENDCHAR
STARTCHAR U+02DA
ENCODING 730
SWIDTH 500 0
DWIDTH 5 0
BBX 5 10 0 -2
BITMAP 
00
20
50
20
00
00
00
00
00
00
ENDCHAR
STARTCHAR U+02DB
ENCODING 731
SWIDTH 500 0
DWIDTH 5 0
BBX 5 10 0 -2
BITMAP 
00
00
00
00
00
00
00
40
60
00
ENDCHAR
STARTCHAR U+02DC
ENCODING 732
SWIDTH 500 0
DWIDTH 5 0
BBX 5 10 0 -2
BITMAP 
00
00
50
A0
00
00
00
00
00
00
ENDCHAR
STARTCHAR U+02DD
ENCODING 733
SWIDTH 500 0
DWIDTH 5 0
BBX 5 10 0 -2
BITMAP 
00
48
90
00
00
00
00
00
00
00
ENDCHAR
STARTCHAR U+02DE
ENCODING 734
SWIDTH 500 0
DWIDTH 5 0
BBX 5 10 0 -2
BITMAP 
00
00
00
00
30
10
10
00
00
00
ENDCHAR
STARTCHAR U+02E5
ENCODING 741
SWIDTH 500 0
DWIDTH 5 0
BBX 5 10 0 -2
BITMAP 
E0
20
20
20
20
20
20
20
20
20
ENDCHAR
STARTCHAR U+02E6
ENCODING 742
SWIDTH 500 0
DWIDTH 5 0
BBX 5 10 0 -2
BITMAP 
20
20
E0
20
20
20
20
20
20
20
ENDCHAR
STARTCHAR U+02E7
ENCODING 743
SWIDTH 500 0
DWIDTH 5 0
BBX 5 10 0 -2
BITMAP 
20
20
20
20
20
E0
20
20
20
20
ENDCHAR
STARTCHAR U+02E8
ENCODING 744
SWIDTH 500 0
DWIDTH 5 0
BBX 5 10 0 -2
BITMAP 
20
20
20
20
20
20
20
E0
20
20
ENDCHAR
STARTCHAR U+02E9
ENCODING 745
SWIDTH 500 0
DWIDTH 5 0
BBX 5 10 0 -2
BITMAP 
20
20
20
20
20
20
20
20
20
E0
ENDCHAR
STARTCHAR U+0300
ENCODING 768
SWIDTH 500 0
DWIDTH 5 0
BBX 5 10 0 -2
BITMAP 
00
40
20
00
00
00
00
00
00
00
ENDCHAR
STARTCHAR U+0301
ENCODING 769
SWIDTH 500 0
DWIDTH 5 0
BBX 5 10 0 -2
BITMAP 
00
20
40
00
00
00
00
00
00
00
ENDCHAR
STARTCHAR U+0302
ENCODING 770
SWIDTH 500 0
DWIDTH 5 0
BBX 5 10 0 -2
BITMAP 
00
20
50
00
00
00
00
00
00
00
ENDCHAR
STARTCHAR U+0303
ENCODING 771
SWIDTH 500 0
DWIDTH 5 0
BBX 5 10 0 -2
BITMAP 
00
50
A0
00
00
00
00
00
00
00
ENDCHAR
STARTCHAR U+0304
ENCODING 772
SWIDTH 500 0
DWIDTH 5 0
BBX 5 10 0 -2
BITMAP 
00
F0
00
00
00
00
00
00
00
00
ENDCHAR
STARTCHAR U+0305
ENCODING 773
SWIDTH 500 0
DWIDTH 5 0
BBX 5 10 0 -2
BITMAP 
00
F8
00
00
00
00
00
00
00
00
ENDCHAR
STARTCHAR U+0306
ENCODING 774
SWIDTH 500 0
DWIDTH 5 0
BBX 5 10 0 -2
BITMAP 
00
90
60
00
00
00
00
00
00
00
ENDCHAR
STARTCHAR U+0307
ENCODING 775
SWIDTH 500 0
DWIDTH 5 0
BBX 5 10 0 -2
BITMAP 
00
20
00
00
00
00
00
00
00
00
ENDCHAR
STARTCHAR U+0308
ENCODING 776
SWIDTH 500 0
DWIDTH 5 0
BBX 5 10 0 -2
BITMAP 
00
50
00
00
00
00
00
00
00
00
ENDCHAR
STARTCHAR U+0309
ENCODING 777
SWIDTH 500 0
DWIDTH 5 0
BBX 5 10 0 -2
BITMAP 
00
60
20
00
00
00
00
00
00
00
ENDCHAR
STARTCHAR U+030A
ENCODING 778
SWIDTH 500 0
DWIDTH 5 0
BBX 5 10 0 -2
BITMAP 
00
60
90
60
00
00
00
00
00
00
ENDCHAR
STARTCHAR U+030B
ENCODING 779
SWIDTH 500 0
DWIDTH 5 0
BBX 5 10 0 -2
BITMAP 
00
48
90
00
00
00
00
00
00
00
ENDCHAR
STARTCHAR U+030C
ENCODING 780
SWIDTH 500 0
DWIDTH 5 0
BBX 5 10 0 -2
BITMAP 
00
50
20
00
00
00
00
00
00
00
ENDCHAR
STARTCHAR U+030D
ENCODING 781
SWIDTH 500 0
DWIDTH 5 0
BBX 5 10 0 -2
BITMAP 
00
20
20
00
00
00
00
00
00
00
ENDCHAR
STARTCHAR U+030E
ENCODING 782
SWIDTH 500 0
DWIDTH 5 0
BBX 5 10 0 -2
BITMAP 
00
50
50
00
00
00
00
00
00
00
ENDCHAR
STARTCHAR U+030F
ENCODING 783
SWIDTH 500 0
DWIDTH 5 0
BBX 5 10 0 -2
BITMAP 
00
90
48
00
00
00
00
00
00
00
ENDCHAR
STARTCHAR U+0310
ENCODING 784
SWIDTH 500 0
DWIDTH 5 0
BBX 5 10 0 -2
BITMAP 
00
A8
70
00
00
00
00
00
00
00
ENDCHAR
STARTCHAR U+0311
ENCODING 785
SWIDTH 500 0
DWIDTH 5 0
BBX 5 10 0 -2
BITMAP 
00
60
90
00
00
00
00
00
00
00
ENDCHAR
STARTCHAR U+0312
ENCODING 786
SWIDTH 500 0
DWIDTH 5 0
BBX 5 10 0 -2
BITMAP 
00
20
40
60
00
00
00
00
00
00
ENDCHAR
STARTCHAR U+0313
ENCODING 787
SWIDTH 500 0
DWIDTH 5 0
BBX 5 10 0 -2
BITMAP 
00
60
20
40
00
00
00
00
00
00
ENDCHAR
STARTCHAR U+0314
ENCODING 788
SWIDTH 500 0
DWIDTH 5 0
BBX 5 10 0 -2
BITMAP 
00
60
40
20
00
00
00
00
00
00
ENDCHAR
STARTCHAR U+0315
ENCODING 789
SWIDTH 500 0
DWIDTH 5 0
BBX 5 10 0 -2
BITMAP 
00
18
08
10
00
00
00
00
00
00
ENDCHAR
STARTCHAR U+0318
ENCODING 792
SWIDTH 500 0
DWIDTH 5 0
BBX 5 10 0 -2
BITMAP 
00
00
00
00
00
00
20
20
20
20
ENDCHAR
STARTCHAR U+0319
ENCODING 793
SWIDTH 500 0
DWIDTH 5 0
BBX 5 10 0 -2
BITMAP 
00
00
00
00
00
00
20
30
20
20
ENDCHAR
STARTCHAR U+031A
ENCODING 794
SWIDTH 500 0
DWIDTH 5 0
BBX 5 10 0 -2
BITMAP 
00
10
10
00
00
00
00
00
00
00
ENDCHAR
STARTCHAR U+031C
ENCODING 796
SWIDTH 500 0
DWIDTH 5 0
BBX 5 10 0 -2
BITMAP 
00
00
00
00
00
00
00
20
20
30
ENDCHAR
STARTCHAR U+031D
ENCODING 797
SWIDTH 500 0
DWIDTH 5 0
BBX 5 10 0 -2
BITMAP 
00
00
00
00
00
00
20
30
00
00
ENDCHAR
STARTCHAR U+031E
ENCODING 798
SWIDTH 500 0
DWIDTH 5 0
BBX 5 10 0 -2
BITMAP 
00
00
00
00
00
00
00
30
20
20
ENDCHAR
STARTCHAR U+031F
ENCODING 799
SWIDTH 500 0
DWIDTH 5 0
BBX 5 10 0 -2
BITMAP 
00
00
00
00
00
00
00
00
30
20
ENDCHAR
STARTCHAR U+0320
ENCODING 800
SWIDTH 500 0
DWIDTH 5 0
BBX 5 10 0 -2
BITMAP 
00
00
00
00
00
00
00
00
30
00
ENDCHAR
STARTCHAR U+0323
ENCODING 803
SWIDTH 500 0
DWIDTH 5 0
BBX 5 10 0 -2
BITMAP 
00
00
00
00
00
00
00
00
20
00
ENDCHAR
STARTCHAR U+0324
ENCODING 804
SWIDTH 500 0
DWIDTH 5 0
BBX 5 10 0 -2
BITMAP 
00
00
00
00
00
00
00
00
50
00
ENDCHAR
STARTCHAR U+0325
ENCODING 805
SWIDTH 500 0
DWIDTH 5 0
BBX 5 10 0 -2
BITMAP 
00
00
00
00
00
00
00
20
50
20
ENDCHAR
STARTCHAR U+0329
ENCODING 809
SWIDTH 500 0
DWIDTH 5 0
BBX 5 10 0 -2
BITMAP 
00
00
00
00
00
00
00
00
20
20
ENDCHAR
STARTCHAR U+032A
ENCODING 810
SWIDTH 500 0
DWIDTH 5 0
BBX 5 10 0 -2
BITMAP 
00
00
00
00
00
00
00
30
50
50
ENDCHAR
STARTCHAR U+032C
ENCODING 812
SWIDTH 500 0
DWIDTH 5 0
BBX 5 10 0 -2
BITMAP 
00
00
00
00
00
00
00
00
50
30
ENDCHAR
STARTCHAR U+032F
ENCODING 815
SWIDTH 500 0
DWIDTH 5 0
BBX 5 10 0 -2
BITMAP 
00
00
00
00
00
00
00
20
00
50
ENDCHAR
STARTCHAR U+0330
ENCODING 816
SWIDTH 500 0
DWIDTH 5 0
BBX 5 10 0 -2
BITMAP 
00
00
00
00
00
00
00
00
20
30
ENDCHAR
STARTCHAR U+0331
ENCODING 817
SWIDTH 500 0
DWIDTH 5 0
BBX 5 10 0 -2
BITMAP 
00
00
00
00
00
00
00
00
F0
00
ENDCHAR
STARTCHAR U+0332
ENCODING 818
SWIDTH 500 0
DWIDTH 5 0
BBX 5 10 0 -2
BITMAP 
00
00
00
00
00
00
00
00
F8
00
ENDCHAR
STARTCHAR U+0334
ENCODING 820
SWIDTH 500 0
DWIDTH 5 0
BBX 5 10 0 -2
BITMAP 
00
00
00
00
00
60
20
00
00
00
ENDCHAR
STARTCHAR U+0338
ENCODING 824
SWIDTH 500 0
DWIDTH 5 0
BBX 5 10 0 -2
BITMAP 
00
00
10
20
20
40
40
80
00
00
ENDCHAR
STARTCHAR U+0339
ENCODING 825
SWIDTH 500 0
DWIDTH 5 0
BBX 5 10 0 -2
BITMAP 
00
00
00
00
00
00
00
20
00
30
ENDCHAR
STARTCHAR U+033A
ENCODING 826
SWIDTH 500 0
DWIDTH 5 0
BBX 5 10 0 -2
BITMAP 
00
00
00
00
00
00
00
00
50
70
ENDCHAR
STARTCHAR U+033B
ENCODING 827
SWIDTH 500 0
DWIDTH 5 0
BBX 5 10 0 -2
BITMAP 
00
00
00
00
00
00
00
70
50
70
ENDCHAR
STARTCHAR U+033C
ENCODING 828
SWIDTH 500 0
DWIDTH 5 0
BBX 5 10 0 -2
BITMAP 
00
00
00
00
00
00
00
00
30
30
ENDCHAR
STARTCHAR U+033D
ENCODING 829
SWIDTH 500 0
DWIDTH 5 0
BBX 5 10 0 -2
BITMAP 
00
30
30
00
00
00
00
00
00
00
ENDCHAR
STARTCHAR U+0340
ENCODING 832
SWIDTH 500 0
DWIDTH 5 0
BBX 5 10 0 -2
BITMAP 
00
40
20
00
00
00
00
00
00
00
ENDCHAR
STARTCHAR U+0341
ENCODING 833
SWIDTH 500 0
DWIDTH 5 0
BBX 5 10 0 -2
BITMAP 
00
20
40
00
00
00
00
00
00
00
ENDCHAR
STARTCHAR U+0361
ENCODING 865
SWIDTH 500 0
DWIDTH 5 0
BBX 5 10 0 -2
BITMAP 
00
70
48
00
00
00
00
00
00
00
ENDCHAR
STARTCHAR U+0374
ENCODING 884
SWIDTH 500 0
DWIDTH 5 0
BBX 5 10 0 -2
BITMAP 
00
20
40
00
00
00
00
00
00
00
ENDCHAR
STARTCHAR U+0375
ENCODING 885
SWIDTH 500 0
DWIDTH 5 0
BBX 5 10 0 -2
BITMAP 
00
00
00
00
00
00
00
20
40
00
ENDCHAR
STARTCHAR U+037A
ENCODING 890
SWIDTH 500 0
DWIDTH 5 0
BBX 5 10 0 -2
BITMAP 
00
00
00
00
00
00
00
40
60
00
ENDCHAR
STARTCHAR U+037E
ENCODING 894
SWIDTH 500 0
DWIDTH 5 0
BBX 5 10 0 -2
BITMAP 
00
00
00
30
30
00
30
20
40
00
ENDCHAR
STARTCHAR U+0384
ENCODING 900
SWIDTH 500 0
DWIDTH 5 0
BBX 5 10 0 -2
BITMAP 
00
20
40
00
00
00
00
00
00
00
ENDCHAR
STARTCHAR U+0385
ENCODING 901
SWIDTH 500 0
DWIDTH 5 0
BBX 5 10 0 -2
BITMAP 
00
10
20
50
00
00
00
00
00
00
ENDCHAR
STARTCHAR U+0386
ENCODING 902
SWIDTH 500 0
DWIDTH 5 0
BBX 5 10 0 -2
BITMAP 
00
20
40
60
90
F0
90
90
00
00
ENDCHAR
STARTCHAR U+0387
ENCODING 903
SWIDTH 500 0
DWIDTH 5 0
BBX 5 10 0 -2
BITMAP 
00
00
00
00
20
00
00
00
00
00
ENDCHAR
STARTCHAR U+0388
ENCODING 904
SWIDTH 500 0
DWIDTH 5 0
BBX 5 10 0 -2
BITMAP 
00
20
40
F0
80
E0
80
F0
00
00
ENDCHAR
STARTCHAR U+0389
ENCODING 905
SWIDTH 500 0
DWIDTH 5 0
BBX 5 10 0 -2
BITMAP 
00
20
40
90
90
F0
90
90
00
00
ENDCHAR
STARTCHAR U+038A
ENCODING 906
SWIDTH 500 0
DWIDTH 5 0
BBX 5 10 0 -2
BITMAP 
00
10
20
70
20
20
20
70
00
00
ENDCHAR
STARTCHAR U+038C
ENCODING 908
SWIDTH 500 0
DWIDTH 5 0
BBX 5 10 0 -2
BITMAP 
00
20
40
60
90
90
90
60
00
00
ENDCHAR
STARTCHAR U+038E
ENCODING 910
SWIDTH 500 0
DWIDTH 5 0
BBX 5 10 0 -2
BITMAP 
00
10
20
88
50
20
20
20
00
00
ENDCHAR
STARTCHAR U+038F
ENCODING 911
SWIDTH 500 0
DWIDTH 5 0
BBX 5 10 0 -2
BITMAP 
00
10
20
70
88
88
50
D8
00
00
ENDCHAR
STARTCHAR U+0390
ENCODING 912
SWIDTH 500 0
DWIDTH 5 0
BBX 5 10 0 -2
BITMAP 
00
20
40
A0
40
40
50
20
00
00
ENDCHAR
STARTCHAR U+0391
ENCODING 913
SWIDTH 500 0
DWIDTH 5 0
BBX 5 10 0 -2
BITMAP 
00
00
60
90
90
F0
90
90
00
00
ENDCHAR
STARTCHAR U+0392
ENCODING 914
SWIDTH 500 0
DWIDTH 5 0
BBX 5 10 0 -2
BITMAP 
00
00
E0
90
E0
90
90
E0
00
00
ENDCHAR
STARTCHAR U+0393
ENCODING 915
SWIDTH 500 0
DWIDTH 5 0
BBX 5 10 0 -2
BITMAP 
00
00
F0
80
80
80
80
80
00
00
ENDCHAR
STARTCHAR U+0394
ENCODING 916
SWIDTH 500 0
DWIDTH 5 0
BBX 5 10 0 -2
BITMAP 
00
00
20
20
50
50
88
F8
00
00
ENDCHAR
STARTCHAR U+0395
ENCODING 917
SWIDTH 500 0
DWIDTH 5 0
BBX 5 10 0 -2
BITMAP 
00
00
F0
80
E0
80
80
F0
00
00
ENDCHAR
STARTCHAR U+0396
ENCODING 918
SWIDTH 500 0
DWIDTH 5 0
BBX 5 10 0 -2
BITMAP 
00
00
F0
10
20
40
80
F0
00
00
ENDCHAR
STARTCHAR U+0397
ENCODING 919
SWIDTH 500 0
DWIDTH 5 0
BBX 5 10 0 -2
BITMAP 
00
00
90
90
F0
90
90
90
00
00
ENDCHAR
STARTCHAR U+0398
ENCODING 920
SWIDTH 500 0
DWIDTH 5 0
BBX 5 10 0 -2
BITMAP 
00
00
60
90
F0
90
90
60
00
00
ENDCHAR
STARTCHAR U+0399
ENCODING 921
SWIDTH 500 0
DWIDTH 5 0
BBX 5 10 0 -2
BITMAP 
00
00
70
20
20
20
20
70
00
00
ENDCHAR
STARTCHAR U+039A
ENCODING 922
SWIDTH 500 0
DWIDTH 5 0
BBX 5 10 0 -2
BITMAP 
00
00
90
A0
C0
A0
A0
90
00
00
ENDCHAR
STARTCHAR U+039B
ENCODING 923
SWIDTH 500 0
DWIDTH 5 0
BBX 5 10 0 -2
BITMAP 
00
00
60
60
90
90
90
90
00
00
ENDCHAR
STARTCHAR U+039C
ENCODING 924
SWIDTH 500 0
DWIDTH 5 0
BBX 5 10 0 -2
BITMAP 
00
00
90
F0
F0
90
90
90
00
00
ENDCHAR
STARTCHAR U+039D
ENCODING 925
SWIDTH 500 0
DWIDTH 5 0
BBX 5 10 0 -2
BITMAP 
00
00
90
D0
F0
B0
B0
90
00
00
ENDCHAR
STARTCHAR U+039E
ENCODING 926
SWIDTH 500 0
DWIDTH 5 0
BBX 5 10 0 -2
BITMAP 
00
00
F0
00
60
00
00
F0
00
00
ENDCHAR
STARTCHAR U+039F
ENCODING 927
SWIDTH 500 0
DWIDTH 5 0
BBX 5 10 0 -2
BITMAP 
00
00
60
90
90
90
90
60
00
00
ENDCHAR
STARTCHAR U+03A0
ENCODING 928
SWIDTH 500 0
DWIDTH 5 0
BBX 5 10 0 -2
BITMAP 
00
00
F0
90
90
90
90
90
00
00
ENDCHAR
STARTCHAR U+03A1
ENCODING 929
SWIDTH 500 0
DWIDTH 5 0
BBX 5 10 0 -2
BITMAP 
00
00
E0
90
90
E0
80
80
00
00
ENDCHAR
STARTCHAR U+03A3
ENCODING 931
SWIDTH 500 0
DWIDTH 5 0
BBX 5 10 0 -2
BITMAP 
00
00
F0
80
40
40
80
F0
00
00
ENDCHAR
STARTCHAR U+03A4
ENCODING 932
SWIDTH 500 0
DWIDTH 5 0
BBX 5 10 0 -2
BITMAP 
00
00
70
20
20
20
20
20
00
00
ENDCHAR
STARTCHAR U+03A5
ENCODING 933
SWIDTH 500 0
DWIDTH 5 0
BBX 5 10 0 -2
BITMAP 
00
00
88
88
50
20
20
20
00
00
ENDCHAR
STARTCHAR U+03A6
ENCODING 934
SWIDTH 500 0
DWIDTH 5 0
BBX 5 10 0 -2
BITMAP 
00
00
20
70
A8
A8
70
20
00
00
ENDCHAR
STARTCHAR U+03A7
ENCODING 935
SWIDTH 500 0
DWIDTH 5 0
BBX 5 10 0 -2
BITMAP 
00
00
90
90
60
60
90
90
00
00
ENDCHAR
STARTCHAR U+03A8
ENCODING 936
SWIDTH 500 0
DWIDTH 5 0
BBX 5 10 0 -2
BITMAP 
00
00
A8
A8
70
20
20
20
00
00
ENDCHAR
STARTCHAR U+03A9
ENCODING 937
SWIDTH 500 0
DWIDTH 5 0
BBX 5 10 0 -2
BITMAP 
00
00
70
88
88
88
50
D8
00
00
ENDCHAR
STARTCHAR U+03AA
ENCODING 938
SWIDTH 500 0
DWIDTH 5 0
BBX 5 10 0 -2
BITMAP 
00
50
00
70
20
20
20
70
00
00
ENDCHAR
STARTCHAR U+03AB
ENCODING 939
SWIDTH 500 0
DWIDTH 5 0
BBX 5 10 0 -2
BITMAP 
00
50
00
50
50
20
20
20
00
00
ENDCHAR
STARTCHAR U+03AC
ENCODING 940
SWIDTH 500 0
DWIDTH 5 0
BBX 5 10 0 -2
BITMAP 
00
20
40
00
70
90
90
70
00
00
ENDCHAR
STARTCHAR U+03AD
ENCODING 941
SWIDTH 500 0
DWIDTH 5 0
BBX 5 10 0 -2
BITMAP 
00
20
40
00
70
E0
80
70
00
00
ENDCHAR
STARTCHAR U+03AE
ENCODING 942
SWIDTH 500 0
DWIDTH 5 0
BBX 5 10 0 -2
BITMAP 
00
20
40
00
A0
D0
90
90
10
00
ENDCHAR
STARTCHAR U+03AF
ENCODING 943
SWIDTH 500 0
DWIDTH 5 0
BBX 5 10 0 -2
BITMAP 
00
20
40
00
40
40
50
20
00
00
ENDCHAR
STARTCHAR U+03B0
ENCODING 944
SWIDTH 500 0
DWIDTH 5 0
BBX 5 10 0 -2
BITMAP 
00
20
D0
00
90
90
90
60
00
00
ENDCHAR
STARTCHAR U+03B1
ENCODING 945
SWIDTH 500 0
DWIDTH 5 0
BBX 5 10 0 -2
BITMAP 
00
00
00
00
70
90
90
70
00
00
ENDCHAR
STARTCHAR U+03B2
ENCODING 946
SWIDTH 500 0
DWIDTH 5 0
BBX 5 10 0 -2
BITMAP 
00
00
60
90
E0
90
90
E0
80
00
ENDCHAR
STARTCHAR U+03B3
ENCODING 947
SWIDTH 500 0
DWIDTH 5 0
BBX 5 10 0 -2
BITMAP 
00
00
00
00
50
50
50
20
20
00
ENDCHAR
STARTCHAR U+03B4
ENCODING 948
SWIDTH 500 0
DWIDTH 5 0
BBX 5 10 0 -2
BITMAP 
00
00
60
80
60
90
90
60
00
00
ENDCHAR
STARTCHAR U+03B5
ENCODING 949
SWIDTH 500 0
DWIDTH 5 0
BBX 5 10 0 -2
BITMAP 
00
00
00
00
70
E0
80
70
00
00
ENDCHAR
STARTCHAR U+03B6
ENCODING 950
SWIDTH 500 0
DWIDTH 5 0
BBX 5 10 0 -2
BITMAP 
00
00
00
F0
40
80
60
10
20
00
ENDCHAR
STARTCHAR U+03B7
ENCODING 951
SWIDTH 500 0
DWIDTH 5 0
BBX 5 10 0 -2
BITMAP 
00
00
00
00
A0
D0
90
90
10
00
ENDCHAR
STARTCHAR U+03B8
ENCODING 952
SWIDTH 500 0
DWIDTH 5 0
BBX 5 10 0 -2
BITMAP 
00
00
60
90
F0
90
90
60
00
00
ENDCHAR
STARTCHAR U+03B9
ENCODING 953
SWIDTH 500 0
DWIDTH 5 0
BBX 5 10 0 -2
BITMAP 
00
00
00
00
40
40
50
20
00
00
ENDCHAR
STARTCHAR U+03BA
ENCODING 954
SWIDTH 500 0
DWIDTH 5 0
BBX 5 10 0 -2
BITMAP 
00
00
00
00
90
E0
A0
90
00
00
ENDCHAR
STARTCHAR U+03BB
ENCODING 955
SWIDTH 500 0
DWIDTH 5 0
BBX 5 10 0 -2
BITMAP 
00
00
E0
10
70
90
90
90
00
00
ENDCHAR
STARTCHAR U+03BC
ENCODING 956
SWIDTH 500 0
DWIDTH 5 0
BBX 5 10 0 -2
BITMAP 
00
00
00
00
90
90
90
E0
80
00
ENDCHAR
STARTCHAR U+03BD
ENCODING 957
SWIDTH 500 0
DWIDTH 5 0
BBX 5 10 0 -2
BITMAP 
00
00
00
00
50
50
20
20
00
00
ENDCHAR
STARTCHAR U+03BE
ENCODING 958
SWIDTH 500 0
DWIDTH 5 0
BBX 5 10 0 -2
BITMAP 
00
00
F0
40
60
80
60
10
60
00
ENDCHAR
STARTCHAR U+03BF
ENCODING 959
SWIDTH 500 0
DWIDTH 5 0
BBX 5 10 0 -2
BITMAP 
00
00
00
00
60
90
90
60
00
00
ENDCHAR
STARTCHAR U+03C0
ENCODING 960
SWIDTH 500 0
DWIDTH 5 0
BBX 5 10 0 -2
BITMAP 
00
00
00
00
F8
50
50
50
00
00
ENDCHAR
STARTCHAR U+03C1
ENCODING 961
SWIDTH 500 0
DWIDTH 5 0
BBX 5 10 0 -2
BITMAP 
00
00
00
00
60
90
90
E0
80
00
ENDCHAR
STARTCHAR U+03C2
ENCODING 962
SWIDTH 500 0
DWIDTH 5 0
BBX 5 10 0 -2
BITMAP 
00
00
00
00
60
80
60
10
60
00
ENDCHAR
STARTCHAR U+03C3
ENCODING 963
SWIDTH 500 0
DWIDTH 5 0
BBX 5 10 0 -2
BITMAP 
00
00
00
00
70
90
90
60
00
00
ENDCHAR
STARTCHAR U+03C4
ENCODING 964
SWIDTH 500 0
DWIDTH 5 0
BBX 5 10 0 -2
BITMAP 
00
00
00
00
F0
40
50
20
00
00
ENDCHAR
STARTCHAR U+03C5
ENCODING 965
SWIDTH 500 0
DWIDTH 5 0
BBX 5 10 0 -2
BITMAP 
00
00
00
00
90
90
90
60
00
00
ENDCHAR
STARTCHAR U+03C6
ENCODING 966
SWIDTH 500 0
DWIDTH 5 0
BBX 5 10 0 -2
BITMAP 
00
00
00
00
B0
A8
A8
70
20
00
ENDCHAR
STARTCHAR U+03C7
ENCODING 967
SWIDTH 500 0
DWIDTH 5 0
BBX 5 10 0 -2
BITMAP 
00
00
00
00
50
50
20
50
50
00
ENDCHAR
STARTCHAR U+03C8
ENCODING 968
SWIDTH 500 0
DWIDTH 5 0
BBX 5 10 0 -2
BITMAP 
00
00
00
00
A8
A8
70
20
20
00
ENDCHAR
STARTCHAR U+03C9
ENCODING 969
SWIDTH 500 0
DWIDTH 5 0
BBX 5 10 0 -2
BITMAP 
00
00
00
00
88
A8
A8
50
00
00
ENDCHAR
STARTCHAR U+03CA
ENCODING 970
SWIDTH 500 0
DWIDTH 5 0
BBX 5 10 0 -2
BITMAP 
00
00
A0
00
40
40
50
20
00
00
ENDCHAR
STARTCHAR U+03CB
ENCODING 971
SWIDTH 500 0
DWIDTH 5 0
BBX 5 10 0 -2
BITMAP 
00
00
90
00
90
90
90
60
00
00
ENDCHAR
STARTCHAR U+03CC
ENCODING 972
SWIDTH 500 0
DWIDTH 5 0
BBX 5 10 0 -2
BITMAP 
00
20
40
00
60
90
90
60
00
00
ENDCHAR
STARTCHAR U+03CD
ENCODING 973
SWIDTH 500 0
DWIDTH 5 0
BBX 5 10 0 -2
BITMAP 
00
20
40
00
90
90
90
60
00
00
ENDCHAR
STARTCHAR U+03CE
ENCODING 974
SWIDTH 500 0
DWIDTH 5 0
BBX 5 10 0 -2
BITMAP 
00
10
20
00
88
A8
A8
50
00
00
ENDCHAR
STARTCHAR U+03D0
ENCODING 976
SWIDTH 500 0
DWIDTH 5 0
BBX 5 10 0 -2
BITMAP 
00
00
60
90
A0
D0
90
60
00
00
ENDCHAR
STARTCHAR U+03D1
ENCODING 977
SWIDTH 500 0
DWIDTH 5 0
BBX 5 10 0 -2
BITMAP 
00
00
60
90
78
10
90
60
00
00
ENDCHAR
STARTCHAR U+03D2
ENCODING 978
SWIDTH 500 0
DWIDTH 5 0
BBX 5 10 0 -2
BITMAP 
00
00
90
68
20
20
20
20
00
00
ENDCHAR
STARTCHAR U+03D3
ENCODING 979
SWIDTH 500 0
DWIDTH 5 0
BBX 5 10 0 -2
BITMAP 
00
00
D0
28
A0
A0
20
20
00
00
ENDCHAR
STARTCHAR U+03D4
ENCODING 980
SWIDTH 500 0
DWIDTH 5 0
BBX 5 10 0 -2
BITMAP 
00
90
00
90
68
20
20
20
00
00
ENDCHAR
STARTCHAR U+03D5
ENCODING 981
SWIDTH 500 0
DWIDTH 5 0
BBX 5 10 0 -2
BITMAP 
00
00
20
70
A8
A8
A8
70
20
00
ENDCHAR
STARTCHAR U+03D6
ENCODING 982
SWIDTH 500 0
DWIDTH 5 0
BBX 5 10 0 -2
BITMAP 
00
00
00
00
F8
88
A8
50
00
00
ENDCHAR
STARTCHAR U+03D7
ENCODING 983
SWIDTH 500 0
DWIDTH 5 0
BBX 5 10 0 -2
BITMAP 
00
00
40
20
90
60
60
90
30
00
ENDCHAR
STARTCHAR U+03DA
ENCODING 986
SWIDTH 500 0
DWIDTH 5 0
BBX 5 10 0 -2
BITMAP 
00
00
20
50
80
80
60
10
20
00
ENDCHAR
STARTCHAR U+03DB
ENCODING 987
SWIDTH 500 0
DWIDTH 5 0
BBX 5 10 0 -2
BITMAP 
00
00
00
00
70
C0
30
60
00
00
ENDCHAR
STARTCHAR U+03DC
ENCODING 988
SWIDTH 500 0
DWIDTH 5 0
BBX 5 10 0 -2
BITMAP 
00
00
F0
80
E0
80
80
80
00
00
ENDCHAR
STARTCHAR U+03DD
ENCODING 989
SWIDTH 500 0
DWIDTH 5 0
BBX 5 10 0 -2
BITMAP 
00
00
00
00
70
40
60
40
40
00
ENDCHAR
STARTCHAR U+03DE
ENCODING 990
SWIDTH 500 0
DWIDTH 5 0
BBX 5 10 0 -2
BITMAP 
00
00
80
90
B0
D0
90
10
00
00
ENDCHAR
STARTCHAR U+03DF
ENCODING 991
SWIDTH 500 0
DWIDTH 5 0
BBX 5 10 0 -2
BITMAP 
00
00
20
40
F0
10
20
40
00
00
ENDCHAR
STARTCHAR U+03E0
ENCODING 992
SWIDTH 500 0
DWIDTH 5 0
BBX 5 10 0 -2
BITMAP 
00
00
60
60
60
90
B0
B0
00
00
ENDCHAR
STARTCHAR U+03E1
ENCODING 993
SWIDTH 500 0
DWIDTH 5 0
BBX 5 10 0 -2
BITMAP 
00
00
C0
20
50
B0
50
10
10
00
ENDCHAR
STARTCHAR U+03E9
ENCODING 1001
SWIDTH 500 0
DWIDTH 5 0
BBX 5 10 0 -2
BITMAP 
00
00
00
00
60
90
60
80
70
00
ENDCHAR
STARTCHAR U+03F0
ENCODING 1008
SWIDTH 500 0
DWIDTH 5 0
BBX 5 10 0 -2
BITMAP 
00
00
00
00
90
50
60
90
00
00
ENDCHAR
STARTCHAR U+03F1
ENCODING 1009
SWIDTH 500 0
DWIDTH 5 0
BBX 5 10 0 -2
BITMAP 
00
00
00
00
60
90
E0
80
70
00
ENDCHAR
STARTCHAR U+03F2
ENCODING 1010
SWIDTH 500 0
DWIDTH 5 0
BBX 5 10 0 -2
BITMAP 
00
00
00
00
70
80
80
70
00
00
ENDCHAR
STARTCHAR U+03F3
ENCODING 1011
SWIDTH 500 0
DWIDTH 5 0
BBX 5 10 0 -2
BITMAP 
00
00
10
00
30
10
10
90
60
00
ENDCHAR
STARTCHAR U+03F4
ENCODING 1012
SWIDTH 500 0
DWIDTH 5 0
BBX 5 10 0 -2
BITMAP 
00
00
60
90
F0
90
90
60
00
00
ENDCHAR
STARTCHAR U+03F5
ENCODING 1013
SWIDTH 500 0
DWIDTH 5 0
BBX 5 10 0 -2
BITMAP 
00
00
00
00
70
E0
80
70
00
00
ENDCHAR
STARTCHAR U+0401
ENCODING 1025
SWIDTH 500 0
DWIDTH 5 0
BBX 5 10 0 -2
BITMAP 
00
00
F0
80
E0
80
80
F0
00
00
ENDCHAR
STARTCHAR U+0402
ENCODING 1026
SWIDTH 500 0
DWIDTH 5 0
BBX 5 10 0 -2
BITMAP 
00
00
E0
40
60
50
50
10
20
00
ENDCHAR
STARTCHAR U+0403
ENCODING 1027
SWIDTH 500 0
DWIDTH 5 0
BBX 5 10 0 -2
BITMAP 
00
00
F0
80
80
80
80
80
00
00
ENDCHAR
STARTCHAR U+0404
ENCODING 1028
SWIDTH 500 0
DWIDTH 5 0
BBX 5 10 0 -2
BITMAP 
00
00
60
90
C0
80
90
60
00
00
ENDCHAR
STARTCHAR U+0405
ENCODING 1029
SWIDTH 500 0
DWIDTH 5 0
BBX 5 10 0 -2
BITMAP 
00
00
60
90
40
20
90
60
00
00
ENDCHAR
STARTCHAR U+0406
ENCODING 1030
SWIDTH 500 0
DWIDTH 5 0
BBX 5 10 0 -2
BITMAP 
00
00
70
20
20
20
20
70
00
00
ENDCHAR
STARTCHAR U+0407
ENCODING 1031
SWIDTH 500 0
DWIDTH 5 0
BBX 5 10 0 -2
BITMAP 
00
00
70
20
20
20
20
70
00
00
ENDCHAR
STARTCHAR U+0408
ENCODING 1032
SWIDTH 500 0
DWIDTH 5 0
BBX 5 10 0 -2
BITMAP 
00
00
10
10
10
10
90
60
00
00
ENDCHAR
STARTCHAR U+0409
ENCODING 1033
SWIDTH 500 0
DWIDTH 5 0
BBX 5 10 0 -2
BITMAP 
00
00
60
A0
B0
A8
A8
B0
00
00
ENDCHAR
STARTCHAR U+040A
ENCODING 1034
SWIDTH 500 0
DWIDTH 5 0
BBX 5 10 0 -2
BITMAP 
00
00
A0
A0
F0
A8
A8
B0
00
00
ENDCHAR
STARTCHAR U+040B
ENCODING 1035
SWIDTH 500 0
DWIDTH 5 0
BBX 5 10 0 -2
BITMAP 
00
00
E0
40
60
50
50
50
00
00
ENDCHAR
STARTCHAR U+040C
ENCODING 1036
SWIDTH 500 0
DWIDTH 5 0
BBX 5 10 0 -2
BITMAP 
00
00
90
A0
C0
C0
A0
90
00
00
ENDCHAR
STARTCHAR U+040D
ENCODING 1037
SWIDTH 500 0
DWIDTH 5 0
BBX 5 10 0 -2
BITMAP 
00
00
00
00
00
00
00
00
00
00
ENDCHAR
STARTCHAR U+040E
ENCODING 1038
SWIDTH 500 0
DWIDTH 5 0
BBX 5 10 0 -2
BITMAP 
00
00
50
50
50
20
20
40
00
00
ENDCHAR
STARTCHAR U+040F
ENCODING 1039
SWIDTH 500 0
DWIDTH 5 0
BBX 5 10 0 -2
BITMAP 
00
00
50
50
50
50
50
70
20
00
ENDCHAR
STARTCHAR U+0410
ENCODING 1040
SWIDTH 500 0
DWIDTH 5 0
BBX 5 10 0 -2
BITMAP 
00
00
60
90
90
F0
90
90
00
00
ENDCHAR
STARTCHAR U+0411
ENCODING 1041
SWIDTH 500 0
DWIDTH 5 0
BBX 5 10 0 -2
BITMAP 
00
00
E0
80
E0
90
90
E0
00
00
ENDCHAR
STARTCHAR U+0412
ENCODING 1042
SWIDTH 500 0
DWIDTH 5 0
BBX 5 10 0 -2
BITMAP 
00
00
E0
90
E0
90
90
E0
00
00
ENDCHAR
STARTCHAR U+0413
ENCODING 1043
SWIDTH 500 0
DWIDTH 5 0
BBX 5 10 0 -2
BITMAP 
00
00
F0
90
80
80
80
80
00
00
ENDCHAR
STARTCHAR U+0414
ENCODING 1044
SWIDTH 500 0
DWIDTH 5 0
BBX 5 10 0 -2
BITMAP 
00
00
60
A0
A0
A0
A0
F0
90
00
ENDCHAR
STARTCHAR U+0415
ENCODING 1045
SWIDTH 500 0
DWIDTH 5 0
BBX 5 10 0 -2
BITMAP 
00
00
F0
80
E0
80
80
F0
00
00
ENDCHAR
STARTCHAR U+0416
ENCODING 1046
SWIDTH 500 0
DWIDTH 5 0
BBX 5 10 0 -2
BITMAP 
00
00
A8
A8
70
A8
A8
A8
00
00
ENDCHAR
STARTCHAR U+0417
ENCODING 1047
SWIDTH 500 0
DWIDTH 5 0
BBX 5 10 0 -2
BITMAP 
00
00
60
90
20
10
90
60
00
00
ENDCHAR
STARTCHAR U+0418
ENCODING 1048
SWIDTH 500 0
DWIDTH 5 0
BBX 5 10 0 -2
BITMAP 
00
00
90
90
B0
D0
90
90
00
00
ENDCHAR
STARTCHAR U+0419
ENCODING 1049
SWIDTH 500 0
DWIDTH 5 0
BBX 5 10 0 -2
BITMAP 
00
90
60
90
B0
D0
90
90
00
00
ENDCHAR
STARTCHAR U+041A
ENCODING 1050
SWIDTH 500 0
DWIDTH 5 0
BBX 5 10 0 -2
BITMAP 
00
00
90
A0
C0
A0
90
90
00
00
ENDCHAR
STARTCHAR U+041B
ENCODING 1051
SWIDTH 500 0
DWIDTH 5 0
BBX 5 10 0 -2
BITMAP 
00
00
30
50
50
50
50
90
00
00
ENDCHAR
STARTCHAR U+041C
ENCODING 1052
SWIDTH 500 0
DWIDTH 5 0
BBX 5 10 0 -2
BITMAP 
00
00
90
F0
F0
90
90
90
00
00
ENDCHAR
STARTCHAR U+041D
ENCODING 1053
SWIDTH 500 0
DWIDTH 5 0
BBX 5 10 0 -2
BITMAP 
00
00
90
90
F0
90
90
90
00
00
ENDCHAR
STARTCHAR U+041E
ENCODING 1054
SWIDTH 500 0
DWIDTH 5 0
BBX 5 10 0 -2
BITMAP 
00
00
60
90
90
90
90
60
00
00
ENDCHAR
STARTCHAR U+041F
ENCODING 1055
SWIDTH 500 0
DWIDTH 5 0
BBX 5 10 0 -2
BITMAP 
00
00
F0
90
90
90
90
90
00
00
ENDCHAR
STARTCHAR U+0420
ENCODING 1056
SWIDTH 500 0
DWIDTH 5 0
BBX 5 10 0 -2
BITMAP 
00
00
E0
90
90
E0
80
80
00
00
ENDCHAR
STARTCHAR U+0421
ENCODING 1057
SWIDTH 500 0
DWIDTH 5 0
BBX 5 10 0 -2
BITMAP 
00
00
60
90
80
80
90
60
00
00
ENDCHAR
STARTCHAR U+0422
ENCODING 1058
SWIDTH 500 0
DWIDTH 5 0
BBX 5 10 0 -2
BITMAP 
00
00
70
20
20
20
20
20
00
00
ENDCHAR
STARTCHAR U+0423
ENCODING 1059
SWIDTH 500 0
DWIDTH 5 0
BBX 5 10 0 -2
BITMAP 
00
00
90
90
90
70
10
E0
00
00
ENDCHAR
STARTCHAR U+0424
ENCODING 1060
SWIDTH 500 0
DWIDTH 5 0
BBX 5 10 0 -2
BITMAP 
00
00
20
70
A8
A8
70
20
00
00
ENDCHAR
STARTCHAR U+0425
ENCODING 1061
SWIDTH 500 0
DWIDTH 5 0
BBX 5 10 0 -2
BITMAP 
00
00
50
50
20
20
50
50
00
00
ENDCHAR
STARTCHAR U+0426
ENCODING 1062
SWIDTH 500 0
DWIDTH 5 0
BBX 5 10 0 -2
BITMAP 
00
00
A0
A0
A0
A0
A0
F0
10
00
ENDCHAR
STARTCHAR U+0427
ENCODING 1063
SWIDTH 500 0
DWIDTH 5 0
BBX 5 10 0 -2
BITMAP 
00
00
50
50
50
30
10
10
00
00
ENDCHAR
STARTCHAR U+0428
ENCODING 1064
SWIDTH 500 0
DWIDTH 5 0
BBX 5 10 0 -2
BITMAP 
00
00
A8
A8
A8
A8
A8
F8
00
00
ENDCHAR
STARTCHAR U+0429
ENCODING 1065
SWIDTH 500 0
DWIDTH 5 0
BBX 5 10 0 -2
BITMAP 
00
00
A8
A8
A8
A8
A8
F8
08
00
ENDCHAR
STARTCHAR U+042A
ENCODING 1066
SWIDTH 500 0
DWIDTH 5 0
BBX 5 10 0 -2
BITMAP 
00
00
E0
20
30
28
28
30
00
00
ENDCHAR
STARTCHAR U+042B
ENCODING 1067
SWIDTH 500 0
DWIDTH 5 0
BBX 5 10 0 -2
BITMAP 
00
00
88
88
C8
A8
A8
C8
00
00
ENDCHAR
STARTCHAR U+042C
ENCODING 1068
SWIDTH 500 0
DWIDTH 5 0
BBX 5 10 0 -2
BITMAP 
00
00
40
40
60
50
50
60
00
00
ENDCHAR
STARTCHAR U+042D
ENCODING 1069
SWIDTH 500 0
DWIDTH 5 0
BBX 5 10 0 -2
BITMAP 
00
00
E0
10
70
10
10
E0
00
00
ENDCHAR
STARTCHAR U+042E
ENCODING 1070
SWIDTH 500 0
DWIDTH 5 0
BBX 5 10 0 -2
BITMAP 
00
00
90
A8
E8
A8
A8
90
00
00
ENDCHAR
STARTCHAR U+042F
ENCODING 1071
SWIDTH 500 0
DWIDTH 5 0
BBX 5 10 0 -2
BITMAP 
00
00
70
90
90
70
90
90
00
00
ENDCHAR
STARTCHAR U+0430
ENCODING 1072
SWIDTH 500 0
DWIDTH 5 0
BBX 5 10 0 -2
BITMAP 
00
00
00
00
70
90
90
70
00
00
ENDCHAR
STARTCHAR U+0431
ENCODING 1073
SWIDTH 500 0
DWIDTH 5 0
BBX 5 10 0 -2
BITMAP 
00
00
60
80
E0
90
90
60
00
00
ENDCHAR
STARTCHAR U+0432
ENCODING 1074
SWIDTH 500 0
DWIDTH 5 0
BBX 5 10 0 -2
BITMAP 
00
00
00
00
E0
E0
90
E0
00
00
ENDCHAR
STARTCHAR U+0433
ENCODING 1075
SWIDTH 500 0
DWIDTH 5 0
BBX 5 10 0 -2
BITMAP 
00
00
00
00
70
40
40
40
00
00
ENDCHAR
STARTCHAR U+0434
ENCODING 1076
SWIDTH 500 0
DWIDTH 5 0
BBX 5 10 0 -2
BITMAP 
00
00
00
00
70
50
90
F0
90
00
ENDCHAR
STARTCHAR U+0435
ENCODING 1077
SWIDTH 500 0
DWIDTH 5 0
BBX 5 10 0 -2
BITMAP 
00
00
00
00
60
B0
C0
60
00
00
ENDCHAR
STARTCHAR U+0436
ENCODING 1078
SWIDTH 500 0
DWIDTH 5 0
BBX 5 10 0 -2
BITMAP 
00
00
00
00
A8
70
A8
A8
00
00
ENDCHAR
STARTCHAR U+0437
ENCODING 1079
SWIDTH 500 0
DWIDTH 5 0
BBX 5 10 0 -2
BITMAP 
00
00
00
00
70
30
10
60
00
00
ENDCHAR
STARTCHAR U+0438
ENCODING 1080
SWIDTH 500 0
DWIDTH 5 0
BBX 5 10 0 -2
BITMAP 
00
00
00
00
90
B0
D0
90
00
00
ENDCHAR
STARTCHAR U+0439
ENCODING 1081
SWIDTH 500 0
DWIDTH 5 0
BBX 5 10 0 -2
BITMAP 
00
00
90
60
90
B0
D0
90
00
00
ENDCHAR
STARTCHAR U+043A
ENCODING 1082
SWIDTH 500 0
DWIDTH 5 0
BBX 5 10 0 -2
BITMAP 
00
00
00
00
90
E0
A0
90
00
00
ENDCHAR
STARTCHAR U+043B
ENCODING 1083
SWIDTH 500 0
DWIDTH 5 0
BBX 5 10 0 -2
BITMAP 
00
00
00
00
30
50
50
90
00
00
ENDCHAR
STARTCHAR U+043C
ENCODING 1084
SWIDTH 500 0
DWIDTH 5 0
BBX 5 10 0 -2
BITMAP 
00
00
00
00
88
D8
A8
A8
00
00
ENDCHAR
STARTCHAR U+043D
ENCODING 1085
SWIDTH 500 0
DWIDTH 5 0
BBX 5 10 0 -2
BITMAP 
00
00
00
00
90
F0
90
90
00
00
ENDCHAR
STARTCHAR U+043E
ENCODING 1086
SWIDTH 500 0
DWIDTH 5 0
BBX 5 10 0 -2
BITMAP 
00
00
00
00
60
90
90
60
00
00
ENDCHAR
STARTCHAR U+043F
ENCODING 1087
SWIDTH 500 0
DWIDTH 5 0
BBX 5 10 0 -2
BITMAP 
00
00
00
00
F0
90
90
90
00
00
ENDCHAR
STARTCHAR U+0440
ENCODING 1088
SWIDTH 500 0
DWIDTH 5 0
BBX 5 10 0 -2
BITMAP 
00
00
00
00
E0
90
90
E0
80
00
ENDCHAR
STARTCHAR U+0441
ENCODING 1089
SWIDTH 500 0
DWIDTH 5 0
BBX 5 10 0 -2
BITMAP 
00
00
00
00
30
40
40
30
00
00
ENDCHAR
STARTCHAR U+0442
ENCODING 1090
SWIDTH 500 0
DWIDTH 5 0
BBX 5 10 0 -2
BITMAP 
00
00
00
00
70
20
20
20
00
00
ENDCHAR
STARTCHAR U+0443
ENCODING 1091
SWIDTH 500 0
DWIDTH 5 0
BBX 5 10 0 -2
BITMAP 
00
00
00
00
90
90
50
20
40
00
ENDCHAR
STARTCHAR U+0444
ENCODING 1092
SWIDTH 500 0
DWIDTH 5 0
BBX 5 10 0 -2
BITMAP 
00
00
60
20
20
70
50
70
20
00
ENDCHAR
STARTCHAR U+0445
ENCODING 1093
SWIDTH 500 0
DWIDTH 5 0
BBX 5 10 0 -2
BITMAP 
00
00
00
00
90
60
60
90
00
00
ENDCHAR
STARTCHAR U+0446
ENCODING 1094
SWIDTH 500 0
DWIDTH 5 0
BBX 5 10 0 -2
BITMAP 
00
00
00
00
90
90
90
F0
10
00
ENDCHAR
STARTCHAR U+0447
ENCODING 1095
SWIDTH 500 0
DWIDTH 5 0
BBX 5 10 0 -2
BITMAP 
00
00
00
00
90
90
70
10
00
00
ENDCHAR
STARTCHAR U+0448
ENCODING 1096
SWIDTH 500 0
DWIDTH 5 0
BBX 5 10 0 -2
BITMAP 
00
00
00
00
A8
A8
A8
F8
00
00
ENDCHAR
STARTCHAR U+0449
ENCODING 1097
SWIDTH 500 0
DWIDTH 5 0
BBX 5 10 0 -2
BITMAP 
00
00
00
00
A8
A8
A8
F8
08
00
ENDCHAR
STARTCHAR U+044A
ENCODING 1098
SWIDTH 500 0
DWIDTH 5 0
BBX 5 10 0 -2
BITMAP 
00
00
00
00
C0
60
50
60
00
00
ENDCHAR
STARTCHAR U+044B
ENCODING 1099
SWIDTH 500 0
DWIDTH 5 0
BBX 5 10 0 -2
BITMAP 
00
00
00
00
90
D0
B0
D0
00
00
ENDCHAR
STARTCHAR U+044C
ENCODING 1100
SWIDTH 500 0
DWIDTH 5 0
BBX 5 10 0 -2
BITMAP 
00
00
00
00
80
E0
90
E0
00
00
ENDCHAR
STARTCHAR U+044D
ENCODING 1101
SWIDTH 500 0
DWIDTH 5 0
BBX 5 10 0 -2
BITMAP 
00
00
00
00
60
30
10
60
00
00
ENDCHAR
STARTCHAR U+044E
ENCODING 1102
SWIDTH 500 0
DWIDTH 5 0
BBX 5 10 0 -2
BITMAP 
00
00
00
00
A0
D0
D0
A0
00
00
ENDCHAR
STARTCHAR U+044F
ENCODING 1103
SWIDTH 500 0
DWIDTH 5 0
BBX 5 10 0 -2
BITMAP 
00
00
00
00
30
50
30
50
00
00
ENDCHAR
STARTCHAR U+0451
ENCODING 1105
SWIDTH 500 0
DWIDTH 5 0
BBX 5 10 0 -2
BITMAP 
00
00
A0
00
60
B0
C0
60
00
00
ENDCHAR
STARTCHAR U+0452
ENCODING 1106
SWIDTH 500 0
DWIDTH 5 0
BBX 5 10 0 -2
BITMAP 
00
00
40
E0
40
60
50
10
20
00
ENDCHAR
STARTCHAR U+0453
ENCODING 1107
SWIDTH 500 0
DWIDTH 5 0
BBX 5 10 0 -2
BITMAP 
00
00
20
40
F0
80
80
80
00
00
ENDCHAR
STARTCHAR U+0454
ENCODING 1108
SWIDTH 500 0
DWIDTH 5 0
BBX 5 10 0 -2
BITMAP 
00
00
00
00
30
60
40
30
00
00
ENDCHAR
STARTCHAR U+0455
ENCODING 1109
SWIDTH 500 0
DWIDTH 5 0
BBX 5 10 0 -2
BITMAP 
00
00
00
00
70
C0
30
E0
00
00
ENDCHAR
STARTCHAR U+0456
ENCODING 1110
SWIDTH 500 0
DWIDTH 5 0
BBX 5 10 0 -2
BITMAP 
00
00
20
00
60
20
20
70
00
00
ENDCHAR
STARTCHAR U+0457
ENCODING 1111
SWIDTH 500 0
DWIDTH 5 0
BBX 5 10 0 -2
BITMAP 
00
00
50
00
60
20
20
70
00
00
ENDCHAR
STARTCHAR U+0458
ENCODING 1112
SWIDTH 500 0
DWIDTH 5 0
BBX 5 10 0 -2
BITMAP 
00
00
10
00
10
10
10
50
20
00
ENDCHAR
STARTCHAR U+0459
ENCODING 1113
SWIDTH 500 0
DWIDTH 5 0
BBX 5 10 0 -2
BITMAP 
00
00
00
00
60
B8
A8
B0
00
00
ENDCHAR
STARTCHAR U+045A
ENCODING 1114
SWIDTH 500 0
DWIDTH 5 0
BBX 5 10 0 -2
BITMAP 
00
00
00
00
A0
F0
A8
B0
00
00
ENDCHAR
STARTCHAR U+045B
ENCODING 1115
SWIDTH 500 0
DWIDTH 5 0
BBX 5 10 0 -2
BITMAP 
00
00
40
E0
40
60
50
50
00
00
ENDCHAR
STARTCHAR U+045C
ENCODING 1116
SWIDTH 500 0
DWIDTH 5 0
BBX 5 10 0 -2
BITMAP 
00
00
20
40
90
E0
A0
90
00
00
ENDCHAR
STARTCHAR U+045D
ENCODING 1117
SWIDTH 500 0
DWIDTH 5 0
BBX 5 10 0 -2
BITMAP 
00
00
00
00
00
00
00
00
00
00
ENDCHAR
STARTCHAR U+045E
ENCODING 1118
SWIDTH 500 0
DWIDTH 5 0
BBX 5 10 0 -2
BITMAP 
00
00
90
60
00
90
50
20
40
00
ENDCHAR
STARTCHAR U+045F
ENCODING 1119
SWIDTH 500 0
DWIDTH 5 0
BBX 5 10 0 -2
BITMAP 
00
00
00
00
50
50
50
70
20
00
ENDCHAR
STARTCHAR U+0490
ENCODING 1168
SWIDTH 500 0
DWIDTH 5 0
BBX 5 10 0 -2
BITMAP 
00
00
10
F0
80
80
80
80
00
00
ENDCHAR
STARTCHAR U+0491
ENCODING 1169
SWIDTH 500 0
DWIDTH 5 0
BBX 5 10 0 -2
BITMAP 
00
00
00
10
F0
80
80
80
00
00
ENDCHAR
STARTCHAR U+0492
ENCODING 1170
SWIDTH 500 0
DWIDTH 5 0
BBX 5 10 0 -2
BITMAP 
00
00
70
40
E0
40
40
40
00
00
ENDCHAR
STARTCHAR U+0493
ENCODING 1171
SWIDTH 500 0
DWIDTH 5 0
BBX 5 10 0 -2
BITMAP 
00
00
00
00
70
40
E0
40
00
00
ENDCHAR
STARTCHAR U+0496
ENCODING 1174
SWIDTH 500 0
DWIDTH 5 0
BBX 5 10 0 -2
BITMAP 
00
00
A8
A8
70
A8
A8
A8
08
00
ENDCHAR
STARTCHAR U+0497
ENCODING 1175
SWIDTH 500 0
DWIDTH 5 0
BBX 5 10 0 -2
BITMAP 
00
00
00
00
A8
70
A8
A8
08
00
ENDCHAR
STARTCHAR U+049A
ENCODING 1178
SWIDTH 500 0
DWIDTH 5 0
BBX 5 10 0 -2
BITMAP 
00
00
90
A0
C0
A0
90
88
08
00
ENDCHAR
STARTCHAR U+049B
ENCODING 1179
SWIDTH 500 0
DWIDTH 5 0
BBX 5 10 0 -2
BITMAP 
00
00
00
00
90
E0
A0
90
08
00
ENDCHAR
STARTCHAR U+04AE
ENCODING 1198
SWIDTH 500 0
DWIDTH 5 0
BBX 5 10 0 -2
BITMAP 
00
00
88
88
50
20
20
20
00
00
ENDCHAR
STARTCHAR U+04AF
ENCODING 1199
SWIDTH 500 0
DWIDTH 5 0
BBX 5 10 0 -2
BITMAP 
00
00
00
00
88
50
20
20
20
00
ENDCHAR
STARTCHAR U+04B0
ENCODING 1200
SWIDTH 500 0
DWIDTH 5 0
BBX 5 10 0 -2
BITMAP 
00
00
88
88
50
F8
20
20
00
00
ENDCHAR
STARTCHAR U+04B1
ENCODING 1201
SWIDTH 500 0
DWIDTH 5 0
BBX 5 10 0 -2
BITMAP 
00
00
00
00
88
50
F8
20
20
00
ENDCHAR
STARTCHAR U+04B2
ENCODING 1202
SWIDTH 500 0
DWIDTH 5 0
BBX 5 10 0 -2
BITMAP 
00
00
50
50
20
20
50
50
08
00
ENDCHAR
STARTCHAR U+04B3
ENCODING 1203
SWIDTH 500 0
DWIDTH 5 0
BBX 5 10 0 -2
BITMAP 
00
00
00
00
90
60
60
90
08
00
ENDCHAR
STARTCHAR U+04BA
ENCODING 1210
SWIDTH 500 0
DWIDTH 5 0
BBX 5 10 0 -2
BITMAP 
00
00
80
80
E0
90
90
90
00
00
ENDCHAR
STARTCHAR U+04BB
ENCODING 1211
SWIDTH 500 0
DWIDTH 5 0
BBX 5 10 0 -2
BITMAP 
00
00
40
40
60
50
50
50
00
00
ENDCHAR
STARTCHAR U+04D8
ENCODING 1240
SWIDTH 500 0
DWIDTH 5 0
BBX 5 10 0 -2
BITMAP 
00
00
60
90
10
F0
90
60
00
00
ENDCHAR
STARTCHAR U+04D9
ENCODING 1241
SWIDTH 500 0
DWIDTH 5 0
BBX 5 10 0 -2
BITMAP 
00
00
00
00
60
30
D0
60
00
00
ENDCHAR
STARTCHAR U+04E2
ENCODING 1250
SWIDTH 500 0
DWIDTH 5 0
BBX 5 10 0 -2
BITMAP 
00
70
00
70
20
20
20
70
00
00
ENDCHAR
STARTCHAR U+04E3
ENCODING 1251
SWIDTH 500 0
DWIDTH 5 0
BBX 5 10 0 -2
BITMAP 
00
00
70
00
60
20
20
70
00
00
ENDCHAR
STARTCHAR U+04E8
ENCODING 1256
SWIDTH 500 0
DWIDTH 5 0
BBX 5 10 0 -2
BITMAP 
00
00
60
90
F0
90
90
60
00
00
ENDCHAR
STARTCHAR U+04E9
ENCODING 1257
SWIDTH 500 0
DWIDTH 5 0
BBX 5 10 0 -2
BITMAP 
00
00
00
00
60
F0
90
60
00
00
ENDCHAR
STARTCHAR U+04EE
ENCODING 1262
SWIDTH 500 0
DWIDTH 5 0
BBX 5 10 0 -2
BITMAP 
00
F0
00
90
90
90
90
60
00
00
ENDCHAR
STARTCHAR U+04EF
ENCODING 1263
SWIDTH 500 0
DWIDTH 5 0
BBX 5 10 0 -2
BITMAP 
00
00
F0
00
90
90
90
70
00
00
ENDCHAR
STARTCHAR U+05D0
ENCODING 1488
SWIDTH 500 0
DWIDTH 5 0
BBX 5 10 0 -2
BITMAP 
00
00
00
00
90
50
A0
90
00
00
ENDCHAR
STARTCHAR U+05D1
ENCODING 1489
SWIDTH 500 0
DWIDTH 5 0
BBX 5 10 0 -2
BITMAP 
00
00
00
00
E0
20
20
F0
00
00
ENDCHAR
STARTCHAR U+05D2
ENCODING 1490
SWIDTH 500 0
DWIDTH 5 0
BBX 5 10 0 -2
BITMAP 
00
00
00
40
20
20
20
D0
00
00
ENDCHAR
STARTCHAR U+05D3
ENCODING 1491
SWIDTH 500 0
DWIDTH 5 0
BBX 5 10 0 -2
BITMAP 
00
00
00
00
F0
20
20
20
00
00
ENDCHAR
STARTCHAR U+05D4
ENCODING 1492
SWIDTH 500 0
DWIDTH 5 0
BBX 5 10 0 -2
BITMAP 
00
00
00
00
F0
10
90
90
00
00
ENDCHAR
STARTCHAR U+05D5
ENCODING 1493
SWIDTH 500 0
DWIDTH 5 0
BBX 5 10 0 -2
BITMAP 
00
00
00
40
20
20
20
20
00
00
ENDCHAR
STARTCHAR U+05D6
ENCODING 1494
SWIDTH 500 0
DWIDTH 5 0
BBX 5 10 0 -2
BITMAP 
00
00
00
00
70
20
20
20
00
00
ENDCHAR
STARTCHAR U+05D7
ENCODING 1495
SWIDTH 500 0
DWIDTH 5 0
BBX 5 10 0 -2
BITMAP 
00
00
00
00
F0
50
50
50
00
00
ENDCHAR
STARTCHAR U+05D8
ENCODING 1496
SWIDTH 500 0
DWIDTH 5 0
BBX 5 10 0 -2
BITMAP 
00
00
00
00
90
90
90
F0
00
00
ENDCHAR
STARTCHAR U+05D9
ENCODING 1497
SWIDTH 500 0
DWIDTH 5 0
BBX 5 10 0 -2
BITMAP 
00
00
00
40
20
00
00
00
00
00
ENDCHAR
STARTCHAR U+05DA
ENCODING 1498
SWIDTH 500 0
DWIDTH 5 0
BBX 5 10 0 -2
BITMAP 
00
00
00
00
F0
10
20
20
00
00
ENDCHAR
STARTCHAR U+05DB
ENCODING 1499
SWIDTH 500 0
DWIDTH 5 0
BBX 5 10 0 -2
BITMAP 
00
00
00
80
70
10
10
E0
00
00
ENDCHAR
STARTCHAR U+05DC
ENCODING 1500
SWIDTH 500 0
DWIDTH 5 0
BBX 5 10 0 -2
BITMAP 
00
00
00
80
70
10
20
40
00
00
ENDCHAR
STARTCHAR U+05DD
ENCODING 1501
SWIDTH 500 0
DWIDTH 5 0
BBX 5 10 0 -2
BITMAP 
00
00
00
80
70
90
90
F0
00
00
ENDCHAR
STARTCHAR U+05DE
ENCODING 1502
SWIDTH 500 0
DWIDTH 5 0
BBX 5 10 0 -2
BITMAP 
00
00
00
80
70
90
90
B0
00
00
ENDCHAR
STARTCHAR U+05DF
ENCODING 1503
SWIDTH 500 0
DWIDTH 5 0
BBX 5 10 0 -2
BITMAP 
00
00
00
40
20
40
40
40
00
00
ENDCHAR
STARTCHAR U+05E0
ENCODING 1504
SWIDTH 500 0
DWIDTH 5 0
BBX 5 10 0 -2
BITMAP 
00
00
00
40
20
20
20
60
00
00
ENDCHAR
STARTCHAR U+05E1
ENCODING 1505
SWIDTH 500 0
DWIDTH 5 0
BBX 5 10 0 -2
BITMAP 
00
00
00
80
78
48
48
30
00
00
ENDCHAR
STARTCHAR U+05E2
ENCODING 1506
SWIDTH 500 0
DWIDTH 5 0
BBX 5 10 0 -2
BITMAP 
00
00
00
00
90
50
50
F0
00
00
ENDCHAR
STARTCHAR U+05E3
ENCODING 1507
SWIDTH 500 0
DWIDTH 5 0
BBX 5 10 0 -2
BITMAP 
00
00
00
00
70
90
10
10
00
00
ENDCHAR
STARTCHAR U+05E4
ENCODING 1508
SWIDTH 500 0
DWIDTH 5 0
BBX 5 10 0 -2
BITMAP 
00
00
00
00
F0
90
10
F0
00
00
ENDCHAR
STARTCHAR U+05E5
ENCODING 1509
SWIDTH 500 0
DWIDTH 5 0
BBX 5 10 0 -2
BITMAP 
00
00
00
00
50
60
40
40
00
00
ENDCHAR
STARTCHAR U+05E6
ENCODING 1510
SWIDTH 500 0
DWIDTH 5 0
BBX 5 10 0 -2
BITMAP 
00
00
00
00
90
60
20
F0
00
00
ENDCHAR
STARTCHAR U+05E7
ENCODING 1511
SWIDTH 500 0
DWIDTH 5 0
BBX 5 10 0 -2
BITMAP 
00
00
00
00
E0
10
A0
80
00
00
ENDCHAR
STARTCHAR U+05E8
ENCODING 1512
SWIDTH 500 0
DWIDTH 5 0
BBX 5 10 0 -2
BITMAP 
00
00
00
00
F0
10
10
10
00
00
ENDCHAR
STARTCHAR U+05E9
ENCODING 1513
SWIDTH 500 0
DWIDTH 5 0
BBX 5 10 0 -2
BITMAP 
00
00
00
00
A8
C8
88
F0
00
00
ENDCHAR
STARTCHAR U+05EA
ENCODING 1514
SWIDTH 500 0
DWIDTH 5 0
BBX 5 10 0 -2
BITMAP 
00
00
00
00
F0
50
50
D0
00
00
ENDCHAR
STARTCHAR U+16A0
ENCODING 5792
SWIDTH 500 0
DWIDTH 5 0
BBX 5 10 0 -2
BITMAP 
00
00
50
60
50
60
40
40
00
00
ENDCHAR
STARTCHAR U+16A2
ENCODING 5794
SWIDTH 500 0
DWIDTH 5 0
BBX 5 10 0 -2
BITMAP 
00
00
60
50
50
50
50
50
00
00
ENDCHAR
STARTCHAR U+16A3
ENCODING 5795
SWIDTH 500 0
DWIDTH 5 0
BBX 5 10 0 -2
BITMAP 
00
00
20
50
50
70
70
70
00
00
ENDCHAR
STARTCHAR U+16A6
ENCODING 5798
SWIDTH 500 0
DWIDTH 5 0
BBX 5 10 0 -2
BITMAP 
00
00
40
60
50
50
60
40
00
00
ENDCHAR
STARTCHAR U+16A9
ENCODING 5801
SWIDTH 500 0
DWIDTH 5 0
BBX 5 10 0 -2
BITMAP 
00
00
D0
A0
80
80
80
80
00
00
ENDCHAR
STARTCHAR U+16AA
ENCODING 5802
SWIDTH 500 0
DWIDTH 5 0
BBX 5 10 0 -2
BITMAP 
00
00
D0
A0
80
C0
A0
80
00
00
ENDCHAR
STARTCHAR U+16AB
ENCODING 5803
SWIDTH 500 0
DWIDTH 5 0
BBX 5 10 0 -2
BITMAP 
00
00
60
50
60
50
40
40
00
00
ENDCHAR
STARTCHAR U+16B1
ENCODING 5809
SWIDTH 500 0
DWIDTH 5 0
BBX 5 10 0 -2
BITMAP 
00
00
E0
90
A0
C0
A0
80
00
00
ENDCHAR
STARTCHAR U+16B3
ENCODING 5811
SWIDTH 500 0
DWIDTH 5 0
BBX 5 10 0 -2
BITMAP 
00
00
40
40
60
50
50
50
00
00
ENDCHAR
STARTCHAR U+16B7
ENCODING 5815
SWIDTH 500 0
DWIDTH 5 0
BBX 5 10 0 -2
BITMAP 
00
00
50
50
20
20
50
50
00
00
ENDCHAR
STARTCHAR U+16B8
ENCODING 5816
SWIDTH 500 0
DWIDTH 5 0
BBX 5 10 0 -2
BITMAP 
00
00
50
70
A8
A8
70
50
00
00
ENDCHAR
STARTCHAR U+16B9
ENCODING 5817
SWIDTH 500 0
DWIDTH 5 0
BBX 5 10 0 -2
BITMAP 
00
00
60
50
50
60
40
40
00
00
ENDCHAR
STARTCHAR U+16BB
ENCODING 5819
SWIDTH 500 0
DWIDTH 5 0
BBX 5 10 0 -2
BITMAP 
00
00
90
90
D0
B0
D0
B0
00
00
ENDCHAR
STARTCHAR U+16BE
ENCODING 5822
SWIDTH 500 0
DWIDTH 5 0
BBX 5 10 0 -2
BITMAP 
00
00
20
20
60
30
20
20
00
00
ENDCHAR
STARTCHAR U+16C0
ENCODING 5824
SWIDTH 500 0
DWIDTH 5 0
BBX 5 10 0 -2
BITMAP 
00
00
20
20
20
20
20
20
00
00
ENDCHAR
STARTCHAR U+16C4
ENCODING 5828
SWIDTH 500 0
DWIDTH 5 0
BBX 5 10 0 -2
BITMAP 
00
00
20
70
A8
A8
70
20
00
00
ENDCHAR
STARTCHAR U+16C7
ENCODING 5831
SWIDTH 500 0
DWIDTH 5 0
BBX 5 10 0 -2
BITMAP 
00
00
20
30
28
A0
60
20
00
00
ENDCHAR
STARTCHAR U+16C8
ENCODING 5832
SWIDTH 500 0
DWIDTH 5 0
BBX 5 10 0 -2
BITMAP 
00
00
D0
A0
80
80
A0
D0
00
00
ENDCHAR
STARTCHAR U+16C9
ENCODING 5833
SWIDTH 500 0
DWIDTH 5 0
BBX 5 10 0 -2
BITMAP 
00
00
A8
A8
A8
70
20
20
00
00
ENDCHAR
STARTCHAR U+16CB
ENCODING 5835
SWIDTH 500 0
DWIDTH 5 0
BBX 5 10 0 -2
BITMAP 
00
00
80
90
B0
D0
90
10
00
00
ENDCHAR
STARTCHAR U+16CF
ENCODING 5839
SWIDTH 500 0
DWIDTH 5 0
BBX 5 10 0 -2
BITMAP 
00
00
20
70
A8
20
20
20
00
00
ENDCHAR
STARTCHAR U+16D2
ENCODING 5842
SWIDTH 500 0
DWIDTH 5 0
BBX 5 10 0 -2
BITMAP 
00
00
E0
90
E0
E0
90
E0
00
00
ENDCHAR
STARTCHAR U+16D6
ENCODING 5846
SWIDTH 500 0
DWIDTH 5 0
BBX 5 10 0 -2
BITMAP 
00
00
88
D8
A8
88
88
88
00
00
ENDCHAR
STARTCHAR U+16D7
ENCODING 5847
SWIDTH 500 0
DWIDTH 5 0
BBX 5 10 0 -2
BITMAP 
00
00
88
D8
A8
D8
88
88
00
00
ENDCHAR
STARTCHAR U+16DA
ENCODING 5850
SWIDTH 500 0
DWIDTH 5 0
BBX 5 10 0 -2
BITMAP 
00
00
40
60
50
40
40
40
00
00
ENDCHAR
STARTCHAR U+16DD
ENCODING 5853
SWIDTH 500 0
DWIDTH 5 0
BBX 5 10 0 -2
BITMAP 
00
00
50
20
50
50
20
50
00
00
ENDCHAR
STARTCHAR U+16DE
ENCODING 5854
SWIDTH 500 0
DWIDTH 5 0
BBX 5 10 0 -2
BITMAP 
00
00
88
88
D8
A8
D8
88
00
00
ENDCHAR
STARTCHAR U+16DF
ENCODING 5855
SWIDTH 500 0
DWIDTH 5 0
BBX 5 10 0 -2
BITMAP 
00
00
20
50
50
20
50
50
00
00
ENDCHAR
STARTCHAR U+16E0
ENCODING 5856
SWIDTH 500 0
DWIDTH 5 0
BBX 5 10 0 -2
BITMAP 
00
00
A8
70
20
20
20
20
00
00
ENDCHAR
STARTCHAR U+16E1
ENCODING 5857
SWIDTH 500 0
DWIDTH 5 0
BBX 5 10 0 -2
BITMAP 
00
00
A8
70
70
A8
20
20
00
00
ENDCHAR
STARTCHAR U+16E2
ENCODING 5858
SWIDTH 500 0
DWIDTH 5 0
BBX 5 10 0 -2
BITMAP 
00
00
28
30
20
20
60
A0
00
00
ENDCHAR
STARTCHAR U+16E3
ENCODING 5859
SWIDTH 500 0
DWIDTH 5 0
BBX 5 10 0 -2
BITMAP 
00
00
20
20
20
70
A8
A8
00
00
ENDCHAR
STARTCHAR U+16E4
ENCODING 5860
SWIDTH 500 0
DWIDTH 5 0
BBX 5 10 0 -2
BITMAP 
00
00
90
F0
90
90
F0
90
00
00
ENDCHAR
STARTCHAR U+16EB
ENCODING 5867
SWIDTH 500 0
DWIDTH 5 0
BBX 5 10 0 -2
BITMAP 
00
00
00
00
00
20
00
00
00
00
ENDCHAR
STARTCHAR U+16EC
ENCODING 5868
SWIDTH 500 0
DWIDTH 5 0
BBX 5 10 0 -2
BITMAP 
00
00
00
00
20
00
20
00
00
00
ENDCHAR
STARTCHAR U+16ED
ENCODING 5869
SWIDTH 500 0
DWIDTH 5 0
BBX 5 10 0 -2
BITMAP 
00
00
00
00
50
20
50
00
00
00
ENDCHAR
STARTCHAR U+1E02
ENCODING 7682
SWIDTH 500 0
DWIDTH 5 0
BBX 5 10 0 -2
BITMAP 
00
20
00
E0
90
E0
90
E0
00
00
ENDCHAR
STARTCHAR U+1E03
ENCODING 7683
SWIDTH 500 0
DWIDTH 5 0
BBX 5 10 0 -2
BITMAP 
00
20
80
80
E0
90
90
E0
00
00
ENDCHAR
STARTCHAR U+1E0A
ENCODING 7690
SWIDTH 500 0
DWIDTH 5 0
BBX 5 10 0 -2
BITMAP 
00
20
00
E0
90
90
90
E0
00
00
ENDCHAR
STARTCHAR U+1E0B
ENCODING 7691
SWIDTH 500 0
DWIDTH 5 0
BBX 5 10 0 -2
BITMAP 
00
40
10
10
70
90
90
70
00
00
ENDCHAR
STARTCHAR U+1E1E
ENCODING 7710
SWIDTH 500 0
DWIDTH 5 0
BBX 5 10 0 -2
BITMAP 
00
20
00
F0
80
E0
80
80
00
00
ENDCHAR
STARTCHAR U+1E1F
ENCODING 7711
SWIDTH 500 0
DWIDTH 5 0
BBX 5 10 0 -2
BITMAP 
00
80
20
50
40
E0
40
40
00
00
ENDCHAR
STARTCHAR U+1E3E
ENCODING 7742
SWIDTH 500 0
DWIDTH 5 0
BBX 5 10 0 -2
BITMAP 
00
10
D8
50
50
70
70
70
D8
00
ENDCHAR
STARTCHAR U+1E3F
ENCODING 7743
SWIDTH 500 0
DWIDTH 5 0
BBX 5 10 0 -2
BITMAP 
00
00
20
20
70
78
78
78
78
00
ENDCHAR
STARTCHAR U+1E40
ENCODING 7744
SWIDTH 500 0
DWIDTH 5 0
BBX 5 10 0 -2
BITMAP 
00
20
00
90
F0
F0
90
90
00
00
ENDCHAR
STARTCHAR U+1E41
ENCODING 7745
SWIDTH 500 0
DWIDTH 5 0
BBX 5 10 0 -2
BITMAP 
00
00
20
00
D0
A8
A8
A8
00
00
ENDCHAR
STARTCHAR U+1E56
ENCODING 7766
SWIDTH 500 0
DWIDTH 5 0
BBX 5 10 0 -2
BITMAP 
00
40
00
E0
90
E0
80
80
00
00
ENDCHAR
STARTCHAR U+1E57
ENCODING 7767
SWIDTH 500 0
DWIDTH 5 0
BBX 5 10 0 -2
BITMAP 
00
00
40
00
E0
90
E0
80
80
00
ENDCHAR
STARTCHAR U+1E60
ENCODING 7776
SWIDTH 500 0
DWIDTH 5 0
BBX 5 10 0 -2
BITMAP 
00
20
00
70
80
60
10
E0
00
00
ENDCHAR
STARTCHAR U+1E61
ENCODING 7777
SWIDTH 500 0
DWIDTH 5 0
BBX 5 10 0 -2
BITMAP 
00
00
20
00
30
60
10
60
00
00
ENDCHAR
STARTCHAR U+1E6A
ENCODING 7786
SWIDTH 500 0
DWIDTH 5 0
BBX 5 10 0 -2
BITMAP 
00
20
00
70
20
20
20
20
00
00
ENDCHAR
STARTCHAR U+1E6B
ENCODING 7787
SWIDTH 500 0
DWIDTH 5 0
BBX 5 10 0 -2
BITMAP 
00
40
00
40
E0
40
50
20
00
00
ENDCHAR
STARTCHAR U+1E80
ENCODING 7808
SWIDTH 500 0
DWIDTH 5 0
BBX 5 10 0 -2
BITMAP 
00
40
20
90
90
F0
F0
90
00
00
ENDCHAR
STARTCHAR U+1E81
ENCODING 7809
SWIDTH 500 0
DWIDTH 5 0
BBX 5 10 0 -2
BITMAP 
00
40
20
00
88
A8
A8
50
00
00
ENDCHAR
STARTCHAR U+1E82
ENCODING 7810
SWIDTH 500 0
DWIDTH 5 0
BBX 5 10 0 -2
BITMAP 
00
20
40
90
90
F0
F0
90
00
00
ENDCHAR
STARTCHAR U+1E83
ENCODING 7811
SWIDTH 500 0
DWIDTH 5 0
BBX 5 10 0 -2
BITMAP 
00
10
20
00
88
A8
A8
50
00
00
ENDCHAR
STARTCHAR U+1E84
ENCODING 7812
SWIDTH 500 0
DWIDTH 5 0
BBX 5 10 0 -2
BITMAP 
00
90
00
90
90
F0
F0
90
00
00
ENDCHAR
STARTCHAR U+1E85
ENCODING 7813
SWIDTH 500 0
DWIDTH 5 0
BBX 5 10 0 -2
BITMAP 
00
00
50
00
88
A8
A8
50
00
00
ENDCHAR
STARTCHAR U+1EF2
ENCODING 7922
SWIDTH 500 0
DWIDTH 5 0
BBX 5 10 0 -2
BITMAP 
00
40
20
88
50
20
20
20
00
00
ENDCHAR
STARTCHAR U+1EF3
ENCODING 7923
SWIDTH 500 0
DWIDTH 5 0
BBX 5 10 0 -2
BITMAP 
00
40
20
00
90
90
70
90
60
00
ENDCHAR
STARTCHAR U+1F00
ENCODING 7936
SWIDTH 500 0
DWIDTH 5 0
BBX 5 10 0 -2
BITMAP 
00
00
60
20
70
90
B0
50
00
00
ENDCHAR
STARTCHAR U+1F01
ENCODING 7937
SWIDTH 500 0
DWIDTH 5 0
BBX 5 10 0 -2
BITMAP 
00
00
60
40
70
90
B0
50
00
00
ENDCHAR
STARTCHAR U+1F02
ENCODING 7938
SWIDTH 500 0
DWIDTH 5 0
BBX 5 10 0 -2
BITMAP 
00
00
E0
50
70
90
B0
50
00
00
ENDCHAR
STARTCHAR U+1F03
ENCODING 7939
SWIDTH 500 0
DWIDTH 5 0
BBX 5 10 0 -2
BITMAP 
00
00
E0
90
70
90
B0
50
00
00
ENDCHAR
STARTCHAR U+1F04
ENCODING 7940
SWIDTH 500 0
DWIDTH 5 0
BBX 5 10 0 -2
BITMAP 
00
00
D0
60
70
90
B0
50
00
00
ENDCHAR
STARTCHAR U+1F05
ENCODING 7941
SWIDTH 500 0
DWIDTH 5 0
BBX 5 10 0 -2
BITMAP 
00
00
D0
A0
70
90
B0
50
00
00
ENDCHAR
STARTCHAR U+1F06
ENCODING 7942
SWIDTH 500 0
DWIDTH 5 0
BBX 5 10 0 -2
BITMAP 
00
00
70
20
70
90
B0
50
00
00
ENDCHAR
STARTCHAR U+1F07
ENCODING 7943
SWIDTH 500 0
DWIDTH 5 0
BBX 5 10 0 -2
BITMAP 
00
00
70
20
70
90
B0
50
00
00
ENDCHAR
STARTCHAR U+1F08
ENCODING 7944
SWIDTH 500 0
DWIDTH 5 0
BBX 5 10 0 -2
BITMAP 
00
00
A0
D0
50
70
50
50
00
00
ENDCHAR
STARTCHAR U+1F09
ENCODING 7945
SWIDTH 500 0
DWIDTH 5 0
BBX 5 10 0 -2
BITMAP 
00
00
A0
D0
50
70
50
50
00
00
ENDCHAR
STARTCHAR U+1F0A
ENCODING 7946
SWIDTH 500 0
DWIDTH 5 0
BBX 5 10 0 -2
BITMAP 
00
00
A0
D0
50
70
50
50
00
00
ENDCHAR
STARTCHAR U+1F0B
ENCODING 7947
SWIDTH 500 0
DWIDTH 5 0
BBX 5 10 0 -2
BITMAP 
00
00
A0
D0
50
70
50
50
00
00
ENDCHAR
STARTCHAR U+1F0C
ENCODING 7948
SWIDTH 500 0
DWIDTH 5 0
BBX 5 10 0 -2
BITMAP 
00
00
A0
D0
50
70
50
50
00
00
ENDCHAR
STARTCHAR U+1F0D
ENCODING 7949
SWIDTH 500 0
DWIDTH 5 0
BBX 5 10 0 -2
BITMAP 
00
00
A0
D0
50
70
50
50
00
00
ENDCHAR
STARTCHAR U+1F0E
ENCODING 7950
SWIDTH 500 0
DWIDTH 5 0
BBX 5 10 0 -2
BITMAP 
00
00
A0
D0
50
70
50
50
00
00
ENDCHAR
STARTCHAR U+1F0F
ENCODING 7951
SWIDTH 500 0
DWIDTH 5 0
BBX 5 10 0 -2
BITMAP 
00
00
A0
D0
50
70
50
50
00
00
ENDCHAR
STARTCHAR U+1F10
ENCODING 7952
SWIDTH 500 0
DWIDTH 5 0
BBX 5 10 0 -2
BITMAP 
00
00
30
10
70
20
40
30
00
00
ENDCHAR
STARTCHAR U+1F11
ENCODING 7953
SWIDTH 500 0
DWIDTH 5 0
BBX 5 10 0 -2
BITMAP 
00
00
30
20
70
20
40
30
00
00
ENDCHAR
STARTCHAR U+1F12
ENCODING 7954
SWIDTH 500 0
DWIDTH 5 0
BBX 5 10 0 -2
BITMAP 
00
00
E0
50
E0
40
80
60
00
00
ENDCHAR
STARTCHAR U+1F13
ENCODING 7955
SWIDTH 500 0
DWIDTH 5 0
BBX 5 10 0 -2
BITMAP 
00
00
E0
90
E0
40
80
60
00
00
ENDCHAR
STARTCHAR U+1F14
ENCODING 7956
SWIDTH 500 0
DWIDTH 5 0
BBX 5 10 0 -2
BITMAP 
00
00
D0
60
E0
40
80
60
00
00
ENDCHAR
STARTCHAR U+1F15
ENCODING 7957
SWIDTH 500 0
DWIDTH 5 0
BBX 5 10 0 -2
BITMAP 
00
00
D0
A0
E0
40
80
60
00
00
ENDCHAR
STARTCHAR U+1F18
ENCODING 7960
SWIDTH 500 0
DWIDTH 5 0
BBX 5 10 0 -2
BITMAP 
00
00
F0
C0
60
40
40
70
00
00
ENDCHAR
STARTCHAR U+1F19
ENCODING 7961
SWIDTH 500 0
DWIDTH 5 0
BBX 5 10 0 -2
BITMAP 
00
00
F0
C0
60
40
40
70
00
00
ENDCHAR
STARTCHAR U+1F1A
ENCODING 7962
SWIDTH 500 0
DWIDTH 5 0
BBX 5 10 0 -2
BITMAP 
00
00
F0
C0
60
40
40
70
00
00
ENDCHAR
STARTCHAR U+1F1B
ENCODING 7963
SWIDTH 500 0
DWIDTH 5 0
BBX 5 10 0 -2
BITMAP 
00
00
F0
C0
60
40
40
70
00
00
ENDCHAR
STARTCHAR U+1F1C
ENCODING 7964
SWIDTH 500 0
DWIDTH 5 0
BBX 5 10 0 -2
BITMAP 
00
00
F0
C0
60
40
40
70
00
00
ENDCHAR
STARTCHAR U+1F1D
ENCODING 7965
SWIDTH 500 0
DWIDTH 5 0
BBX 5 10 0 -2
BITMAP 
00
00
F0
C0
60
40
40
70
00
00
ENDCHAR
STARTCHAR U+1F20
ENCODING 7968
SWIDTH 500 0
DWIDTH 5 0
BBX 5 10 0 -2
BITMAP 
00
00
60
20
E0
90
90
90
10
00
ENDCHAR
STARTCHAR U+1F21
ENCODING 7969
SWIDTH 500 0
DWIDTH 5 0
BBX 5 10 0 -2
BITMAP 
00
00
60
40
E0
90
90
90
10
00
ENDCHAR
STARTCHAR U+1F22
ENCODING 7970
SWIDTH 500 0
DWIDTH 5 0
BBX 5 10 0 -2
BITMAP 
00
00
E0
50
E0
90
90
90
10
00
ENDCHAR
STARTCHAR U+1F23
ENCODING 7971
SWIDTH 500 0
DWIDTH 5 0
BBX 5 10 0 -2
BITMAP 
00
00
E0
90
E0
90
90
90
10
00
ENDCHAR
STARTCHAR U+1F24
ENCODING 7972
SWIDTH 500 0
DWIDTH 5 0
BBX 5 10 0 -2
BITMAP 
00
00
D0
60
E0
90
90
90
10
00
ENDCHAR
STARTCHAR U+1F25
ENCODING 7973
SWIDTH 500 0
DWIDTH 5 0
BBX 5 10 0 -2
BITMAP 
00
00
D0
A0
E0
90
90
90
10
00
ENDCHAR
STARTCHAR U+1F26
ENCODING 7974
SWIDTH 500 0
DWIDTH 5 0
BBX 5 10 0 -2
BITMAP 
00
00
70
20
E0
90
90
90
10
00
ENDCHAR
STARTCHAR U+1F27
ENCODING 7975
SWIDTH 500 0
DWIDTH 5 0
BBX 5 10 0 -2
BITMAP 
00
00
70
20
E0
90
90
90
10
00
ENDCHAR
STARTCHAR U+1F28
ENCODING 7976
SWIDTH 500 0
DWIDTH 5 0
BBX 5 10 0 -2
BITMAP 
00
00
D0
D0
70
50
50
50
00
00
ENDCHAR
STARTCHAR U+1F29
ENCODING 7977
SWIDTH 500 0
DWIDTH 5 0
BBX 5 10 0 -2
BITMAP 
00
00
D0
D0
70
50
50
50
00
00
ENDCHAR
STARTCHAR U+1F2A
ENCODING 7978
SWIDTH 500 0
DWIDTH 5 0
BBX 5 10 0 -2
BITMAP 
00
00
D0
D0
70
50
50
50
00
00
ENDCHAR
STARTCHAR U+1F2B
ENCODING 7979
SWIDTH 500 0
DWIDTH 5 0
BBX 5 10 0 -2
BITMAP 
00
00
D0
D0
70
50
50
50
00
00
ENDCHAR
STARTCHAR U+1F2C
ENCODING 7980
SWIDTH 500 0
DWIDTH 5 0
BBX 5 10 0 -2
BITMAP 
00
00
D0
D0
70
50
50
50
00
00
ENDCHAR
STARTCHAR U+1F2D
ENCODING 7981
SWIDTH 500 0
DWIDTH 5 0
BBX 5 10 0 -2
BITMAP 
00
00
D0
D0
70
50
50
50
00
00
ENDCHAR
STARTCHAR U+1F2E
ENCODING 7982
SWIDTH 500 0
DWIDTH 5 0
BBX 5 10 0 -2
BITMAP 
00
00
D0
D0
70
50
50
50
00
00
ENDCHAR
STARTCHAR U+1F2F
ENCODING 7983
SWIDTH 500 0
DWIDTH 5 0
BBX 5 10 0 -2
BITMAP 
00
00
D0
D0
70
50
50
50
00
00
ENDCHAR
STARTCHAR U+1F30
ENCODING 7984
SWIDTH 500 0
DWIDTH 5 0
BBX 5 10 0 -2
BITMAP 
00
00
60
20
00
40
40
20
00
00
ENDCHAR
STARTCHAR U+1F31
ENCODING 7985
SWIDTH 500 0
DWIDTH 5 0
BBX 5 10 0 -2
BITMAP 
00
00
60
40
00
40
40
20
00
00
ENDCHAR
STARTCHAR U+1F32
ENCODING 7986
SWIDTH 500 0
DWIDTH 5 0
BBX 5 10 0 -2
BITMAP 
00
00
E0
50
00
40
40
20
00
00
ENDCHAR
STARTCHAR U+1F33
ENCODING 7987
SWIDTH 500 0
DWIDTH 5 0
BBX 5 10 0 -2
BITMAP 
00
00
E0
90
00
40
40
20
00
00
ENDCHAR
STARTCHAR U+1F34
ENCODING 7988
SWIDTH 500 0
DWIDTH 5 0
BBX 5 10 0 -2
BITMAP 
00
00
D0
60
00
40
40
20
00
00
ENDCHAR
STARTCHAR U+1F35
ENCODING 7989
SWIDTH 500 0
DWIDTH 5 0
BBX 5 10 0 -2
BITMAP 
00
00
D0
A0
00
40
40
20
00
00
ENDCHAR
STARTCHAR U+1F36
ENCODING 7990
SWIDTH 500 0
DWIDTH 5 0
BBX 5 10 0 -2
BITMAP 
00
00
E0
40
00
40
40
20
00
00
ENDCHAR
STARTCHAR U+1F37
ENCODING 7991
SWIDTH 500 0
DWIDTH 5 0
BBX 5 10 0 -2
BITMAP 
00
00
E0
40
00
40
40
20
00
00
ENDCHAR
STARTCHAR U+1F38
ENCODING 7992
SWIDTH 500 0
DWIDTH 5 0
BBX 5 10 0 -2
BITMAP 
00
00
F0
A0
20
20
20
70
00
00
ENDCHAR
STARTCHAR U+1F39
ENCODING 7993
SWIDTH 500 0
DWIDTH 5 0
BBX 5 10 0 -2
BITMAP 
00
00
F0
A0
20
20
20
70
00
00
ENDCHAR
STARTCHAR U+1F3A
ENCODING 7994
SWIDTH 500 0
DWIDTH 5 0
BBX 5 10 0 -2
BITMAP 
00
00
F0
A0
20
20
20
70
00
00
ENDCHAR
STARTCHAR U+1F3B
ENCODING 7995
SWIDTH 500 0
DWIDTH 5 0
BBX 5 10 0 -2
BITMAP 
00
00
F0
A0
20
20
20
70
00
00
ENDCHAR
STARTCHAR U+1F3C
ENCODING 7996
SWIDTH 500 0
DWIDTH 5 0
BBX 5 10 0 -2
BITMAP 
00
00
F0
A0
20
20
20
70
00
00
ENDCHAR
STARTCHAR U+1F3D
ENCODING 7997
SWIDTH 500 0
DWIDTH 5 0
BBX 5 10 0 -2
BITMAP 
00
00
F0
A0
20
20
20
70
00
00
ENDCHAR
STARTCHAR U+1F3E
ENCODING 7998
SWIDTH 500 0
DWIDTH 5 0
BBX 5 10 0 -2
BITMAP 
00
00
F0
A0
20
20
20
70
00
00
ENDCHAR
STARTCHAR U+1F3F
ENCODING 7999
SWIDTH 500 0
DWIDTH 5 0
BBX 5 10 0 -2
BITMAP 
00
00
F0
A0
20
20
20
70
00
00
ENDCHAR
STARTCHAR U+1F40
ENCODING 8000
SWIDTH 500 0
DWIDTH 5 0
BBX 5 10 0 -2
BITMAP 
00
00
60
20
60
90
90
60
00
00
ENDCHAR
STARTCHAR U+1F41
ENCODING 8001
SWIDTH 500 0
DWIDTH 5 0
BBX 5 10 0 -2
BITMAP 
00
00
60
40
60
90
90
60
00
00
ENDCHAR
STARTCHAR U+1F42
ENCODING 8002
SWIDTH 500 0
DWIDTH 5 0
BBX 5 10 0 -2
BITMAP 
00
00
E0
50
60
90
90
60
00
00
ENDCHAR
STARTCHAR U+1F43
ENCODING 8003
SWIDTH 500 0
DWIDTH 5 0
BBX 5 10 0 -2
BITMAP 
00
00
E0
90
60
90
90
60
00
00
ENDCHAR
STARTCHAR U+1F44
ENCODING 8004
SWIDTH 500 0
DWIDTH 5 0
BBX 5 10 0 -2
BITMAP 
00
00
D0
60
60
90
90
60
00
00
ENDCHAR
STARTCHAR U+1F45
ENCODING 8005
SWIDTH 500 0
DWIDTH 5 0
BBX 5 10 0 -2
BITMAP 
00
00
D0
A0
60
90
90
60
00
00
ENDCHAR
STARTCHAR U+1F48
ENCODING 8008
SWIDTH 500 0
DWIDTH 5 0
BBX 5 10 0 -2
BITMAP 
00
00
A0
D0
50
50
50
20
00
00
ENDCHAR
STARTCHAR U+1F49
ENCODING 8009
SWIDTH 500 0
DWIDTH 5 0
BBX 5 10 0 -2
BITMAP 
00
00
A0
D0
50
50
50
20
00
00
ENDCHAR
STARTCHAR U+1F4A
ENCODING 8010
SWIDTH 500 0
DWIDTH 5 0
BBX 5 10 0 -2
BITMAP 
00
00
A0
D0
50
50
50
20
00
00
ENDCHAR
STARTCHAR U+1F4B
ENCODING 8011
SWIDTH 500 0
DWIDTH 5 0
BBX 5 10 0 -2
BITMAP 
00
00
A0
D0
50
50
50
20
00
00
ENDCHAR
STARTCHAR U+1F4C
ENCODING 8012
SWIDTH 500 0
DWIDTH 5 0
BBX 5 10 0 -2
BITMAP 
00
00
A0
D0
50
50
50
20
00
00
ENDCHAR
STARTCHAR U+1F4D
ENCODING 8013
SWIDTH 500 0
DWIDTH 5 0
BBX 5 10 0 -2
BITMAP 
00
00
A0
D0
50
50
50
20
00
00
ENDCHAR
STARTCHAR U+1F50
ENCODING 8016
SWIDTH 500 0
DWIDTH 5 0
BBX 5 10 0 -2
BITMAP 
00
00
60
20
90
90
90
60
00
00
ENDCHAR
STARTCHAR U+1F51
ENCODING 8017
SWIDTH 500 0
DWIDTH 5 0
BBX 5 10 0 -2
BITMAP 
00
00
60
40
90
90
90
60
00
00
ENDCHAR
STARTCHAR U+1F52
ENCODING 8018
SWIDTH 500 0
DWIDTH 5 0
BBX 5 10 0 -2
BITMAP 
00
00
E0
50
90
90
90
60
00
00
ENDCHAR
STARTCHAR U+1F53
ENCODING 8019
SWIDTH 500 0
DWIDTH 5 0
BBX 5 10 0 -2
BITMAP 
00
00
E0
90
90
90
90
60
00
00
ENDCHAR
STARTCHAR U+1F54
ENCODING 8020
SWIDTH 500 0
DWIDTH 5 0
BBX 5 10 0 -2
BITMAP 
00
00
D0
60
90
90
90
60
00
00
ENDCHAR
STARTCHAR U+1F55
ENCODING 8021
SWIDTH 500 0
DWIDTH 5 0
BBX 5 10 0 -2
BITMAP 
00
00
D0
A0
90
90
90
60
00
00
ENDCHAR
STARTCHAR U+1F56
ENCODING 8022
SWIDTH 500 0
DWIDTH 5 0
BBX 5 10 0 -2
BITMAP 
00
00
70
20
90
90
90
60
00
00
ENDCHAR
STARTCHAR U+1F57
ENCODING 8023
SWIDTH 500 0
DWIDTH 5 0
BBX 5 10 0 -2
BITMAP 
00
00
70
20
90
90
90
60
00
00
ENDCHAR
STARTCHAR U+1F59
ENCODING 8025
SWIDTH 500 0
DWIDTH 5 0
BBX 5 10 0 -2
BITMAP 
00
00
D0
D0
50
20
20
20
00
00
ENDCHAR
STARTCHAR U+1F5B
ENCODING 8027
SWIDTH 500 0
DWIDTH 5 0
BBX 5 10 0 -2
BITMAP 
00
00
D0
D0
50
20
20
20
00
00
ENDCHAR
STARTCHAR U+1F5D
ENCODING 8029
SWIDTH 500 0
DWIDTH 5 0
BBX 5 10 0 -2
BITMAP 
00
00
D0
D0
50
20
20
20
00
00
ENDCHAR
STARTCHAR U+1F5F
ENCODING 8031
SWIDTH 500 0
DWIDTH 5 0
BBX 5 10 0 -2
BITMAP 
00
00
D0
D0
50
20
20
20
00
00
ENDCHAR
STARTCHAR U+1F60
ENCODING 8032
SWIDTH 500 0
DWIDTH 5 0
BBX 5 10 0 -2
BITMAP 
00
00
60
20
90
90
F0
F0
00
00
ENDCHAR
STARTCHAR U+1F61
ENCODING 8033
SWIDTH 500 0
DWIDTH 5 0
BBX 5 10 0 -2
BITMAP 
00
00
60
40
90
90
F0
F0
00
00
ENDCHAR
STARTCHAR U+1F62
ENCODING 8034
SWIDTH 500 0
DWIDTH 5 0
BBX 5 10 0 -2
BITMAP 
00
00
E0
50
90
90
F0
F0
00
00
ENDCHAR
STARTCHAR U+1F63
ENCODING 8035
SWIDTH 500 0
DWIDTH 5 0
BBX 5 10 0 -2
BITMAP 
00
00
E0
90
90
90
F0
F0
00
00
ENDCHAR
STARTCHAR U+1F64
ENCODING 8036
SWIDTH 500 0
DWIDTH 5 0
BBX 5 10 0 -2
BITMAP 
00
00
D0
60
90
90
F0
F0
00
00
ENDCHAR
STARTCHAR U+1F65
ENCODING 8037
SWIDTH 500 0
DWIDTH 5 0
BBX 5 10 0 -2
BITMAP 
00
00
D0
A0
90
90
F0
F0
00
00
ENDCHAR
STARTCHAR U+1F66
ENCODING 8038
SWIDTH 500 0
DWIDTH 5 0
BBX 5 10 0 -2
BITMAP 
00
00
70
20
90
90
F0
F0
00
00
ENDCHAR
STARTCHAR U+1F67
ENCODING 8039
SWIDTH 500 0
DWIDTH 5 0
BBX 5 10 0 -2
BITMAP 
00
00
70
20
90
90
F0
F0
00
00
ENDCHAR
STARTCHAR U+1F68
ENCODING 8040
SWIDTH 500 0
DWIDTH 5 0
BBX 5 10 0 -2
BITMAP 
00
00
A0
D0
50
50
20
50
00
00
ENDCHAR
STARTCHAR U+1F69
ENCODING 8041
SWIDTH 500 0
DWIDTH 5 0
BBX 5 10 0 -2
BITMAP 
00
00
A0
D0
50
50
20
50
00
00
ENDCHAR
STARTCHAR U+1F6A
ENCODING 8042
SWIDTH 500 0
DWIDTH 5 0
BBX 5 10 0 -2
BITMAP 
00
00
A0
D0
50
50
20
50
00
00
ENDCHAR
STARTCHAR U+1F6B
ENCODING 8043
SWIDTH 500 0
DWIDTH 5 0
BBX 5 10 0 -2
BITMAP 
00
00
A0
D0
50
50
20
50
00
00
ENDCHAR
STARTCHAR U+1F6C
ENCODING 8044
SWIDTH 500 0
DWIDTH 5 0
BBX 5 10 0 -2
BITMAP 
00
00
A0
D0
50
50
20
50
00
00
ENDCHAR
STARTCHAR U+1F6D
ENCODING 8045
SWIDTH 500 0
DWIDTH 5 0
BBX 5 10 0 -2
BITMAP 
00
00
A0
D0
50
50
20
50
00
00
ENDCHAR
STARTCHAR U+1F6E
ENCODING 8046
SWIDTH 500 0
DWIDTH 5 0
BBX 5 10 0 -2
BITMAP 
00
00
A0
D0
50
50
20
50
00
00
ENDCHAR
STARTCHAR U+1F6F
ENCODING 8047
SWIDTH 500 0
DWIDTH 5 0
BBX 5 10 0 -2
BITMAP 
00
00
A0
D0
50
50
20
50
00
00
ENDCHAR
STARTCHAR U+1F70
ENCODING 8048
SWIDTH 500 0
DWIDTH 5 0
BBX 5 10 0 -2
BITMAP 
00
00
40
20
70
90
B0
50
00
00
ENDCHAR
STARTCHAR U+1F71
ENCODING 8049
SWIDTH 500 0
DWIDTH 5 0
BBX 5 10 0 -2
BITMAP 
00
00
10
20
70
90
B0
50
00
00
ENDCHAR
STARTCHAR U+1F72
ENCODING 8050
SWIDTH 500 0
DWIDTH 5 0
BBX 5 10 0 -2
BITMAP 
00
00
40
20
70
20
40
30
00
00
ENDCHAR
STARTCHAR U+1F73
ENCODING 8051
SWIDTH 500 0
DWIDTH 5 0
BBX 5 10 0 -2
BITMAP 
00
00
10
20
70
20
40
30
00
00
ENDCHAR
STARTCHAR U+1F74
ENCODING 8052
SWIDTH 500 0
DWIDTH 5 0
BBX 5 10 0 -2
BITMAP 
00
00
80
40
E0
90
90
90
10
00
ENDCHAR
STARTCHAR U+1F75
ENCODING 8053
SWIDTH 500 0
DWIDTH 5 0
BBX 5 10 0 -2
BITMAP 
00
00
20
40
E0
90
90
90
10
00
ENDCHAR
STARTCHAR U+1F76
ENCODING 8054
SWIDTH 500 0
DWIDTH 5 0
BBX 5 10 0 -2
BITMAP 
00
00
80
40
00
40
40
20
00
00
ENDCHAR
STARTCHAR U+1F77
ENCODING 8055
SWIDTH 500 0
DWIDTH 5 0
BBX 5 10 0 -2
BITMAP 
00
00
20
40
00
40
40
20
00
00
ENDCHAR
STARTCHAR U+1F78
ENCODING 8056
SWIDTH 500 0
DWIDTH 5 0
BBX 5 10 0 -2
BITMAP 
00
00
80
40
60
90
90
60
00
00
ENDCHAR
STARTCHAR U+1F79
ENCODING 8057
SWIDTH 500 0
DWIDTH 5 0
BBX 5 10 0 -2
BITMAP 
00
00
20
40
60
90
90
60
00
00
ENDCHAR
STARTCHAR U+1F7A
ENCODING 8058
SWIDTH 500 0
DWIDTH 5 0
BBX 5 10 0 -2
BITMAP 
00
00
40
20
90
90
90
60
00
00
ENDCHAR
STARTCHAR U+1F7B
ENCODING 8059
SWIDTH 500 0
DWIDTH 5 0
BBX 5 10 0 -2
BITMAP 
00
00
20
40
90
90
90
60
00
00
ENDCHAR
STARTCHAR U+1F7C
ENCODING 8060
SWIDTH 500 0
DWIDTH 5 0
BBX 5 10 0 -2
BITMAP 
00
00
40
20
90
90
F0
F0
00
00
ENDCHAR
STARTCHAR U+1F7D
ENCODING 8061
SWIDTH 500 0
DWIDTH 5 0
BBX 5 10 0 -2
BITMAP 
00
00
20
40
90
90
F0
F0
00
00
ENDCHAR
STARTCHAR U+1F80
ENCODING 8064
SWIDTH 500 0
DWIDTH 5 0
BBX 5 10 0 -2
BITMAP 
00
00
60
20
70
90
B0
50
40
00
ENDCHAR
STARTCHAR U+1F81
ENCODING 8065
SWIDTH 500 0
DWIDTH 5 0
BBX 5 10 0 -2
BITMAP 
00
00
60
40
70
90
B0
50
40
00
ENDCHAR
STARTCHAR U+1F82
ENCODING 8066
SWIDTH 500 0
DWIDTH 5 0
BBX 5 10 0 -2
BITMAP 
00
00
E0
50
70
90
B0
50
40
00
ENDCHAR
STARTCHAR U+1F83
ENCODING 8067
SWIDTH 500 0
DWIDTH 5 0
BBX 5 10 0 -2
BITMAP 
00
00
E0
90
70
90
B0
50
40
00
ENDCHAR
STARTCHAR U+1F84
ENCODING 8068
SWIDTH 500 0
DWIDTH 5 0
BBX 5 10 0 -2
BITMAP 
00
00
D0
60
70
90
B0
50
40
00
ENDCHAR
STARTCHAR U+1F85
ENCODING 8069
SWIDTH 500 0
DWIDTH 5 0
BBX 5 10 0 -2
BITMAP 
00
00
D0
A0
70
90
B0
50
40
00
ENDCHAR
STARTCHAR U+1F86
ENCODING 8070
SWIDTH 500 0
DWIDTH 5 0
BBX 5 10 0 -2
BITMAP 
00
00
70
20
70
90
B0
50
40
00
ENDCHAR
STARTCHAR U+1F87
ENCODING 8071
SWIDTH 500 0
DWIDTH 5 0
BBX 5 10 0 -2
BITMAP 
00
00
70
20
70
90
B0
50
40
00
ENDCHAR
STARTCHAR U+1F88
ENCODING 8072
SWIDTH 500 0
DWIDTH 5 0
BBX 5 10 0 -2
BITMAP 
00
00
A0
D0
50
70
50
50
20
00
ENDCHAR
STARTCHAR U+1F89
ENCODING 8073
SWIDTH 500 0
DWIDTH 5 0
BBX 5 10 0 -2
BITMAP 
00
00
A0
D0
50
70
50
50
20
00
ENDCHAR
STARTCHAR U+1F8A
ENCODING 8074
SWIDTH 500 0
DWIDTH 5 0
BBX 5 10 0 -2
BITMAP 
00
00
A0
D0
50
70
50
50
20
00
ENDCHAR
STARTCHAR U+1F8B
ENCODING 8075
SWIDTH 500 0
DWIDTH 5 0
BBX 5 10 0 -2
BITMAP 
00
00
A0
D0
50
70
50
50
20
00
ENDCHAR
STARTCHAR U+1F8C
ENCODING 8076
SWIDTH 500 0
DWIDTH 5 0
BBX 5 10 0 -2
BITMAP 
00
00
A0
D0
50
70
50
50
20
00
ENDCHAR
STARTCHAR U+1F8D
ENCODING 8077
SWIDTH 500 0
DWIDTH 5 0
BBX 5 10 0 -2
BITMAP 
00
00
A0
D0
50
70
50
50
20
00
ENDCHAR
STARTCHAR U+1F8E
ENCODING 8078
SWIDTH 500 0
DWIDTH 5 0
BBX 5 10 0 -2
BITMAP 
00
00
A0
D0
50
70
50
50
20
00
ENDCHAR
STARTCHAR U+1F8F
ENCODING 8079
SWIDTH 500 0
DWIDTH 5 0
BBX 5 10 0 -2
BITMAP 
00
00
A0
D0
50
70
50
50
20
00
ENDCHAR
STARTCHAR U+1F90
ENCODING 8080
SWIDTH 500 0
DWIDTH 5 0
BBX 5 10 0 -2
BITMAP 
00
00
60
20
E0
90
90
10
90
00
ENDCHAR
STARTCHAR U+1F91
ENCODING 8081
SWIDTH 500 0
DWIDTH 5 0
BBX 5 10 0 -2
BITMAP 
00
00
60
40
E0
90
90
10
90
00
ENDCHAR
STARTCHAR U+1F92
ENCODING 8082
SWIDTH 500 0
DWIDTH 5 0
BBX 5 10 0 -2
BITMAP 
00
00
E0
50
E0
90
90
10
90
00
ENDCHAR
STARTCHAR U+1F93
ENCODING 8083
SWIDTH 500 0
DWIDTH 5 0
BBX 5 10 0 -2
BITMAP 
00
00
E0
90
E0
90
90
10
90
00
ENDCHAR
STARTCHAR U+1F94
ENCODING 8084
SWIDTH 500 0
DWIDTH 5 0
BBX 5 10 0 -2
BITMAP 
00
00
D0
60
E0
90
90
10
90
00
ENDCHAR
STARTCHAR U+1F95
ENCODING 8085
SWIDTH 500 0
DWIDTH 5 0
BBX 5 10 0 -2
BITMAP 
00
00
D0
A0
E0
90
90
10
90
00
ENDCHAR
STARTCHAR U+1F96
ENCODING 8086
SWIDTH 500 0
DWIDTH 5 0
BBX 5 10 0 -2
BITMAP 
00
00
70
20
E0
90
90
10
90
00
ENDCHAR
STARTCHAR U+1F97
ENCODING 8087
SWIDTH 500 0
DWIDTH 5 0
BBX 5 10 0 -2
BITMAP 
00
00
70
20
E0
90
90
10
90
00
ENDCHAR
STARTCHAR U+1F98
ENCODING 8088
SWIDTH 500 0
DWIDTH 5 0
BBX 5 10 0 -2
BITMAP 
00
00
D0
D0
70
50
50
50
20
00
ENDCHAR
STARTCHAR U+1F99
ENCODING 8089
SWIDTH 500 0
DWIDTH 5 0
BBX 5 10 0 -2
BITMAP 
00
00
D0
D0
70
50
50
50
20
00
ENDCHAR
STARTCHAR U+1F9A
ENCODING 8090
SWIDTH 500 0
DWIDTH 5 0
BBX 5 10 0 -2
BITMAP 
00
00
D0
D0
70
50
50
50
20
00
ENDCHAR
STARTCHAR U+1F9B
ENCODING 8091
SWIDTH 500 0
DWIDTH 5 0
BBX 5 10 0 -2
BITMAP 
00
00
D0
D0
70
50
50
50
20
00
ENDCHAR
STARTCHAR U+1F9C
ENCODING 8092
SWIDTH 500 0
DWIDTH 5 0
BBX 5 10 0 -2
BITMAP 
00
00
D0
D0
70
50
50
50
20
00
ENDCHAR
STARTCHAR U+1F9D
ENCODING 8093
SWIDTH 500 0
DWIDTH 5 0
BBX 5 10 0 -2
BITMAP 
00
00
D0
D0
70
50
50
50
20
00
ENDCHAR
STARTCHAR U+1F9E
ENCODING 8094
SWIDTH 500 0
DWIDTH 5 0
BBX 5 10 0 -2
BITMAP 
00
00
D0
D0
70
50
50
50
20
00
ENDCHAR
STARTCHAR U+1F9F
ENCODING 8095
SWIDTH 500 0
DWIDTH 5 0
BBX 5 10 0 -2
BITMAP 
00
00
D0
D0
70
50
50
50
20
00
ENDCHAR
STARTCHAR U+1FA0
ENCODING 8096
SWIDTH 500 0
DWIDTH 5 0
BBX 5 10 0 -2
BITMAP 
00
00
60
20
90
90
F0
F0
40
00
ENDCHAR
STARTCHAR U+1FA1
ENCODING 8097
SWIDTH 500 0
DWIDTH 5 0
BBX 5 10 0 -2
BITMAP 
00
00
60
40
90
90
F0
F0
40
00
ENDCHAR
STARTCHAR U+1FA2
ENCODING 8098
SWIDTH 500 0
DWIDTH 5 0
BBX 5 10 0 -2
BITMAP 
00
00
E0
50
90
90
F0
F0
40
00
ENDCHAR
STARTCHAR U+1FA3
ENCODING 8099
SWIDTH 500 0
DWIDTH 5 0
BBX 5 10 0 -2
BITMAP 
00
00
E0
90
90
90
F0
F0
40
00
ENDCHAR
STARTCHAR U+1FA4
ENCODING 8100
SWIDTH 500 0
DWIDTH 5 0
BBX 5 10 0 -2
BITMAP 
00
00
D0
60
90
90
F0
F0
40
00
ENDCHAR
STARTCHAR U+1FA5
ENCODING 8101
SWIDTH 500 0
DWIDTH 5 0
BBX 5 10 0 -2
BITMAP 
00
00
D0
A0
90
90
F0
F0
40
00
ENDCHAR
STARTCHAR U+1FA6
ENCODING 8102
SWIDTH 500 0
DWIDTH 5 0
BBX 5 10 0 -2
BITMAP 
00
00
70
20
90
90
F0
F0
40
00
ENDCHAR
STARTCHAR U+1FA7
ENCODING 8103
SWIDTH 500 0
DWIDTH 5 0
BBX 5 10 0 -2
BITMAP 
00
00
70
20
90
90
F0
F0
40
00
ENDCHAR
STARTCHAR U+1FA8
ENCODING 8104
SWIDTH 500 0
DWIDTH 5 0
BBX 5 10 0 -2
BITMAP 
00
00
A0
D0
50
50
20
50
20
00
ENDCHAR
STARTCHAR U+1FA9
ENCODING 8105
SWIDTH 500 0
DWIDTH 5 0
BBX 5 10 0 -2
BITMAP 
00
00
A0
D0
50
50
20
50
20
00
ENDCHAR
STARTCHAR U+1FAA
ENCODING 8106
SWIDTH 500 0
DWIDTH 5 0
BBX 5 10 0 -2
BITMAP 
00
00
A0
D0
50
50
20
50
20
00
ENDCHAR
STARTCHAR U+1FAB
ENCODING 8107
SWIDTH 500 0
DWIDTH 5 0
BBX 5 10 0 -2
BITMAP 
00
00
A0
D0
50
50
20
50
20
00
ENDCHAR
STARTCHAR U+1FAC
ENCODING 8108
SWIDTH 500 0
DWIDTH 5 0
BBX 5 10 0 -2
BITMAP 
00
00
A0
D0
50
50
20
50
20
00
ENDCHAR
STARTCHAR U+1FAD
ENCODING 8109
SWIDTH 500 0
DWIDTH 5 0
BBX 5 10 0 -2
BITMAP 
00
00
A0
D0
50
50
20
50
20
00
ENDCHAR
STARTCHAR U+1FAE
ENCODING 8110
SWIDTH 500 0
DWIDTH 5 0
BBX 5 10 0 -2
BITMAP 
00
00
A0
D0
50
50
20
50
20
00
ENDCHAR
STARTCHAR U+1FAF
ENCODING 8111
SWIDTH 500 0
DWIDTH 5 0
BBX 5 10 0 -2
BITMAP 
00
00
A0
D0
50
50
20
50
20
00
ENDCHAR
STARTCHAR U+1FB0
ENCODING 8112
SWIDTH 500 0
DWIDTH 5 0
BBX 5 10 0 -2
BITMAP 
00
00
90
60
70
90
B0
50
00
00
ENDCHAR
STARTCHAR U+1FB1
ENCODING 8113
SWIDTH 500 0
DWIDTH 5 0
BBX 5 10 0 -2
BITMAP 
00
00
F0
00
70
90
B0
50
00
00
ENDCHAR
STARTCHAR U+1FB2
ENCODING 8114
SWIDTH 500 0
DWIDTH 5 0
BBX 5 10 0 -2
BITMAP 
00
00
40
20
70
90
B0
50
40
00
ENDCHAR
STARTCHAR U+1FB3
ENCODING 8115
SWIDTH 500 0
DWIDTH 5 0
BBX 5 10 0 -2
BITMAP 
00
00
00
00
70
90
B0
50
40
00
ENDCHAR
STARTCHAR U+1FB4
ENCODING 8116
SWIDTH 500 0
DWIDTH 5 0
BBX 5 10 0 -2
BITMAP 
00
00
10
20
70
90
B0
50
40
00
ENDCHAR
STARTCHAR U+1FB6
ENCODING 8118
SWIDTH 500 0
DWIDTH 5 0
BBX 5 10 0 -2
BITMAP 
00
00
70
00
70
90
B0
50
00
00
ENDCHAR
STARTCHAR U+1FB7
ENCODING 8119
SWIDTH 500 0
DWIDTH 5 0
BBX 5 10 0 -2
BITMAP 
00
00
70
00
70
90
B0
50
40
00
ENDCHAR
STARTCHAR U+1FB8
ENCODING 8120
SWIDTH 500 0
DWIDTH 5 0
BBX 5 10 0 -2
BITMAP 
00
00
90
60
60
90
F0
90
00
00
ENDCHAR
STARTCHAR U+1FB9
ENCODING 8121
SWIDTH 500 0
DWIDTH 5 0
BBX 5 10 0 -2
BITMAP 
00
00
F0
00
60
90
F0
90
00
00
ENDCHAR
STARTCHAR U+1FBA
ENCODING 8122
SWIDTH 500 0
DWIDTH 5 0
BBX 5 10 0 -2
BITMAP 
00
00
A0
D0
50
70
50
50
00
00
ENDCHAR
STARTCHAR U+1FBB
ENCODING 8123
SWIDTH 500 0
DWIDTH 5 0
BBX 5 10 0 -2
BITMAP 
00
00
A0
D0
50
70
50
50
00
00
ENDCHAR
STARTCHAR U+1FBC
ENCODING 8124
SWIDTH 500 0
DWIDTH 5 0
BBX 5 10 0 -2
BITMAP 
00
00
60
90
90
F0
90
90
40
00
ENDCHAR
STARTCHAR U+1FBD
ENCODING 8125
SWIDTH 500 0
DWIDTH 5 0
BBX 5 10 0 -2
BITMAP 
00
00
60
20
00
00
00
00
00
00
ENDCHAR
STARTCHAR U+1FBE
ENCODING 8126
SWIDTH 500 0
DWIDTH 5 0
BBX 5 10 0 -2
BITMAP 
00
00
00
00
00
40
40
20
00
00
ENDCHAR
STARTCHAR U+1FBF
ENCODING 8127
SWIDTH 500 0
DWIDTH 5 0
BBX 5 10 0 -2
BITMAP 
00
00
60
20
00
00
00
00
00
00
ENDCHAR
STARTCHAR U+1FC0
ENCODING 8128
SWIDTH 500 0
DWIDTH 5 0
BBX 5 10 0 -2
BITMAP 
00
00
E0
00
00
00
00
00
00
00
ENDCHAR
STARTCHAR U+1FC1
ENCODING 8129
SWIDTH 500 0
DWIDTH 5 0
BBX 5 10 0 -2
BITMAP 
00
00
E0
A0
00
00
00
00
00
00
ENDCHAR
STARTCHAR U+1FC2
ENCODING 8130
SWIDTH 500 0
DWIDTH 5 0
BBX 5 10 0 -2
BITMAP 
00
00
80
40
E0
90
90
10
90
00
ENDCHAR
STARTCHAR U+1FC3
ENCODING 8131
SWIDTH 500 0
DWIDTH 5 0
BBX 5 10 0 -2
BITMAP 
00
00
00
00
E0
90
90
10
90
00
ENDCHAR
STARTCHAR U+1FC4
ENCODING 8132
SWIDTH 500 0
DWIDTH 5 0
BBX 5 10 0 -2
BITMAP 
00
00
20
40
E0
90
90
10
90
00
ENDCHAR
STARTCHAR U+1FC6
ENCODING 8134
SWIDTH 500 0
DWIDTH 5 0
BBX 5 10 0 -2
BITMAP 
00
00
70
00
E0
90
90
90
10
00
ENDCHAR
STARTCHAR U+1FC7
ENCODING 8135
SWIDTH 500 0
DWIDTH 5 0
BBX 5 10 0 -2
BITMAP 
00
00
70
00
E0
90
90
10
90
00
ENDCHAR
STARTCHAR U+1FC8
ENCODING 8136
SWIDTH 500 0
DWIDTH 5 0
BBX 5 10 0 -2
BITMAP 
00
00
F0
C0
60
40
40
70
00
00
ENDCHAR
STARTCHAR U+1FC9
ENCODING 8137
SWIDTH 500 0
DWIDTH 5 0
BBX 5 10 0 -2
BITMAP 
00
00
F0
C0
60
40
40
70
00
00
ENDCHAR
STARTCHAR U+1FCA
ENCODING 8138
SWIDTH 500 0
DWIDTH 5 0
BBX 5 10 0 -2
BITMAP 
00
00
D0
D0
70
50
50
50
00
00
ENDCHAR
STARTCHAR U+1FCB
ENCODING 8139
SWIDTH 500 0
DWIDTH 5 0
BBX 5 10 0 -2
BITMAP 
00
00
D0
D0
70
50
50
50
00
00
ENDCHAR
STARTCHAR U+1FCC
ENCODING 8140
SWIDTH 500 0
DWIDTH 5 0
BBX 5 10 0 -2
BITMAP 
00
00
90
90
F0
90
90
90
40
00
ENDCHAR
STARTCHAR U+1FCD
ENCODING 8141
SWIDTH 500 0
DWIDTH 5 0
BBX 5 10 0 -2
BITMAP 
00
00
E0
50
00
00
00
00
00
00
ENDCHAR
STARTCHAR U+1FCE
ENCODING 8142
SWIDTH 500 0
DWIDTH 5 0
BBX 5 10 0 -2
BITMAP 
00
00
D0
60
00
00
00
00
00
00
ENDCHAR
STARTCHAR U+1FCF
ENCODING 8143
SWIDTH 500 0
DWIDTH 5 0
BBX 5 10 0 -2
BITMAP 
00
00
E0
40
00
00
00
00
00
00
ENDCHAR
STARTCHAR U+1FD0
ENCODING 8144
SWIDTH 500 0
DWIDTH 5 0
BBX 5 10 0 -2
BITMAP 
00
00
90
60
40
40
40
20
00
00
ENDCHAR
STARTCHAR U+1FD1
ENCODING 8145
SWIDTH 500 0
DWIDTH 5 0
BBX 5 10 0 -2
BITMAP 
00
00
F0
00
40
40
40
20
00
00
ENDCHAR
STARTCHAR U+1FD2
ENCODING 8146
SWIDTH 500 0
DWIDTH 5 0
BBX 5 10 0 -2
BITMAP 
00
00
D0
20
00
20
20
10
00
00
ENDCHAR
STARTCHAR U+1FD3
ENCODING 8147
SWIDTH 500 0
DWIDTH 5 0
BBX 5 10 0 -2
BITMAP 
00
00
B0
40
00
40
40
20
00
00
ENDCHAR
STARTCHAR U+1FD6
ENCODING 8150
SWIDTH 500 0
DWIDTH 5 0
BBX 5 10 0 -2
BITMAP 
00
00
E0
00
40
40
40
20
00
00
ENDCHAR
STARTCHAR U+1FD7
ENCODING 8151
SWIDTH 500 0
DWIDTH 5 0
BBX 5 10 0 -2
BITMAP 
00
00
E0
A0
00
40
40
20
00
00
ENDCHAR
STARTCHAR U+1FD8
ENCODING 8152
SWIDTH 500 0
DWIDTH 5 0
BBX 5 10 0 -2
BITMAP 
00
00
90
60
70
20
20
70
00
00
ENDCHAR
STARTCHAR U+1FD9
ENCODING 8153
SWIDTH 500 0
DWIDTH 5 0
BBX 5 10 0 -2
BITMAP 
00
00
70
00
70
20
20
70
00
00
ENDCHAR
STARTCHAR U+1FDA
ENCODING 8154
SWIDTH 500 0
DWIDTH 5 0
BBX 5 10 0 -2
BITMAP 
00
00
F0
A0
20
20
20
70
00
00
ENDCHAR
STARTCHAR U+1FDB
ENCODING 8155
SWIDTH 500 0
DWIDTH 5 0
BBX 5 10 0 -2
BITMAP 
00
00
F0
A0
20
20
20
70
00
00
ENDCHAR
STARTCHAR U+1FDD
ENCODING 8157
SWIDTH 500 0
DWIDTH 5 0
BBX 5 10 0 -2
BITMAP 
00
00
E0
90
00
00
00
00
00
00
ENDCHAR
STARTCHAR U+1FDE
ENCODING 8158
SWIDTH 500 0
DWIDTH 5 0
BBX 5 10 0 -2
BITMAP 
00
00
D0
A0
00
00
00
00
00
00
ENDCHAR
STARTCHAR U+1FDF
ENCODING 8159
SWIDTH 500 0
DWIDTH 5 0
BBX 5 10 0 -2
BITMAP 
00
00
E0
40
00
00
00
00
00
00
ENDCHAR
STARTCHAR U+1FE0
ENCODING 8160
SWIDTH 500 0
DWIDTH 5 0
BBX 5 10 0 -2
BITMAP 
00
00
90
60
90
90
90
60
00
00
ENDCHAR
STARTCHAR U+1FE1
ENCODING 8161
SWIDTH 500 0
DWIDTH 5 0
BBX 5 10 0 -2
BITMAP 
00
00
F0
00
90
90
90
60
00
00
ENDCHAR
STARTCHAR U+1FE2
ENCODING 8162
SWIDTH 500 0
DWIDTH 5 0
BBX 5 10 0 -2
BITMAP 
00
00
D0
20
90
90
90
60
00
00
ENDCHAR
STARTCHAR U+1FE3
ENCODING 8163
SWIDTH 500 0
DWIDTH 5 0
BBX 5 10 0 -2
BITMAP 
00
00
B0
40
90
90
90
60
00
00
ENDCHAR
STARTCHAR U+1FE4
ENCODING 8164
SWIDTH 500 0
DWIDTH 5 0
BBX 5 10 0 -2
BITMAP 
00
00
60
20
60
90
90
E0
80
00
ENDCHAR
STARTCHAR U+1FE5
ENCODING 8165
SWIDTH 500 0
DWIDTH 5 0
BBX 5 10 0 -2
BITMAP 
00
00
60
40
60
90
90
E0
80
00
ENDCHAR
STARTCHAR U+1FE6
ENCODING 8166
SWIDTH 500 0
DWIDTH 5 0
BBX 5 10 0 -2
BITMAP 
00
00
70
00
90
90
90
60
00
00
ENDCHAR
STARTCHAR U+1FE7
ENCODING 8167
SWIDTH 500 0
DWIDTH 5 0
BBX 5 10 0 -2
BITMAP 
00
00
F0
90
00
90
90
60
00
00
ENDCHAR
STARTCHAR U+1FE8
ENCODING 8168
SWIDTH 500 0
DWIDTH 5 0
BBX 5 10 0 -2
BITMAP 
00
00
90
60
A0
A0
40
40
00
00
ENDCHAR
STARTCHAR U+1FE9
ENCODING 8169
SWIDTH 500 0
DWIDTH 5 0
BBX 5 10 0 -2
BITMAP 
00
00
F0
00
A0
A0
40
40
00
00
ENDCHAR
STARTCHAR U+1FEA
ENCODING 8170
SWIDTH 500 0
DWIDTH 5 0
BBX 5 10 0 -2
BITMAP 
00
00
D0
D0
50
20
20
20
00
00
ENDCHAR
STARTCHAR U+1FEB
ENCODING 8171
SWIDTH 500 0
DWIDTH 5 0
BBX 5 10 0 -2
BITMAP 
00
00
D0
D0
50
20
20
20
00
00
ENDCHAR
STARTCHAR U+1FEC
ENCODING 8172
SWIDTH 500 0
DWIDTH 5 0
BBX 5 10 0 -2
BITMAP 
00
00
E0
D0
50
60
40
40
00
00
ENDCHAR
STARTCHAR U+1FED
ENCODING 8173
SWIDTH 500 0
DWIDTH 5 0
BBX 5 10 0 -2
BITMAP 
00
00
D0
20
00
00
00
00
00
00
ENDCHAR
STARTCHAR U+1FEE
ENCODING 8174
SWIDTH 500 0
DWIDTH 5 0
BBX 5 10 0 -2
BITMAP 
00
00
B0
40
00
00
00
00
00
00
ENDCHAR
STARTCHAR U+1FEF
ENCODING 8175
SWIDTH 500 0
DWIDTH 5 0
BBX 5 10 0 -2
BITMAP 
00
00
40
20
00
00
00
00
00
00
ENDCHAR
STARTCHAR U+1FF2
ENCODING 8178
SWIDTH 500 0
DWIDTH 5 0
BBX 5 10 0 -2
BITMAP 
00
00
40
20
90
90
F0
F0
40
00
ENDCHAR
STARTCHAR U+1FF3
ENCODING 8179
SWIDTH 500 0
DWIDTH 5 0
BBX 5 10 0 -2
BITMAP 
00
00
00
00
90
90
F0
F0
40
00
ENDCHAR
STARTCHAR U+1FF4
ENCODING 8180
SWIDTH 500 0
DWIDTH 5 0
BBX 5 10 0 -2
BITMAP 
00
00
20
40
90
90
F0
F0
40
00
ENDCHAR
STARTCHAR U+1FF6
ENCODING 8182
SWIDTH 500 0
DWIDTH 5 0
BBX 5 10 0 -2
BITMAP 
00
00
70
00
90
90
F0
F0
00
00
ENDCHAR
STARTCHAR U+1FF7
ENCODING 8183
SWIDTH 500 0
DWIDTH 5 0
BBX 5 10 0 -2
BITMAP 
00
00
70
00
90
90
F0
F0
40
00
ENDCHAR
STARTCHAR U+1FF8
ENCODING 8184
SWIDTH 500 0
DWIDTH 5 0
BBX 5 10 0 -2
BITMAP 
00
00
A0
D0
50
50
50
20
00
00
ENDCHAR
STARTCHAR U+1FF9
ENCODING 8185
SWIDTH 500 0
DWIDTH 5 0
BBX 5 10 0 -2
BITMAP 
00
00
A0
D0
50
50
50
20
00
00
ENDCHAR
STARTCHAR U+1FFA
ENCODING 8186
SWIDTH 500 0
DWIDTH 5 0
BBX 5 10 0 -2
BITMAP 
00
00
A0
D0
50
50
20
50
00
00
ENDCHAR
STARTCHAR U+1FFB
ENCODING 8187
SWIDTH 500 0
DWIDTH 5 0
BBX 5 10 0 -2
BITMAP 
00
00
A0
D0
50
50
20
50
00
00
ENDCHAR
STARTCHAR U+1FFC
ENCODING 8188
SWIDTH 500 0
DWIDTH 5 0
BBX 5 10 0 -2
BITMAP 
00
00
20
50
50
50
20
50
20
00
ENDCHAR
STARTCHAR U+1FFD
ENCODING 8189
SWIDTH 500 0
DWIDTH 5 0
BBX 5 10 0 -2
BITMAP 
00
00
20
40
00
00
00
00
00
00
ENDCHAR
STARTCHAR U+1FFE
ENCODING 8190
SWIDTH 500 0
DWIDTH 5 0
BBX 5 10 0 -2
BITMAP 
00
00
60
40
00
00
00
00
00
00
ENDCHAR
STARTCHAR U+2010
ENCODING 8208
SWIDTH 500 0
DWIDTH 5 0
BBX 5 10 0 -2
BITMAP 
00
00
00
00
00
70
00
00
00
00
ENDCHAR
STARTCHAR U+2011
ENCODING 8209
SWIDTH 500 0
DWIDTH 5 0
BBX 5 10 0 -2
BITMAP 
00
00
00
00
00
70
00
00
00
00
ENDCHAR
STARTCHAR U+2012
ENCODING 8210
SWIDTH 500 0
DWIDTH 5 0
BBX 5 10 0 -2
BITMAP 
00
00
00
00
00
F0
00
00
00
00
ENDCHAR
STARTCHAR U+2013
ENCODING 8211
SWIDTH 500 0
DWIDTH 5 0
BBX 5 10 0 -2
BITMAP 
00
00
00
00
00
F0
00
00
00
00
ENDCHAR
STARTCHAR U+2014
ENCODING 8212
SWIDTH 500 0
DWIDTH 5 0
BBX 5 10 0 -2
BITMAP 
00
00
00
00
00
F8
00
00
00
00
ENDCHAR
STARTCHAR U+2015
ENCODING 8213
SWIDTH 500 0
DWIDTH 5 0
BBX 5 10 0 -2
BITMAP 
00
00
00
00
00
F8
00
00
00
00
ENDCHAR
STARTCHAR U+2016
ENCODING 8214
SWIDTH 500 0
DWIDTH 5 0
BBX 5 10 0 -2
BITMAP 
00
00
50
50
50
50
50
50
00
00
ENDCHAR
STARTCHAR U+2017
ENCODING 8215
SWIDTH 500 0
DWIDTH 5 0
BBX 5 10 0 -2
BITMAP 
00
00
00
00
00
00
F8
00
F8
00
ENDCHAR
STARTCHAR U+2018
ENCODING 8216
SWIDTH 500 0
DWIDTH 5 0
BBX 5 10 0 -2
BITMAP 
00
20
40
60
00
00
00
00
00
00
ENDCHAR
STARTCHAR U+2019
ENCODING 8217
SWIDTH 500 0
DWIDTH 5 0
BBX 5 10 0 -2
BITMAP 
00
60
20
40
00
00
00
00
00
00
ENDCHAR
STARTCHAR U+201A
ENCODING 8218
SWIDTH 500 0
DWIDTH 5 0
BBX 5 10 0 -2
BITMAP 
00
00
00
00
00
00
60
20
40
00
ENDCHAR
STARTCHAR U+201B
ENCODING 8219
SWIDTH 500 0
DWIDTH 5 0
BBX 5 10 0 -2
BITMAP 
00
60
40
20
00
00
00
00
00
00
ENDCHAR
STARTCHAR U+201C
ENCODING 8220
SWIDTH 500 0
DWIDTH 5 0
BBX 5 10 0 -2
BITMAP 
00
48
90
D8
00
00
00
00
00
00
ENDCHAR
STARTCHAR U+201D
ENCODING 8221
SWIDTH 500 0
DWIDTH 5 0
BBX 5 10 0 -2
BITMAP 
00
D8
48
90
00
00
00
00
00
00
ENDCHAR
STARTCHAR U+201E
ENCODING 8222
SWIDTH 500 0
DWIDTH 5 0
BBX 5 10 0 -2
BITMAP 
00
00
00
00
00
00
D8
48
90
00
ENDCHAR
STARTCHAR U+201F
ENCODING 8223
SWIDTH 500 0
DWIDTH 5 0
BBX 5 10 0 -2
BITMAP 
00
D8
90
48
00
00
00
00
00
00
ENDCHAR
STARTCHAR U+2020
ENCODING 8224
SWIDTH 500 0
DWIDTH 5 0
BBX 5 10 0 -2
BITMAP 
00
00
20
70
20
20
20
20
00
00
ENDCHAR
STARTCHAR U+2021
ENCODING 8225
SWIDTH 500 0
DWIDTH 5 0
BBX 5 10 0 -2
BITMAP 
00
00
20
70
20
70
20
20
00
00
ENDCHAR
STARTCHAR U+2022
ENCODING 8226
SWIDTH 500 0
DWIDTH 5 0
BBX 5 10 0 -2
BITMAP 
00
00
00
00
60
F0
F0
60
00
00
ENDCHAR
STARTCHAR U+2023
ENCODING 8227
SWIDTH 500 0
DWIDTH 5 0
BBX 5 10 0 -2
BITMAP 
00
00
00
40
60
70
60
40
00
00
ENDCHAR
STARTCHAR U+2024
ENCODING 8228
SWIDTH 500 0
DWIDTH 5 0
BBX 5 10 0 -2
BITMAP 
00
00
00
00
00
00
00
20
00
00
ENDCHAR
STARTCHAR U+2025
ENCODING 8229
SWIDTH 500 0
DWIDTH 5 0
BBX 5 10 0 -2
BITMAP 
00
00
00
00
00
00
00
50
00
00
ENDCHAR
STARTCHAR U+2026
ENCODING 8230
SWIDTH 500 0
DWIDTH 5 0
BBX 5 10 0 -2
BITMAP 
00
00
00
00
00
00
00
A8
00
00
ENDCHAR
STARTCHAR U+2027
ENCODING 8231
SWIDTH 500 0
DWIDTH 5 0
BBX 5 10 0 -2
BITMAP 
00
00
00
00
00
60
00
00
00
00
ENDCHAR
STARTCHAR U+2030
ENCODING 8240
SWIDTH 500 0
DWIDTH 5 0
BBX 5 10 0 -2
BITMAP 
00
00
80
A0
40
A8
28
00
00
00
ENDCHAR
STARTCHAR U+2032
ENCODING 8242
SWIDTH 500 0
DWIDTH 5 0
BBX 5 10 0 -2
BITMAP 
00
00
20
20
40
00
00
00
00
00
ENDCHAR
STARTCHAR U+2033
ENCODING 8243
SWIDTH 500 0
DWIDTH 5 0
BBX 5 10 0 -2
BITMAP 
00
00
50
50
A0
00
00
00
00
00
ENDCHAR
STARTCHAR U+2034
ENCODING 8244
SWIDTH 500 0
DWIDTH 5 0
BBX 5 10 0 -2
BITMAP 
00
00
A8
A8
D0
00
00
00
00
00
ENDCHAR
STARTCHAR U+2035
ENCODING 8245
SWIDTH 500 0
DWIDTH 5 0
BBX 5 10 0 -2
BITMAP 
00
00
40
40
20
00
00
00
00
00
ENDCHAR
STARTCHAR U+2036
ENCODING 8246
SWIDTH 500 0
DWIDTH 5 0
BBX 5 10 0 -2
BITMAP 
00
00
A0
A0
50
00
00
00
00
00
ENDCHAR
STARTCHAR U+2037
ENCODING 8247
SWIDTH 500 0
DWIDTH 5 0
BBX 5 10 0 -2
BITMAP 
00
00
E0
E0
70
00
00
00
00
00
ENDCHAR
STARTCHAR U+2039
ENCODING 8249
SWIDTH 500 0
DWIDTH 5 0
BBX 5 10 0 -2
BITMAP 
00
00
00
00
20
40
20
00
00
00
ENDCHAR
STARTCHAR U+203A
ENCODING 8250
SWIDTH 500 0
DWIDTH 5 0
BBX 5 10 0 -2
BITMAP 
00
00
00
00
40
20
40
00
00
00
ENDCHAR
STARTCHAR U+203B
ENCODING 8251
SWIDTH 500 0
DWIDTH 5 0
BBX 5 10 0 -2
BITMAP 
00
00
68
50
30
68
30
50
68
00
ENDCHAR
STARTCHAR U+203C
ENCODING 8252
SWIDTH 500 0
DWIDTH 5 0
BBX 5 10 0 -2
BITMAP 
00
00
50
50
50
50
00
50
00
00
ENDCHAR
STARTCHAR U+203D
ENCODING 8253
SWIDTH 500 0
DWIDTH 5 0
BBX 5 10 0 -2
BITMAP 
00
00
20
70
30
20
00
20
00
00
ENDCHAR
STARTCHAR U+203E
ENCODING 8254
SWIDTH 500 0
DWIDTH 5 0
BBX 5 10 0 -2
BITMAP 
00
F8
00
00
00
00
00
00
00
00
ENDCHAR
STARTCHAR U+203F
ENCODING 8255
SWIDTH 500 0
DWIDTH 5 0
BBX 5 10 0 -2
BITMAP 
00
00
00
00
00
00
00
00
40
70
ENDCHAR
STARTCHAR U+2042
ENCODING 8258
SWIDTH 500 0
DWIDTH 5 0
BBX 5 10 0 -2
BITMAP 
00
20
30
30
60
70
F8
58
F8
50
ENDCHAR
STARTCHAR U+2044
ENCODING 8260
SWIDTH 500 0
DWIDTH 5 0
BBX 5 10 0 -2
BITMAP 
00
00
10
20
20
40
40
80
00
00
ENDCHAR
STARTCHAR U+2048
ENCODING 8264
SWIDTH 500 0
DWIDTH 5 0
BBX 5 10 0 -2
BITMAP 
00
78
78
78
38
50
00
00
50
00
ENDCHAR
STARTCHAR U+2049
ENCODING 8265
SWIDTH 500 0
DWIDTH 5 0
BBX 5 10 0 -2
BITMAP 
00
50
78
78
50
50
00
00
50
00
ENDCHAR
STARTCHAR U+2070
ENCODING 8304
SWIDTH 500 0
DWIDTH 5 0
BBX 5 10 0 -2
BITMAP 
00
20
50
50
50
20
00
00
00
00
ENDCHAR
STARTCHAR U+2074
ENCODING 8308
SWIDTH 500 0
DWIDTH 5 0
BBX 5 10 0 -2
BITMAP 
00
40
40
60
70
20
00
00
00
00
ENDCHAR
STARTCHAR U+2075
ENCODING 8309
SWIDTH 500 0
DWIDTH 5 0
BBX 5 10 0 -2
BITMAP 
00
70
40
60
10
60
00
00
00
00
ENDCHAR
STARTCHAR U+2076
ENCODING 8310
SWIDTH 500 0
DWIDTH 5 0
BBX 5 10 0 -2
BITMAP 
00
30
40
60
50
20
00
00
00
00
ENDCHAR
STARTCHAR U+2077
ENCODING 8311
SWIDTH 500 0
DWIDTH 5 0
BBX 5 10 0 -2
BITMAP 
00
70
10
20
20
20
00
00
00
00
ENDCHAR
STARTCHAR U+2078
ENCODING 8312
SWIDTH 500 0
DWIDTH 5 0
BBX 5 10 0 -2
BITMAP 
00
20
50
20
50
20
00
00
00
00
ENDCHAR
STARTCHAR U+2079
ENCODING 8313
SWIDTH 500 0
DWIDTH 5 0
BBX 5 10 0 -2
BITMAP 
00
20
50
30
10
60
00
00
00
00
ENDCHAR
STARTCHAR U+207A
ENCODING 8314
SWIDTH 500 0
DWIDTH 5 0
BBX 5 10 0 -2
BITMAP 
00
00
20
70
20
00
00
00
00
00
ENDCHAR
STARTCHAR U+207B
ENCODING 8315
SWIDTH 500 0
DWIDTH 5 0
BBX 5 10 0 -2
BITMAP 
00
00
00
70
00
00
00
00
00
00
ENDCHAR
STARTCHAR U+207C
ENCODING 8316
SWIDTH 500 0
DWIDTH 5 0
BBX 5 10 0 -2
BITMAP 
00
00
70
00
70
00
00
00
00
00
ENDCHAR
STARTCHAR U+207D
ENCODING 8317
SWIDTH 500 0
DWIDTH 5 0
BBX 5 10 0 -2
BITMAP 
00
20
40
40
40
20
00
00
00
00
ENDCHAR
STARTCHAR U+207E
ENCODING 8318
SWIDTH 500 0
DWIDTH 5 0
BBX 5 10 0 -2
BITMAP 
00
40
20
20
20
40
00
00
00
00
ENDCHAR
STARTCHAR U+207F
ENCODING 8319
SWIDTH 500 0
DWIDTH 5 0
BBX 5 10 0 -2
BITMAP 
00
00
00
60
50
50
00
00
00
00
ENDCHAR
STARTCHAR U+2080
ENCODING 8320
SWIDTH 500 0
DWIDTH 5 0
BBX 5 10 0 -2
BITMAP 
00
00
00
00
20
50
50
50
20
00
ENDCHAR
STARTCHAR U+2081
ENCODING 8321
SWIDTH 500 0
DWIDTH 5 0
BBX 5 10 0 -2
BITMAP 
00
00
00
00
20
60
20
20
70
00
ENDCHAR
STARTCHAR U+2082
ENCODING 8322
SWIDTH 500 0
DWIDTH 5 0
BBX 5 10 0 -2
BITMAP 
00
00
00
00
20
50
10
20
70
00
ENDCHAR
STARTCHAR U+2083
ENCODING 8323
SWIDTH 500 0
DWIDTH 5 0
BBX 5 10 0 -2
BITMAP 
00
00
00
00
60
10
60
10
60
00
ENDCHAR
STARTCHAR U+2084
ENCODING 8324
SWIDTH 500 0
DWIDTH 5 0
BBX 5 10 0 -2
BITMAP 
00
00
00
00
40
40
60
70
20
00
ENDCHAR
STARTCHAR U+2085
ENCODING 8325
SWIDTH 500 0
DWIDTH 5 0
BBX 5 10 0 -2
BITMAP 
00
00
00
00
70
40
60
10
60
00
ENDCHAR
STARTCHAR U+2086
ENCODING 8326
SWIDTH 500 0
DWIDTH 5 0
BBX 5 10 0 -2
BITMAP 
00
00
00
00
30
40
60
50
20
00
ENDCHAR
STARTCHAR U+2087
ENCODING 8327
SWIDTH 500 0
DWIDTH 5 0
BBX 5 10 0 -2
BITMAP 
00
00
00
00
70
10
20
20
20
00
ENDCHAR
STARTCHAR U+2088
ENCODING 8328
SWIDTH 500 0
DWIDTH 5 0
BBX 5 10 0 -2
BITMAP 
00
00
00
00
20
50
20
50
20
00
ENDCHAR
STARTCHAR U+2089
ENCODING 8329
SWIDTH 500 0
DWIDTH 5 0
BBX 5 10 0 -2
BITMAP 
00
00
00
00
20
50
30
10
60
00
ENDCHAR
STARTCHAR U+208A
ENCODING 8330
SWIDTH 500 0
DWIDTH 5 0
BBX 5 10 0 -2
BITMAP 
00
00
00
00
00
20
70
20
00
00
ENDCHAR
STARTCHAR U+208B
ENCODING 8331
SWIDTH 500 0
DWIDTH 5 0
BBX 5 10 0 -2
BITMAP 
00
00
00
00
00
00
70
00
00
00
ENDCHAR
STARTCHAR U+208C
ENCODING 8332
SWIDTH 500 0
DWIDTH 5 0
BBX 5 10 0 -2
BITMAP 
00
00
00
00
00
70
00
70
00
00
ENDCHAR
STARTCHAR U+208D
ENCODING 8333
SWIDTH 500 0
DWIDTH 5 0
BBX 5 10 0 -2
BITMAP 
00
00
00
00
20
40
40
40
20
00
ENDCHAR
STARTCHAR U+208E
ENCODING 8334
SWIDTH 500 0
DWIDTH 5 0
BBX 5 10 0 -2
BITMAP 
00
00
00
00
40
20
20
20
40
00
ENDCHAR
STARTCHAR U+20A3
ENCODING 8355
SWIDTH 500 0
DWIDTH 5 0
BBX 5 10 0 -2
BITMAP 
00
00
F0
80
F0
A0
A0
A0
00
00
ENDCHAR
STARTCHAR U+20A4
ENCODING 8356
SWIDTH 500 0
DWIDTH 5 0
BBX 5 10 0 -2
BITMAP 
00
00
20
50
E0
E0
50
A0
00
00
ENDCHAR
STARTCHAR U+20A7
ENCODING 8359
SWIDTH 500 0
DWIDTH 5 0
BBX 5 10 0 -2
BITMAP 
00
00
70
48
F8
70
40
40
00
00
ENDCHAR
STARTCHAR U+20AB
ENCODING 8363
SWIDTH 500 0
DWIDTH 5 0
BBX 5 10 0 -2
BITMAP 
00
00
10
38
70
90
90
70
F0
00
ENDCHAR
STARTCHAR U+20AC
ENCODING 8364
SWIDTH 500 0
DWIDTH 5 0
BBX 5 10 0 -2
BITMAP 
00
30
40
E0
40
E0
40
30
00
00
ENDCHAR
STARTCHAR U+20AF
ENCODING 8367
SWIDTH 500 0
DWIDTH 5 0
BBX 5 10 0 -2
BITMAP 
00
00
40
60
D0
50
D0
E0
00
00
ENDCHAR
STARTCHAR U+20D0
ENCODING 8400
SWIDTH 500 0
DWIDTH 5 0
BBX 5 10 0 -2
BITMAP 
00
40
F0
00
00
00
00
00
00
00
ENDCHAR
STARTCHAR U+20D1
ENCODING 8401
SWIDTH 500 0
DWIDTH 5 0
BBX 5 10 0 -2
BITMAP 
00
20
F0
00
00
00
00
00
00
00
ENDCHAR
STARTCHAR U+20D2
ENCODING 8402
SWIDTH 500 0
DWIDTH 5 0
BBX 5 10 0 -2
BITMAP 
00
20
20
20
20
20
20
20
20
00
ENDCHAR
STARTCHAR U+20D3
ENCODING 8403
SWIDTH 500 0
DWIDTH 5 0
BBX 5 10 0 -2
BITMAP 
00
00
00
20
20
20
20
20
20
00
ENDCHAR
STARTCHAR U+20D4
ENCODING 8404
SWIDTH 500 0
DWIDTH 5 0
BBX 5 10 0 -2
BITMAP 
00
E0
D0
00
00
00
00
00
00
00
ENDCHAR
STARTCHAR U+20D5
ENCODING 8405
SWIDTH 500 0
DWIDTH 5 0
BBX 5 10 0 -2
BITMAP 
00
70
B0
00
00
00
00
00
00
00
ENDCHAR
STARTCHAR U+20D6
ENCODING 8406
SWIDTH 500 0
DWIDTH 5 0
BBX 5 10 0 -2
BITMAP 
00
40
F0
40
00
00
00
00
00
00
ENDCHAR
STARTCHAR U+20D7
ENCODING 8407
SWIDTH 500 0
DWIDTH 5 0
BBX 5 10 0 -2
BITMAP 
00
20
F0
20
00
00
00
00
00
00
ENDCHAR
STARTCHAR U+2102
ENCODING 8450
SWIDTH 500 0
DWIDTH 5 0
BBX 5 10 0 -2
BITMAP 
00
00
60
B0
A0
A0
B0
60
00
00
ENDCHAR
STARTCHAR U+2103
ENCODING 8451
SWIDTH 500 0
DWIDTH 5 0
BBX 5 10 0 -2
BITMAP 
00
50
E8
48
40
40
40
28
30
00
ENDCHAR
STARTCHAR U+2105
ENCODING 8453
SWIDTH 500 0
DWIDTH 5 0
BBX 5 10 0 -2
BITMAP 
00
40
90
A0
70
28
68
90
00
00
ENDCHAR
STARTCHAR U+2109
ENCODING 8457
SWIDTH 500 0
DWIDTH 5 0
BBX 5 10 0 -2
BITMAP 
78
60
60
38
20
20
20
20
00
00
ENDCHAR
STARTCHAR U+210F
ENCODING 8463
SWIDTH 500 0
DWIDTH 5 0
BBX 5 10 0 -2
BITMAP 
00
60
30
60
70
70
50
50
50
00
ENDCHAR
STARTCHAR U+2113
ENCODING 8467
SWIDTH 500 0
DWIDTH 5 0
BBX 5 10 0 -2
BITMAP 
00
00
20
50
50
60
40
B0
00
00
ENDCHAR
STARTCHAR U+2115
ENCODING 8469
SWIDTH 500 0
DWIDTH 5 0
BBX 5 10 0 -2
BITMAP 
00
00
D0
D0
F0
F0
D0
D0
00
00
ENDCHAR
STARTCHAR U+2116
ENCODING 8470
SWIDTH 500 0
DWIDTH 5 0
BBX 5 10 0 -2
BITMAP 
00
00
C0
B0
A8
B0
A0
B8
00
00
ENDCHAR
STARTCHAR U+211A
ENCODING 8474
SWIDTH 500 0
DWIDTH 5 0
BBX 5 10 0 -2
BITMAP 
00
00
60
D0
D0
D0
F0
60
10
00
ENDCHAR
STARTCHAR U+211D
ENCODING 8477
SWIDTH 500 0
DWIDTH 5 0
BBX 5 10 0 -2
BITMAP 
00
00
E0
D0
D0
E0
D0
D0
00
00
ENDCHAR
STARTCHAR U+2121
ENCODING 8481
SWIDTH 500 0
DWIDTH 5 0
BBX 5 10 0 -2
BITMAP 
00
F0
F0
70
70
70
70
70
F8
00
ENDCHAR
STARTCHAR U+2122
ENCODING 8482
SWIDTH 500 0
DWIDTH 5 0
BBX 5 10 0 -2
BITMAP 
00
70
20
20
00
70
70
50
00
00
ENDCHAR
STARTCHAR U+2124
ENCODING 8484
SWIDTH 500 0
DWIDTH 5 0
BBX 5 10 0 -2
BITMAP 
00
00
F0
50
50
A0
A0
F0
00
00
ENDCHAR
STARTCHAR U+2126
ENCODING 8486
SWIDTH 500 0
DWIDTH 5 0
BBX 5 10 0 -2
BITMAP 
00
00
70
88
88
88
50
D8
00
00
ENDCHAR
STARTCHAR U+2127
ENCODING 8487
SWIDTH 500 0
DWIDTH 5 0
BBX 5 10 0 -2
BITMAP 
00
00
70
20
50
50
50
20
00
00
ENDCHAR
STARTCHAR U+212B
ENCODING 8491
SWIDTH 500 0
DWIDTH 5 0
BBX 5 10 0 -2
BITMAP 
00
30
30
20
30
30
50
70
58
00
ENDCHAR
STARTCHAR U+212E
ENCODING 8494
SWIDTH 500 0
DWIDTH 5 0
BBX 5 10 0 -2
BITMAP 
00
00
60
D0
F0
C0
D0
60
00
00
ENDCHAR
STARTCHAR U+2135
ENCODING 8501
SWIDTH 500 0
DWIDTH 5 0
BBX 5 10 0 -2
BITMAP 
00
50
50
78
70
70
50
50
50
00
ENDCHAR
STARTCHAR U+2153
ENCODING 8531
SWIDTH 500 0
DWIDTH 5 0
BBX 5 10 0 -2
BITMAP 
00
40
40
50
50
20
30
58
48
10
ENDCHAR
STARTCHAR U+2154
ENCODING 8532
SWIDTH 500 0
DWIDTH 5 0
BBX 5 10 0 -2
BITMAP 
00
40
60
50
70
20
30
58
48
10
ENDCHAR
STARTCHAR U+2155
ENCODING 8533
SWIDTH 500 0
DWIDTH 5 0
BBX 5 10 0 -2
BITMAP 
00
40
40
50
50
20
38
50
48
10
ENDCHAR
STARTCHAR U+215B
ENCODING 8539
SWIDTH 500 0
DWIDTH 5 0
BBX 5 10 0 -2
BITMAP 
00
80
80
A0
D0
A0
50
20
00
00
ENDCHAR
STARTCHAR U+215C
ENCODING 8540
SWIDTH 500 0
DWIDTH 5 0
BBX 5 10 0 -2
BITMAP 
00
80
40
90
68
90
28
10
00
00
ENDCHAR
STARTCHAR U+215D
ENCODING 8541
SWIDTH 500 0
DWIDTH 5 0
BBX 5 10 0 -2
BITMAP 
00
C0
80
D0
68
90
28
10
00
00
ENDCHAR
STARTCHAR U+215E
ENCODING 8542
SWIDTH 500 0
DWIDTH 5 0
BBX 5 10 0 -2
BITMAP 
00
C0
40
50
A8
90
28
10
00
00
ENDCHAR
STARTCHAR U+2160
ENCODING 8544
SWIDTH 500 0
DWIDTH 5 0
BBX 5 10 0 -2
BITMAP 
00
20
20
20
20
20
20
20
20
00
ENDCHAR
STARTCHAR U+2161
ENCODING 8545
SWIDTH 500 0
DWIDTH 5 0
BBX 5 10 0 -2
BITMAP 
00
70
50
50
50
50
50
50
70
00
ENDCHAR
STARTCHAR U+2162
ENCODING 8546
SWIDTH 500 0
DWIDTH 5 0
BBX 5 10 0 -2
BITMAP 
00
F8
70
70
70
70
70
70
F8
00
ENDCHAR
STARTCHAR U+2163
ENCODING 8547
SWIDTH 500 0
DWIDTH 5 0
BBX 5 10 0 -2
BITMAP 
00
F8
70
70
70
70
70
70
D0
00
ENDCHAR
STARTCHAR U+2164
ENCODING 8548
SWIDTH 500 0
DWIDTH 5 0
BBX 5 10 0 -2
BITMAP 
00
58
50
70
70
60
30
20
20
00
ENDCHAR
STARTCHAR U+2165
ENCODING 8549
SWIDTH 500 0
DWIDTH 5 0
BBX 5 10 0 -2
BITMAP 
00
F8
50
50
70
70
70
30
38
00
ENDCHAR
STARTCHAR U+2166
ENCODING 8550
SWIDTH 500 0
DWIDTH 5 0
BBX 5 10 0 -2
BITMAP 
00
F8
70
70
70
70
70
50
78
00
ENDCHAR
STARTCHAR U+2167
ENCODING 8551
SWIDTH 500 0
DWIDTH 5 0
BBX 5 10 0 -2
BITMAP 
00
F8
F8
F8
78
78
78
78
78
00
ENDCHAR
STARTCHAR U+2168
ENCODING 8552
SWIDTH 500 0
DWIDTH 5 0
BBX 5 10 0 -2
BITMAP 
00
F8
70
70
70
70
70
70
F8
00
ENDCHAR
STARTCHAR U+2169
ENCODING 8553
SWIDTH 500 0
DWIDTH 5 0
BBX 5 10 0 -2
BITMAP 
00
58
70
70
30
30
30
50
58
00
ENDCHAR
STARTCHAR U+216A
ENCODING 8554
SWIDTH 500 0
DWIDTH 5 0
BBX 5 10 0 -2
BITMAP 
00
F8
50
70
50
70
70
B0
B8
00
ENDCHAR
STARTCHAR U+216B
ENCODING 8555
SWIDTH 500 0
DWIDTH 5 0
BBX 5 10 0 -2
BITMAP 
00
F8
70
70
50
70
70
B0
B8
00
ENDCHAR
STARTCHAR U+2170
ENCODING 8560
SWIDTH 500 0
DWIDTH 5 0
BBX 5 10 0 -2
BITMAP 
00
00
20
00
60
20
20
20
20
00
ENDCHAR
STARTCHAR U+2171
ENCODING 8561
SWIDTH 500 0
DWIDTH 5 0
BBX 5 10 0 -2
BITMAP 
00
00
70
00
70
70
70
70
70
00
ENDCHAR
STARTCHAR U+2172
ENCODING 8562
SWIDTH 500 0
DWIDTH 5 0
BBX 5 10 0 -2
BITMAP 
00
00
70
00
78
70
70
70
78
00
ENDCHAR
STARTCHAR U+2173
ENCODING 8563
SWIDTH 500 0
DWIDTH 5 0
BBX 5 10 0 -2
BITMAP 
00
00
40
00
78
70
70
50
70
00
ENDCHAR
STARTCHAR U+2174
ENCODING 8564
SWIDTH 500 0
DWIDTH 5 0
BBX 5 10 0 -2
BITMAP 
00
00
00
00
50
40
70
20
20
00
ENDCHAR
STARTCHAR U+2175
ENCODING 8565
SWIDTH 500 0
DWIDTH 5 0
BBX 5 10 0 -2
BITMAP 
00
00
10
00
70
70
70
70
38
00
ENDCHAR
STARTCHAR U+2176
ENCODING 8566
SWIDTH 500 0
DWIDTH 5 0
BBX 5 10 0 -2
BITMAP 
00
00
18
00
F8
78
78
78
78
00
ENDCHAR
STARTCHAR U+2177
ENCODING 8567
SWIDTH 500 0
DWIDTH 5 0
BBX 5 10 0 -2
BITMAP 
00
00
38
00
F8
78
78
78
78
00
ENDCHAR
STARTCHAR U+2178
ENCODING 8568
SWIDTH 500 0
DWIDTH 5 0
BBX 5 10 0 -2
BITMAP 
00
00
40
00
78
60
70
70
78
00
ENDCHAR
STARTCHAR U+2179
ENCODING 8569
SWIDTH 500 0
DWIDTH 5 0
BBX 5 10 0 -2
BITMAP 
00
00
00
00
58
70
30
70
58
00
ENDCHAR
STARTCHAR U+217A
ENCODING 8570
SWIDTH 500 0
DWIDTH 5 0
BBX 5 10 0 -2
BITMAP 
00
00
10
00
70
70
70
70
78
00
ENDCHAR
STARTCHAR U+217B
ENCODING 8571
SWIDTH 500 0
DWIDTH 5 0
BBX 5 10 0 -2
BITMAP 
00
00
18
00
F8
78
58
78
F8
00
ENDCHAR
STARTCHAR U+2190
ENCODING 8592
SWIDTH 500 0
DWIDTH 5 0
BBX 5 10 0 -2
BITMAP 
00
00
00
20
40
F8
40
20
00
00
ENDCHAR
STARTCHAR U+2191
ENCODING 8593
SWIDTH 500 0
DWIDTH 5 0
BBX 5 10 0 -2
BITMAP 
00
00
20
70
A8
20
20
20
00
00
ENDCHAR
STARTCHAR U+2192
ENCODING 8594
SWIDTH 500 0
DWIDTH 5 0
BBX 5 10 0 -2
BITMAP 
00
00
00
20
10
F8
10
20
00
00
ENDCHAR
STARTCHAR U+2193
ENCODING 8595
SWIDTH 500 0
DWIDTH 5 0
BBX 5 10 0 -2
BITMAP 
00
00
20
20
20
A8
70
20
00
00
ENDCHAR
STARTCHAR U+2194
ENCODING 8596
SWIDTH 500 0
DWIDTH 5 0
BBX 5 10 0 -2
BITMAP 
00
00
00
00
50
F8
50
00
00
00
ENDCHAR
STARTCHAR U+2195
ENCODING 8597
SWIDTH 500 0
DWIDTH 5 0
BBX 5 10 0 -2
BITMAP 
00
00
20
70
20
20
70
20
00
00
ENDCHAR
STARTCHAR U+2196
ENCODING 8598
SWIDTH 500 0
DWIDTH 5 0
BBX 5 10 0 -2
BITMAP 
00
00
E0
C0
A0
20
10
10
00
00
ENDCHAR
STARTCHAR U+2197
ENCODING 8599
SWIDTH 500 0
DWIDTH 5 0
BBX 5 10 0 -2
BITMAP 
00
00
70
30
50
40
80
80
00
00
ENDCHAR
STARTCHAR U+2198
ENCODING 8600
SWIDTH 500 0
DWIDTH 5 0
BBX 5 10 0 -2
BITMAP 
00
00
80
80
40
50
30
70
00
00
ENDCHAR
STARTCHAR U+2199
ENCODING 8601
SWIDTH 500 0
DWIDTH 5 0
BBX 5 10 0 -2
BITMAP 
00
00
10
10
20
A0
C0
E0
00
00
ENDCHAR
STARTCHAR U+21A4
ENCODING 8612
SWIDTH 500 0
DWIDTH 5 0
BBX 5 10 0 -2
BITMAP 
00
00
00
20
48
F8
48
20
00
00
ENDCHAR
STARTCHAR U+21A5
ENCODING 8613
SWIDTH 500 0
DWIDTH 5 0
BBX 5 10 0 -2
BITMAP 
00
00
20
70
A8
20
20
70
00
00
ENDCHAR
STARTCHAR U+21A6
ENCODING 8614
SWIDTH 500 0
DWIDTH 5 0
BBX 5 10 0 -2
BITMAP 
00
00
00
20
90
F8
90
20
00
00
ENDCHAR
STARTCHAR U+21A7
ENCODING 8615
SWIDTH 500 0
DWIDTH 5 0
BBX 5 10 0 -2
BITMAP 
00
00
70
20
20
A8
70
20
00
00
ENDCHAR
STARTCHAR U+21A8
ENCODING 8616
SWIDTH 500 0
DWIDTH 5 0
BBX 5 10 0 -2
BITMAP 
00
00
20
70
20
20
70
20
70
00
ENDCHAR
STARTCHAR U+21B0
ENCODING 8624
SWIDTH 500 0
DWIDTH 5 0
BBX 5 10 0 -2
BITMAP 
00
00
40
F0
50
10
10
10
00
00
ENDCHAR
STARTCHAR U+21B1
ENCODING 8625
SWIDTH 500 0
DWIDTH 5 0
BBX 5 10 0 -2
BITMAP 
00
00
20
F0
A0
80
80
80
00
00
ENDCHAR
STARTCHAR U+21B2
ENCODING 8626
SWIDTH 500 0
DWIDTH 5 0
BBX 5 10 0 -2
BITMAP 
00
00
10
10
10
50
F0
40
00
00
ENDCHAR
STARTCHAR U+21B3
ENCODING 8627
SWIDTH 500 0
DWIDTH 5 0
BBX 5 10 0 -2
BITMAP 
00
00
80
80
80
A0
F0
20
00
00
ENDCHAR
STARTCHAR U+21B4
ENCODING 8628
SWIDTH 500 0
DWIDTH 5 0
BBX 5 10 0 -2
BITMAP 
00
00
00
E0
20
20
70
20
00
00
ENDCHAR
STARTCHAR U+21B5
ENCODING 8629
SWIDTH 500 0
DWIDTH 5 0
BBX 5 10 0 -2
BITMAP 
00
00
00
10
10
50
F0
40
00
00
ENDCHAR
STARTCHAR U+21BC
ENCODING 8636
SWIDTH 500 0
DWIDTH 5 0
BBX 5 10 0 -2
BITMAP 
00
00
00
20
40
F8
00
00
00
00
ENDCHAR
STARTCHAR U+21BD
ENCODING 8637
SWIDTH 500 0
DWIDTH 5 0
BBX 5 10 0 -2
BITMAP 
00
00
00
00
00
F8
40
20
00
00
ENDCHAR
STARTCHAR U+21BE
ENCODING 8638
SWIDTH 500 0
DWIDTH 5 0
BBX 5 10 0 -2
BITMAP 
00
00
20
30
28
20
20
20
00
00
ENDCHAR
STARTCHAR U+21BF
ENCODING 8639
SWIDTH 500 0
DWIDTH 5 0
BBX 5 10 0 -2
BITMAP 
00
00
20
60
A0
20
20
20
00
00
ENDCHAR
STARTCHAR U+21C0
ENCODING 8640
SWIDTH 500 0
DWIDTH 5 0
BBX 5 10 0 -2
BITMAP 
00
00
00
20
10
F8
00
00
00
00
ENDCHAR
STARTCHAR U+21C1
ENCODING 8641
SWIDTH 500 0
DWIDTH 5 0
BBX 5 10 0 -2
BITMAP 
00
00
00
00
00
F8
10
20
00
00
ENDCHAR
STARTCHAR U+21C2
ENCODING 8642
SWIDTH 500 0
DWIDTH 5 0
BBX 5 10 0 -2
BITMAP 
00
00
20
20
20
28
30
20
00
00
ENDCHAR
STARTCHAR U+21C3
ENCODING 8643
SWIDTH 500 0
DWIDTH 5 0
BBX 5 10 0 -2
BITMAP 
00
00
20
20
20
A0
60
20
00
00
ENDCHAR
STARTCHAR U+21C4
ENCODING 8644
SWIDTH 500 0
DWIDTH 5 0
BBX 5 10 0 -2
BITMAP 
00
00
10
F8
10
40
F8
40
00
00
ENDCHAR
STARTCHAR U+21C6
ENCODING 8646
SWIDTH 500 0
DWIDTH 5 0
BBX 5 10 0 -2
BITMAP 
00
00
40
F8
40
10
F8
10
00
00
ENDCHAR
STARTCHAR U+21CB
ENCODING 8651
SWIDTH 500 0
DWIDTH 5 0
BBX 5 10 0 -2
BITMAP 
00
00
00
40
F0
00
F0
20
00
00
ENDCHAR
STARTCHAR U+21CC
ENCODING 8652
SWIDTH 500 0
DWIDTH 5 0
BBX 5 10 0 -2
BITMAP 
00
00
00
20
F0
00
F0
40
00
00
ENDCHAR
STARTCHAR U+21D0
ENCODING 8656
SWIDTH 500 0
DWIDTH 5 0
BBX 5 10 0 -2
BITMAP 
00
00
20
78
80
78
20
00
00
00
ENDCHAR
STARTCHAR U+21D1
ENCODING 8657
SWIDTH 500 0
DWIDTH 5 0
BBX 5 10 0 -2
BITMAP 
00
00
20
50
D8
50
50
50
00
00
ENDCHAR
STARTCHAR U+21D2
ENCODING 8658
SWIDTH 500 0
DWIDTH 5 0
BBX 5 10 0 -2
BITMAP 
00
00
20
F0
08
F0
20
00
00
00
ENDCHAR
STARTCHAR U+21D3
ENCODING 8659
SWIDTH 500 0
DWIDTH 5 0
BBX 5 10 0 -2
BITMAP 
00
00
50
50
50
D8
50
20
00
00
ENDCHAR
STARTCHAR U+21D4
ENCODING 8660
SWIDTH 500 0
DWIDTH 5 0
BBX 5 10 0 -2
BITMAP 
00
00
20
70
88
70
20
00
00
00
ENDCHAR
STARTCHAR U+21D5
ENCODING 8661
SWIDTH 500 0
DWIDTH 5 0
BBX 5 10 0 -2
BITMAP 
00
00
20
50
D8
50
D8
50
20
00
ENDCHAR
STARTCHAR U+21D6
ENCODING 8662
SWIDTH 500 0
DWIDTH 5 0
BBX 5 10 0 -2
BITMAP 
00
00
00
F0
A0
D0
A8
10
00
00
ENDCHAR
STARTCHAR U+21D7
ENCODING 8663
SWIDTH 500 0
DWIDTH 5 0
BBX 5 10 0 -2
BITMAP 
00
00
00
78
28
58
A8
40
00
00
ENDCHAR
STARTCHAR U+21D8
ENCODING 8664
SWIDTH 500 0
DWIDTH 5 0
BBX 5 10 0 -2
BITMAP 
00
00
00
40
A8
58
28
78
00
00
ENDCHAR
STARTCHAR U+21D9
ENCODING 8665
SWIDTH 500 0
DWIDTH 5 0
BBX 5 10 0 -2
BITMAP 
00
00
00
10
A8
D0
A0
F0
00
00
ENDCHAR
STARTCHAR U+21E0
ENCODING 8672
SWIDTH 500 0
DWIDTH 5 0
BBX 5 10 0 -2
BITMAP 
00
00
00
20
40
A8
40
20
00
00
ENDCHAR
STARTCHAR U+21E1
ENCODING 8673
SWIDTH 500 0
DWIDTH 5 0
BBX 5 10 0 -2
BITMAP 
00
00
20
70
88
20
00
20
00
00
ENDCHAR
STARTCHAR U+21E2
ENCODING 8674
SWIDTH 500 0
DWIDTH 5 0
BBX 5 10 0 -2
BITMAP 
00
00
00
20
10
A8
10
20
00
00
ENDCHAR
STARTCHAR U+21E3
ENCODING 8675
SWIDTH 500 0
DWIDTH 5 0
BBX 5 10 0 -2
BITMAP 
00
00
20
00
20
88
70
20
00
00
ENDCHAR
STARTCHAR U+21E4
ENCODING 8676
SWIDTH 500 0
DWIDTH 5 0
BBX 5 10 0 -2
BITMAP 
00
00
00
A0
C0
F8
C0
A0
00
00
ENDCHAR
STARTCHAR U+21E5
ENCODING 8677
SWIDTH 500 0
DWIDTH 5 0
BBX 5 10 0 -2
BITMAP 
00
00
00
28
18
F8
18
28
00
00
ENDCHAR
STARTCHAR U+21E6
ENCODING 8678
SWIDTH 500 0
DWIDTH 5 0
BBX 5 10 0 -2
BITMAP 
00
00
20
78
88
78
20
00
00
00
ENDCHAR
STARTCHAR U+21E7
ENCODING 8679
SWIDTH 500 0
DWIDTH 5 0
BBX 5 10 0 -2
BITMAP 
00
00
20
50
D8
50
50
70
00
00
ENDCHAR
STARTCHAR U+21E8
ENCODING 8680
SWIDTH 500 0
DWIDTH 5 0
BBX 5 10 0 -2
BITMAP 
00
00
20
F0
88
F0
20
00
00
00
ENDCHAR
STARTCHAR U+21E9
ENCODING 8681
SWIDTH 500 0
DWIDTH 5 0
BBX 5 10 0 -2
BITMAP 
00
00
70
50
50
D8
50
20
00
00
ENDCHAR
STARTCHAR U+2200
ENCODING 8704
SWIDTH 500 0
DWIDTH 5 0
BBX 5 10 0 -2
BITMAP 
00
00
90
90
F0
90
90
60
00
00
ENDCHAR
STARTCHAR U+2201
ENCODING 8705
SWIDTH 500 0
DWIDTH 5 0
BBX 5 10 0 -2
BITMAP 
00
00
20
50
40
40
50
20
00
00
ENDCHAR
STARTCHAR U+2202
ENCODING 8706
SWIDTH 500 0
DWIDTH 5 0
BBX 5 10 0 -2
BITMAP 
00
00
60
10
50
B0
90
60
00
00
ENDCHAR
STARTCHAR U+2203
ENCODING 8707
SWIDTH 500 0
DWIDTH 5 0
BBX 5 10 0 -2
BITMAP 
00
00
F0
10
70
10
10
F0
00
00
ENDCHAR
STARTCHAR U+2204
ENCODING 8708
SWIDTH 500 0
DWIDTH 5 0
BBX 5 10 0 -2
BITMAP 
00
20
F0
30
70
50
50
F0
40
00
ENDCHAR
STARTCHAR U+2205
ENCODING 8709
SWIDTH 500 0
DWIDTH 5 0
BBX 5 10 0 -2
BITMAP 
00
00
70
B0
B0
D0
D0
E0
00
00
ENDCHAR
STARTCHAR U+2206
ENCODING 8710
SWIDTH 500 0
DWIDTH 5 0
BBX 5 10 0 -2
BITMAP 
00
00
20
20
50
50
88
F8
00
00
ENDCHAR
STARTCHAR U+2207
ENCODING 8711
SWIDTH 500 0
DWIDTH 5 0
BBX 5 10 0 -2
BITMAP 
00
00
F8
88
50
50
20
20
00
00
ENDCHAR
STARTCHAR U+2208
ENCODING 8712
SWIDTH 500 0
DWIDTH 5 0
BBX 5 10 0 -2
BITMAP 
00
00
00
70
80
E0
80
70
00
00
ENDCHAR
STARTCHAR U+2209
ENCODING 8713
SWIDTH 500 0
DWIDTH 5 0
BBX 5 10 0 -2
BITMAP 
00
00
20
70
A0
E0
C0
70
40
00
ENDCHAR
STARTCHAR U+220A
ENCODING 8714
SWIDTH 500 0
DWIDTH 5 0
BBX 5 10 0 -2
BITMAP 
00
00
00
30
40
70
40
30
00
00
ENDCHAR
STARTCHAR U+220B
ENCODING 8715
SWIDTH 500 0
DWIDTH 5 0
BBX 5 10 0 -2
BITMAP 
00
00
00
E0
10
70
10
E0
00
00
ENDCHAR
STARTCHAR U+220C
ENCODING 8716
SWIDTH 500 0
DWIDTH 5 0
BBX 5 10 0 -2
BITMAP 
00
00
20
E0
30
70
50
E0
40
00
ENDCHAR
STARTCHAR U+220D
ENCODING 8717
SWIDTH 500 0
DWIDTH 5 0
BBX 5 10 0 -2
BITMAP 
00
00
00
60
10
70
10
60
00
00
ENDCHAR
STARTCHAR U+220E
ENCODING 8718
SWIDTH 500 0
DWIDTH 5 0
BBX 5 10 0 -2
BITMAP 
00
00
00
70
70
70
70
00
00
00
ENDCHAR
STARTCHAR U+220F
ENCODING 8719
SWIDTH 500 0
DWIDTH 5 0
BBX 5 10 0 -2
BITMAP 
00
F8
50
50
50
50
50
50
D8
00
ENDCHAR
STARTCHAR U+2210
ENCODING 8720
SWIDTH 500 0
DWIDTH 5 0
BBX 5 10 0 -2
BITMAP 
00
D8
50
50
50
50
50
50
F8
00
ENDCHAR
STARTCHAR U+2211
ENCODING 8721
SWIDTH 500 0
DWIDTH 5 0
BBX 5 10 0 -2
BITMAP 
00
F8
80
40
20
20
40
80
F8
00
ENDCHAR
STARTCHAR U+2212
ENCODING 8722
SWIDTH 500 0
DWIDTH 5 0
BBX 5 10 0 -2
BITMAP 
00
00
00
00
00
F0
00
00
00
00
ENDCHAR
STARTCHAR U+2213
ENCODING 8723
SWIDTH 500 0
DWIDTH 5 0
BBX 5 10 0 -2
BITMAP 
00
00
00
70
00
20
70
20
00
00
ENDCHAR
STARTCHAR U+2214
ENCODING 8724
SWIDTH 500 0
DWIDTH 5 0
BBX 5 10 0 -2
BITMAP 
00
00
00
20
00
20
70
20
00
00
ENDCHAR
STARTCHAR U+2215
ENCODING 8725
SWIDTH 500 0
DWIDTH 5 0
BBX 5 10 0 -2
BITMAP 
00
00
10
20
20
40
40
80
00
00
ENDCHAR
STARTCHAR U+2216
ENCODING 8726
SWIDTH 500 0
DWIDTH 5 0
BBX 5 10 0 -2
BITMAP 
00
00
80
40
40
20
20
10
00
00
ENDCHAR
STARTCHAR U+2217
ENCODING 8727
SWIDTH 500 0
DWIDTH 5 0
BBX 5 10 0 -2
BITMAP 
00
00
00
90
60
F0
60
90
00
00
ENDCHAR
STARTCHAR U+2218
ENCODING 8728
SWIDTH 500 0
DWIDTH 5 0
BBX 5 10 0 -2
BITMAP 
00
00
00
00
20
50
20
00
00
00
ENDCHAR
STARTCHAR U+2219
ENCODING 8729
SWIDTH 500 0
DWIDTH 5 0
BBX 5 10 0 -2
BITMAP 
00
00
00
00
20
70
20
00
00
00
ENDCHAR
STARTCHAR U+221A
ENCODING 8730
SWIDTH 500 0
DWIDTH 5 0
BBX 5 10 0 -2
BITMAP 
00
18
10
10
10
D0
50
20
20
00
ENDCHAR
STARTCHAR U+221B
ENCODING 8731
SWIDTH 500 0
DWIDTH 5 0
BBX 5 10 0 -2
BITMAP 
00
00
88
D0
90
20
A0
40
00
00
ENDCHAR
STARTCHAR U+221C
ENCODING 8732
SWIDTH 500 0
DWIDTH 5 0
BBX 5 10 0 -2
BITMAP 
00
00
88
D0
50
20
A0
40
00
00
ENDCHAR
STARTCHAR U+221D
ENCODING 8733
SWIDTH 500 0
DWIDTH 5 0
BBX 5 10 0 -2
BITMAP 
00
00
00
50
A0
A0
50
00
00
00
ENDCHAR
STARTCHAR U+221E
ENCODING 8734
SWIDTH 500 0
DWIDTH 5 0
BBX 5 10 0 -2
BITMAP 
00
00
00
50
A8
A8
50
00
00
00
ENDCHAR
STARTCHAR U+221F
ENCODING 8735
SWIDTH 500 0
DWIDTH 5 0
BBX 5 10 0 -2
BITMAP 
00
00
00
00
80
80
80
F0
00
00
ENDCHAR
STARTCHAR U+2220
ENCODING 8736
SWIDTH 500 0
DWIDTH 5 0
BBX 5 10 0 -2
BITMAP 
00
00
00
10
20
40
80
F0
00
00
ENDCHAR
STARTCHAR U+2221
ENCODING 8737
SWIDTH 500 0
DWIDTH 5 0
BBX 5 10 0 -2
BITMAP 
00
00
00
10
A0
40
A0
F0
20
00
ENDCHAR
STARTCHAR U+2222
ENCODING 8738
SWIDTH 500 0
DWIDTH 5 0
BBX 5 10 0 -2
BITMAP 
00
00
90
60
A0
A0
60
90
00
00
ENDCHAR
STARTCHAR U+2223
ENCODING 8739
SWIDTH 500 0
DWIDTH 5 0
BBX 5 10 0 -2
BITMAP 
00
00
20
20
20
20
20
20
00
00
ENDCHAR
STARTCHAR U+2224
ENCODING 8740
SWIDTH 500 0
DWIDTH 5 0
BBX 5 10 0 -2
BITMAP 
00
00
20
20
30
60
20
20
00
00
ENDCHAR
STARTCHAR U+2225
ENCODING 8741
SWIDTH 500 0
DWIDTH 5 0
BBX 5 10 0 -2
BITMAP 
00
00
50
50
50
50
50
50
00
00
ENDCHAR
STARTCHAR U+2226
ENCODING 8742
SWIDTH 500 0
DWIDTH 5 0
BBX 5 10 0 -2
BITMAP 
00
00
50
58
70
D0
50
50
00
00
ENDCHAR
STARTCHAR U+2227
ENCODING 8743
SWIDTH 500 0
DWIDTH 5 0
BBX 5 10 0 -2
BITMAP 
00
00
00
00
60
60
90
90
00
00
ENDCHAR
STARTCHAR U+2228
ENCODING 8744
SWIDTH 500 0
DWIDTH 5 0
BBX 5 10 0 -2
BITMAP 
00
00
00
00
90
90
60
60
00
00
ENDCHAR
STARTCHAR U+2229
ENCODING 8745
SWIDTH 500 0
DWIDTH 5 0
BBX 5 10 0 -2
BITMAP 
00
00
00
00
60
90
90
90
00
00
ENDCHAR
STARTCHAR U+222A
ENCODING 8746
SWIDTH 500 0
DWIDTH 5 0
BBX 5 10 0 -2
BITMAP 
00
00
00
00
90
90
90
60
00
00
ENDCHAR
STARTCHAR U+222B
ENCODING 8747
SWIDTH 500 0
DWIDTH 5 0
BBX 5 10 0 -2
BITMAP 
00
10
28
20
20
20
20
A0
40
00
ENDCHAR
STARTCHAR U+222C
ENCODING 8748
SWIDTH 500 0
DWIDTH 5 0
BBX 5 10 0 -2
BITMAP 
00
00
28
50
50
50
50
50
A0
00
ENDCHAR
STARTCHAR U+222D
ENCODING 8749
SWIDTH 500 0
DWIDTH 5 0
BBX 5 10 0 -2
BITMAP 
00
00
38
70
70
70
70
70
E0
00
ENDCHAR
STARTCHAR U+222E
ENCODING 8750
SWIDTH 500 0
DWIDTH 5 0
BBX 5 10 0 -2
BITMAP 
00
10
28
20
70
70
20
A0
40
00
ENDCHAR
STARTCHAR U+222F
ENCODING 8751
SWIDTH 500 0
DWIDTH 5 0
BBX 5 10 0 -2
BITMAP 
00
00
28
50
70
D8
70
50
A0
00
ENDCHAR
STARTCHAR U+2230
ENCODING 8752
SWIDTH 500 0
DWIDTH 5 0
BBX 5 10 0 -2
BITMAP 
00
00
38
70
70
F8
70
70
E0
00
ENDCHAR
STARTCHAR U+2234
ENCODING 8756
SWIDTH 500 0
DWIDTH 5 0
BBX 5 10 0 -2
BITMAP 
00
00
00
00
20
00
50
00
00
00
ENDCHAR
STARTCHAR U+2235
ENCODING 8757
SWIDTH 500 0
DWIDTH 5 0
BBX 5 10 0 -2
BITMAP 
00
00
00
00
50
00
20
00
00
00
ENDCHAR
STARTCHAR U+2236
ENCODING 8758
SWIDTH 500 0
DWIDTH 5 0
BBX 5 10 0 -2
BITMAP 
00
00
00
00
20
00
20
00
00
00
ENDCHAR
STARTCHAR U+2237
ENCODING 8759
SWIDTH 500 0
DWIDTH 5 0
BBX 5 10 0 -2
BITMAP 
00
00
00
00
50
00
50
00
00
00
ENDCHAR
STARTCHAR U+2238
ENCODING 8760
SWIDTH 500 0
DWIDTH 5 0
BBX 5 10 0 -2
BITMAP 
00
00
00
60
00
F0
00
00
00
00
ENDCHAR
STARTCHAR U+2239
ENCODING 8761
SWIDTH 500 0
DWIDTH 5 0
BBX 5 10 0 -2
BITMAP 
00
00
00
00
10
C0
10
00
00
00
ENDCHAR
STARTCHAR U+223A
ENCODING 8762
SWIDTH 500 0
DWIDTH 5 0
BBX 5 10 0 -2
BITMAP 
00
00
00
90
00
F0
00
90
00
00
ENDCHAR
STARTCHAR U+223B
ENCODING 8763
SWIDTH 500 0
DWIDTH 5 0
BBX 5 10 0 -2
BITMAP 
00
00
20
00
50
A0
00
40
00
00
ENDCHAR
STARTCHAR U+223C
ENCODING 8764
SWIDTH 500 0
DWIDTH 5 0
BBX 5 10 0 -2
BITMAP 
00
00
00
00
50
A0
00
00
00
00
ENDCHAR
STARTCHAR U+223D
ENCODING 8765
SWIDTH 500 0
DWIDTH 5 0
BBX 5 10 0 -2
BITMAP 
00
00
00
00
A0
50
00
00
00
00
ENDCHAR
STARTCHAR U+2240
ENCODING 8768
SWIDTH 500 0
DWIDTH 5 0
BBX 5 10 0 -2
BITMAP 
00
00
40
20
20
40
40
20
00
00
ENDCHAR
STARTCHAR U+2242
ENCODING 8770
SWIDTH 500 0
DWIDTH 5 0
BBX 5 10 0 -2
BITMAP 
00
00
00
00
F0
00
50
A0
00
00
ENDCHAR
STARTCHAR U+2243
ENCODING 8771
SWIDTH 500 0
DWIDTH 5 0
BBX 5 10 0 -2
BITMAP 
00
00
00
00
50
A0
00
F0
00
00
ENDCHAR
STARTCHAR U+2245
ENCODING 8773
SWIDTH 500 0
DWIDTH 5 0
BBX 5 10 0 -2
BITMAP 
00
00
50
A0
00
F0
00
F0
00
00
ENDCHAR
STARTCHAR U+2248
ENCODING 8776
SWIDTH 500 0
DWIDTH 5 0
BBX 5 10 0 -2
BITMAP 
00
00
00
00
50
A0
50
A0
00
00
ENDCHAR
STARTCHAR U+2249
ENCODING 8777
SWIDTH 500 0
DWIDTH 5 0
BBX 5 10 0 -2
BITMAP 
00
00
00
20
70
A0
50
E0
40
00
ENDCHAR
STARTCHAR U+224A
ENCODING 8778
SWIDTH 500 0
DWIDTH 5 0
BBX 5 10 0 -2
BITMAP 
00
00
50
A0
50
A0
00
F0
00
00
ENDCHAR
STARTCHAR U+224B
ENCODING 8779
SWIDTH 500 0
DWIDTH 5 0
BBX 5 10 0 -2
BITMAP 
00
00
50
A0
50
A0
50
A0
00
00
ENDCHAR
STARTCHAR U+224C
ENCODING 8780
SWIDTH 500 0
DWIDTH 5 0
BBX 5 10 0 -2
BITMAP 
00
50
00
28
00
40
F0
F0
00
00
ENDCHAR
STARTCHAR U+2252
ENCODING 8786
SWIDTH 500 0
DWIDTH 5 0
BBX 5 10 0 -2
BITMAP 
00
00
40
78
00
00
78
10
00
00
ENDCHAR
STARTCHAR U+2258
ENCODING 8792
SWIDTH 500 0
DWIDTH 5 0
BBX 5 10 0 -2
BITMAP 
00
00
60
90
00
F0
00
F0
00
00
ENDCHAR
STARTCHAR U+2259
ENCODING 8793
SWIDTH 500 0
DWIDTH 5 0
BBX 5 10 0 -2
BITMAP 
00
00
20
50
00
F0
00
F0
00
00
ENDCHAR
STARTCHAR U+225A
ENCODING 8794
SWIDTH 500 0
DWIDTH 5 0
BBX 5 10 0 -2
BITMAP 
00
00
50
20
00
F0
00
F0
00
00
ENDCHAR
STARTCHAR U+225F
ENCODING 8799
SWIDTH 500 0
DWIDTH 5 0
BBX 5 10 0 -2
BITMAP 
00
40
20
40
00
40
F0
00
F0
00
ENDCHAR
STARTCHAR U+2260
ENCODING 8800
SWIDTH 500 0
DWIDTH 5 0
BBX 5 10 0 -2
BITMAP 
00
00
00
20
F0
60
F0
40
00
00
ENDCHAR
STARTCHAR U+2261
ENCODING 8801
SWIDTH 500 0
DWIDTH 5 0
BBX 5 10 0 -2
BITMAP 
00
00
00
F0
00
F0
00
F0
00
00
ENDCHAR
STARTCHAR U+2262
ENCODING 8802
SWIDTH 500 0
DWIDTH 5 0
BBX 5 10 0 -2
BITMAP 
00
00
10
F0
20
F0
40
F0
80
00
ENDCHAR
STARTCHAR U+2263
ENCODING 8803
SWIDTH 500 0
DWIDTH 5 0
BBX 5 10 0 -2
BITMAP 
00
F0
00
F0
00
F0
00
F0
00
00
ENDCHAR
STARTCHAR U+2264
ENCODING 8804
SWIDTH 500 0
DWIDTH 5 0
BBX 5 10 0 -2
BITMAP 
00
00
10
20
40
20
10
70
00
00
ENDCHAR
STARTCHAR U+2265
ENCODING 8805
SWIDTH 500 0
DWIDTH 5 0
BBX 5 10 0 -2
BITMAP 
00
00
40
20
10
20
40
70
00
00
ENDCHAR
STARTCHAR U+2266
ENCODING 8806
SWIDTH 500 0
DWIDTH 5 0
BBX 5 10 0 -2
BITMAP 
00
18
30
40
20
10
18
78
78
00
ENDCHAR
STARTCHAR U+2267
ENCODING 8807
SWIDTH 500 0
DWIDTH 5 0
BBX 5 10 0 -2
BITMAP 
00
40
20
18
30
60
40
78
78
00
ENDCHAR
STARTCHAR U+226A
ENCODING 8810
SWIDTH 500 0
DWIDTH 5 0
BBX 5 10 0 -2
BITMAP 
00
00
00
28
50
A0
50
28
00
00
ENDCHAR
STARTCHAR U+226B
ENCODING 8811
SWIDTH 500 0
DWIDTH 5 0
BBX 5 10 0 -2
BITMAP 
00
00
00
A0
50
28
50
A0
00
00
ENDCHAR
STARTCHAR U+226E
ENCODING 8814
SWIDTH 500 0
DWIDTH 5 0
BBX 5 10 0 -2
BITMAP 
00
50
60
40
C0
C0
40
60
10
00
ENDCHAR
STARTCHAR U+226F
ENCODING 8815
SWIDTH 500 0
DWIDTH 5 0
BBX 5 10 0 -2
BITMAP 
00
40
20
10
00
10
20
60
00
00
ENDCHAR
STARTCHAR U+2276
ENCODING 8822
SWIDTH 500 0
DWIDTH 5 0
BBX 5 10 0 -2
BITMAP 
00
18
60
20
18
40
30
38
40
00
ENDCHAR
STARTCHAR U+2277
ENCODING 8823
SWIDTH 500 0
DWIDTH 5 0
BBX 5 10 0 -2
BITMAP 
00
40
38
30
40
18
20
60
18
00
ENDCHAR
STARTCHAR U+2282
ENCODING 8834
SWIDTH 500 0
DWIDTH 5 0
BBX 5 10 0 -2
BITMAP 
00
00
00
00
70
80
70
00
00
00
ENDCHAR
STARTCHAR U+2283
ENCODING 8835
SWIDTH 500 0
DWIDTH 5 0
BBX 5 10 0 -2
BITMAP 
00
00
00
00
E0
10
E0
00
00
00
ENDCHAR
STARTCHAR U+2284
ENCODING 8836
SWIDTH 500 0
DWIDTH 5 0
BBX 5 10 0 -2
BITMAP 
00
00
00
20
70
A0
70
20
00
00
ENDCHAR
STARTCHAR U+2285
ENCODING 8837
SWIDTH 500 0
DWIDTH 5 0
BBX 5 10 0 -2
BITMAP 
00
00
00
40
E0
50
E0
40
00
00
ENDCHAR
STARTCHAR U+2286
ENCODING 8838
SWIDTH 500 0
DWIDTH 5 0
BBX 5 10 0 -2
BITMAP 
00
00
00
70
80
70
00
F0
00
00
ENDCHAR
STARTCHAR U+2287
ENCODING 8839
SWIDTH 500 0
DWIDTH 5 0
BBX 5 10 0 -2
BITMAP 
00
00
00
E0
10
E0
00
F0
00
00
ENDCHAR
STARTCHAR U+2288
ENCODING 8840
SWIDTH 500 0
DWIDTH 5 0
BBX 5 10 0 -2
BITMAP 
00
00
20
70
A0
70
20
F0
20
00
ENDCHAR
STARTCHAR U+2289
ENCODING 8841
SWIDTH 500 0
DWIDTH 5 0
BBX 5 10 0 -2
BITMAP 
00
00
40
E0
50
E0
40
F0
40
00
ENDCHAR
STARTCHAR U+228A
ENCODING 8842
SWIDTH 500 0
DWIDTH 5 0
BBX 5 10 0 -2
BITMAP 
00
00
00
70
80
70
20
F0
40
00
ENDCHAR
STARTCHAR U+228B
ENCODING 8843
SWIDTH 500 0
DWIDTH 5 0
BBX 5 10 0 -2
BITMAP 
00
00
00
E0
10
E0
20
F0
40
00
ENDCHAR
STARTCHAR U+2295
ENCODING 8853
SWIDTH 500 0
DWIDTH 5 0
BBX 5 10 0 -2
BITMAP 
00
00
00
70
A8
F8
A8
70
00
00
ENDCHAR
STARTCHAR U+2296
ENCODING 8854
SWIDTH 500 0
DWIDTH 5 0
BBX 5 10 0 -2
BITMAP 
00
00
00
70
88
F8
88
70
00
00
ENDCHAR
STARTCHAR U+2297
ENCODING 8855
SWIDTH 500 0
DWIDTH 5 0
BBX 5 10 0 -2
BITMAP 
00
00
00
70
D8
A8
D8
70
00
00
ENDCHAR
STARTCHAR U+2298
ENCODING 8856
SWIDTH 500 0
DWIDTH 5 0
BBX 5 10 0 -2
BITMAP 
00
00
00
70
98
A8
C8
70
00
00
ENDCHAR
STARTCHAR U+2299
ENCODING 8857
SWIDTH 500 0
DWIDTH 5 0
BBX 5 10 0 -2
BITMAP 
00
00
00
70
88
A8
88
70
00
00
ENDCHAR
STARTCHAR U+229E
ENCODING 8862
SWIDTH 500 0
DWIDTH 5 0
BBX 5 10 0 -2
BITMAP 
00
00
00
F8
A8
F8
A8
F8
00
00
ENDCHAR
STARTCHAR U+229F
ENCODING 8863
SWIDTH 500 0
DWIDTH 5 0
BBX 5 10 0 -2
BITMAP 
00
00
00
F8
88
F8
88
F8
00
00
ENDCHAR
STARTCHAR U+22A0
ENCODING 8864
SWIDTH 500 0
DWIDTH 5 0
BBX 5 10 0 -2
BITMAP 
00
00
00
F8
D8
A8
D8
F8
00
00
ENDCHAR
STARTCHAR U+22A1
ENCODING 8865
SWIDTH 500 0
DWIDTH 5 0
BBX 5 10 0 -2
BITMAP 
00
00
00
F8
88
A8
88
F8
00
00
ENDCHAR
STARTCHAR U+22A2
ENCODING 8866
SWIDTH 500 0
DWIDTH 5 0
BBX 5 10 0 -2
BITMAP 
00
00
00
80
80
F0
80
80
00
00
ENDCHAR
STARTCHAR U+22A3
ENCODING 8867
SWIDTH 500 0
DWIDTH 5 0
BBX 5 10 0 -2
BITMAP 
00
00
00
10
10
F0
10
10
00
00
ENDCHAR
STARTCHAR U+22A4
ENCODING 8868
SWIDTH 500 0
DWIDTH 5 0
BBX 5 10 0 -2
BITMAP 
00
00
F8
20
20
20
20
20
00
00
ENDCHAR
STARTCHAR U+22A5
ENCODING 8869
SWIDTH 500 0
DWIDTH 5 0
BBX 5 10 0 -2
BITMAP 
00
00
20
20
20
20
20
F8
00
00
ENDCHAR
STARTCHAR U+22A6
ENCODING 8870
SWIDTH 500 0
DWIDTH 5 0
BBX 5 10 0 -2
BITMAP 
00
00
00
40
40
70
40
40
00
00
ENDCHAR
STARTCHAR U+22A7
ENCODING 8871
SWIDTH 500 0
DWIDTH 5 0
BBX 5 10 0 -2
BITMAP 
00
00
00
40
70
40
70
40
00
00
ENDCHAR
STARTCHAR U+22A8
ENCODING 8872
SWIDTH 500 0
DWIDTH 5 0
BBX 5 10 0 -2
BITMAP 
00
00
00
80
F0
80
F0
80
00
00
ENDCHAR
STARTCHAR U+22BF
ENCODING 8895
SWIDTH 500 0
DWIDTH 5 0
BBX 5 10 0 -2
BITMAP 
00
00
08
18
18
28
28
48
78
00
ENDCHAR
STARTCHAR U+22C0
ENCODING 8896
SWIDTH 500 0
DWIDTH 5 0
BBX 5 10 0 -2
BITMAP 
00
20
20
50
50
50
88
88
88
00
ENDCHAR
STARTCHAR U+22C1
ENCODING 8897
SWIDTH 500 0
DWIDTH 5 0
BBX 5 10 0 -2
BITMAP 
00
88
88
88
50
50
50
20
20
00
ENDCHAR
STARTCHAR U+22C2
ENCODING 8898
SWIDTH 500 0
DWIDTH 5 0
BBX 5 10 0 -2
BITMAP 
00
20
50
88
88
88
88
88
88
00
ENDCHAR
STARTCHAR U+22C3
ENCODING 8899
SWIDTH 500 0
DWIDTH 5 0
BBX 5 10 0 -2
BITMAP 
00
88
88
88
88
88
88
50
20
00
ENDCHAR
STARTCHAR U+22C5
ENCODING 8901
SWIDTH 500 0
DWIDTH 5 0
BBX 5 10 0 -2
BITMAP 
00
00
00
00
00
20
00
00
00
00
ENDCHAR
STARTCHAR U+22DA
ENCODING 8922
SWIDTH 500 0
DWIDTH 5 0
BBX 5 10 0 -2
BITMAP 
00
18
60
20
18
78
40
38
30
40
ENDCHAR
STARTCHAR U+22DB
ENCODING 8923
SWIDTH 500 0
DWIDTH 5 0
BBX 5 10 0 -2
BITMAP 
00
40
38
30
40
78
18
60
20
18
ENDCHAR
STARTCHAR U+22EE
ENCODING 8942
SWIDTH 500 0
DWIDTH 5 0
BBX 5 10 0 -2
BITMAP 
00
00
00
20
00
20
00
20
00
00
ENDCHAR
STARTCHAR U+22EF
ENCODING 8943
SWIDTH 500 0
DWIDTH 5 0
BBX 5 10 0 -2
BITMAP 
00
00
00
00
00
A8
00
00
00
00
ENDCHAR
STARTCHAR U+22F0
ENCODING 8944
SWIDTH 500 0
DWIDTH 5 0
BBX 5 10 0 -2
BITMAP 
00
00
00
08
00
20
00
80
00
00
ENDCHAR
STARTCHAR U+22F1
ENCODING 8945
SWIDTH 500 0
DWIDTH 5 0
BBX 5 10 0 -2
BITMAP 
00
00
00
80
00
20
00
08
00
00
ENDCHAR
STARTCHAR U+2300
ENCODING 8960
SWIDTH 500 0
DWIDTH 5 0
BBX 5 10 0 -2
BITMAP 
00
00
00
00
50
A0
50
A0
00
00
ENDCHAR
STARTCHAR U+2302
ENCODING 8962
SWIDTH 500 0
DWIDTH 5 0
BBX 5 10 0 -2
BITMAP 
00
00
60
90
90
90
90
F0
00
00
ENDCHAR
STARTCHAR U+2305
ENCODING 8965
SWIDTH 500 0
DWIDTH 5 0
BBX 5 10 0 -2
BITMAP 
00
00
00
78
20
30
50
00
00
00
ENDCHAR
STARTCHAR U+2306
ENCODING 8966
SWIDTH 500 0
DWIDTH 5 0
BBX 5 10 0 -2
BITMAP 
00
00
78
00
78
20
30
50
00
00
ENDCHAR
STARTCHAR U+2308
ENCODING 8968
SWIDTH 500 0
DWIDTH 5 0
BBX 5 10 0 -2
BITMAP 
00
00
70
40
40
40
40
40
00
00
ENDCHAR
STARTCHAR U+2309
ENCODING 8969
SWIDTH 500 0
DWIDTH 5 0
BBX 5 10 0 -2
BITMAP 
00
00
70
10
10
10
10
10
00
00
ENDCHAR
STARTCHAR U+230A
ENCODING 8970
SWIDTH 500 0
DWIDTH 5 0
BBX 5 10 0 -2
BITMAP 
00
00
40
40
40
40
40
70
00
00
ENDCHAR
STARTCHAR U+230B
ENCODING 8971
SWIDTH 500 0
DWIDTH 5 0
BBX 5 10 0 -2
BITMAP 
00
00
10
10
10
10
10
70
00
00
ENDCHAR
STARTCHAR U+2310
ENCODING 8976
SWIDTH 500 0
DWIDTH 5 0
BBX 5 10 0 -2
BITMAP 
00
00
00
00
00
70
40
40
00
00
ENDCHAR
STARTCHAR U+2312
ENCODING 8978
SWIDTH 500 0
DWIDTH 5 0
BBX 5 10 0 -2
BITMAP 
00
70
88
00
00
00
00
00
00
00
ENDCHAR
STARTCHAR U+2315
ENCODING 8981
SWIDTH 500 0
DWIDTH 5 0
BBX 5 10 0 -2
BITMAP 
00
00
00
00
60
90
D0
E0
00
00
ENDCHAR
STARTCHAR U+2318
ENCODING 8984
SWIDTH 500 0
DWIDTH 5 0
BBX 5 10 0 -2
BITMAP 
00
50
D8
78
50
50
70
D8
50
00
ENDCHAR
STARTCHAR U+2320
ENCODING 8992
SWIDTH 500 0
DWIDTH 5 0
BBX 5 10 0 -2
BITMAP 
00
00
10
28
20
20
20
20
20
00
ENDCHAR
STARTCHAR U+2321
ENCODING 8993
SWIDTH 500 0
DWIDTH 5 0
BBX 5 10 0 -2
BITMAP 
00
20
20
20
20
20
A0
40
00
00
ENDCHAR
STARTCHAR U+2329
ENCODING 9001
SWIDTH 500 0
DWIDTH 5 0
BBX 5 10 0 -2
BITMAP 
00
00
20
20
40
40
20
20
00
00
ENDCHAR
STARTCHAR U+232A
ENCODING 9002
SWIDTH 500 0
DWIDTH 5 0
BBX 5 10 0 -2
BITMAP 
00
00
40
40
20
20
40
40
00
00
ENDCHAR
STARTCHAR U+23BA
ENCODING 9146
SWIDTH 500 0
DWIDTH 5 0
BBX 5 10 0 -2
BITMAP 
00
F8
00
00
00
00
00
00
00
00
ENDCHAR
STARTCHAR U+23BB
ENCODING 9147
SWIDTH 500 0
DWIDTH 5 0
BBX 5 10 0 -2
BITMAP 
00
00
F8
00
00
00
00
00
00
00
ENDCHAR
STARTCHAR U+23BC
ENCODING 9148
SWIDTH 500 0
DWIDTH 5 0
BBX 5 10 0 -2
BITMAP 
00
00
00
00
00
00
00
F8
00
00
ENDCHAR
STARTCHAR U+23BD
ENCODING 9149
SWIDTH 500 0
DWIDTH 5 0
BBX 5 10 0 -2
BITMAP 
00
00
00
00
00
00
00
00
F8
00
ENDCHAR
STARTCHAR U+2409
ENCODING 9225
SWIDTH 500 0
DWIDTH 5 0
BBX 5 10 0 -2
BITMAP 
00
A0
A0
E0
A0
A0
70
20
20
00
ENDCHAR
STARTCHAR U+240A
ENCODING 9226
SWIDTH 500 0
DWIDTH 5 0
BBX 5 10 0 -2
BITMAP 
00
80
80
80
E0
38
20
30
20
00
ENDCHAR
STARTCHAR U+240B
ENCODING 9227
SWIDTH 500 0
DWIDTH 5 0
BBX 5 10 0 -2
BITMAP 
00
A0
A0
A0
40
38
10
10
10
00
ENDCHAR
STARTCHAR U+240C
ENCODING 9228
SWIDTH 500 0
DWIDTH 5 0
BBX 5 10 0 -2
BITMAP 
00
E0
80
C0
B8
A0
30
20
20
00
ENDCHAR
STARTCHAR U+240D
ENCODING 9229
SWIDTH 500 0
DWIDTH 5 0
BBX 5 10 0 -2
BITMAP 
00
60
80
80
60
30
28
30
28
00
ENDCHAR
STARTCHAR U+2423
ENCODING 9251
SWIDTH 500 0
DWIDTH 5 0
BBX 5 10 0 -2
BITMAP 
00
00
00
00
00
00
90
F0
00
00
ENDCHAR
STARTCHAR U+2424
ENCODING 9252
SWIDTH 500 0
DWIDTH 5 0
BBX 5 10 0 -2
BITMAP 
00
90
D0
B0
90
20
20
20
38
00
ENDCHAR
STARTCHAR U+2460
ENCODING 9312
SWIDTH 500 0
DWIDTH 5 0
BBX 5 10 0 -2
BITMAP 
00
70
48
A8
A8
A8
A8
B8
50
70
ENDCHAR
STARTCHAR U+2461
ENCODING 9313
SWIDTH 500 0
DWIDTH 5 0
BBX 5 10 0 -2
BITMAP 
00
70
68
88
98
A8
A8
F8
50
70
ENDCHAR
STARTCHAR U+2462
ENCODING 9314
SWIDTH 500 0
DWIDTH 5 0
BBX 5 10 0 -2
BITMAP 
00
70
68
88
98
B8
98
B8
40
70
ENDCHAR
STARTCHAR U+2463
ENCODING 9315
SWIDTH 500 0
DWIDTH 5 0
BBX 5 10 0 -2
BITMAP 
00
70
48
A8
E8
E8
F8
A8
40
70
ENDCHAR
STARTCHAR U+2464
ENCODING 9316
SWIDTH 500 0
DWIDTH 5 0
BBX 5 10 0 -2
BITMAP 
00
70
78
C8
C8
F8
98
B8
40
70
ENDCHAR
STARTCHAR U+2465
ENCODING 9317
SWIDTH 500 0
DWIDTH 5 0
BBX 5 10 0 -2
BITMAP 
00
70
68
88
C8
F8
D8
B8
40
70
ENDCHAR
STARTCHAR U+2466
ENCODING 9318
SWIDTH 500 0
DWIDTH 5 0
BBX 5 10 0 -2
BITMAP 
00
70
78
D8
98
98
A8
A8
40
70
ENDCHAR
STARTCHAR U+2467
ENCODING 9319
SWIDTH 500 0
DWIDTH 5 0
BBX 5 10 0 -2
BITMAP 
00
70
68
88
D8
B8
D8
B8
40
70
ENDCHAR
STARTCHAR U+2468
ENCODING 9320
SWIDTH 500 0
DWIDTH 5 0
BBX 5 10 0 -2
BITMAP 
00
70
68
88
D8
B8
98
B8
40
70
ENDCHAR
STARTCHAR U+2469
ENCODING 9321
SWIDTH 500 0
DWIDTH 5 0
BBX 5 10 0 -2
BITMAP 
00
70
98
F8
F8
F8
F8
F8
40
70
ENDCHAR
STARTCHAR U+246A
ENCODING 9322
SWIDTH 500 0
DWIDTH 5 0
BBX 5 10 0 -2
BITMAP 
00
70
88
D8
D8
D8
D8
F8
48
70
ENDCHAR
STARTCHAR U+246B
ENCODING 9323
SWIDTH 500 0
DWIDTH 5 0
BBX 5 10 0 -2
BITMAP 
00
70
98
F8
D8
C8
C8
F8
48
70
ENDCHAR
STARTCHAR U+246C
ENCODING 9324
SWIDTH 500 0
DWIDTH 5 0
BBX 5 10 0 -2
BITMAP 
00
70
98
F8
D8
D8
D8
F8
40
70
ENDCHAR
STARTCHAR U+246D
ENCODING 9325
SWIDTH 500 0
DWIDTH 5 0
BBX 5 10 0 -2
BITMAP 
00
70
88
D8
F8
F8
F8
F8
48
70
ENDCHAR
STARTCHAR U+246E
ENCODING 9326
SWIDTH 500 0
DWIDTH 5 0
BBX 5 10 0 -2
BITMAP 
00
70
B8
E8
E8
F8
D8
F8
40
70
ENDCHAR
STARTCHAR U+246F
ENCODING 9327
SWIDTH 500 0
DWIDTH 5 0
BBX 5 10 0 -2
BITMAP 
00
70
98
F8
E8
F8
F8
F8
40
70
ENDCHAR
STARTCHAR U+2470
ENCODING 9328
SWIDTH 500 0
DWIDTH 5 0
BBX 5 10 0 -2
BITMAP 
00
70
B8
F8
D8
D8
D8
F8
40
70
ENDCHAR
STARTCHAR U+2471
ENCODING 9329
SWIDTH 500 0
DWIDTH 5 0
BBX 5 10 0 -2
BITMAP 
00
70
98
F8
F8
D8
F8
F8
40
70
ENDCHAR
STARTCHAR U+2472
ENCODING 9330
SWIDTH 500 0
DWIDTH 5 0
BBX 5 10 0 -2
BITMAP 
00
70
B8
F8
F8
F8
D8
F8
40
70
ENDCHAR
STARTCHAR U+2473
ENCODING 9331
SWIDTH 500 0
DWIDTH 5 0
BBX 5 10 0 -2
BITMAP 
00
70
B8
B8
B8
F8
D8
F8
48
70
ENDCHAR
STARTCHAR U+2474
ENCODING 9332
SWIDTH 500 0
DWIDTH 5 0
BBX 5 10 0 -2
BITMAP 
48
48
70
50
50
50
50
48
40
00
ENDCHAR
STARTCHAR U+2475
ENCODING 9333
SWIDTH 500 0
DWIDTH 5 0
BBX 5 10 0 -2
BITMAP 
48
48
70
50
50
60
60
78
40
00
ENDCHAR
STARTCHAR U+2476
ENCODING 9334
SWIDTH 500 0
DWIDTH 5 0
BBX 5 10 0 -2
BITMAP 
48
48
70
50
70
50
60
68
40
00
ENDCHAR
STARTCHAR U+2477
ENCODING 9335
SWIDTH 500 0
DWIDTH 5 0
BBX 5 10 0 -2
BITMAP 
48
48
50
70
70
70
50
48
40
00
ENDCHAR
STARTCHAR U+2478
ENCODING 9336
SWIDTH 500 0
DWIDTH 5 0
BBX 5 10 0 -2
BITMAP 
48
48
70
60
60
50
60
68
40
00
ENDCHAR
STARTCHAR U+2479
ENCODING 9337
SWIDTH 500 0
DWIDTH 5 0
BBX 5 10 0 -2
BITMAP 
48
48
70
60
70
70
60
68
40
00
ENDCHAR
STARTCHAR U+247A
ENCODING 9338
SWIDTH 500 0
DWIDTH 5 0
BBX 5 10 0 -2
BITMAP 
48
48
70
50
50
60
60
48
40
00
ENDCHAR
STARTCHAR U+247B
ENCODING 9339
SWIDTH 500 0
DWIDTH 5 0
BBX 5 10 0 -2
BITMAP 
48
48
70
70
70
70
60
68
40
00
ENDCHAR
STARTCHAR U+247C
ENCODING 9340
SWIDTH 500 0
DWIDTH 5 0
BBX 5 10 0 -2
BITMAP 
48
48
70
70
70
50
60
68
40
00
ENDCHAR
STARTCHAR U+247D
ENCODING 9341
SWIDTH 500 0
DWIDTH 5 0
BBX 5 10 0 -2
BITMAP 
48
48
78
78
78
78
78
58
40
00
ENDCHAR
STARTCHAR U+247E
ENCODING 9342
SWIDTH 500 0
DWIDTH 5 0
BBX 5 10 0 -2
BITMAP 
48
48
70
70
70
70
70
48
40
00
ENDCHAR
STARTCHAR U+247F
ENCODING 9343
SWIDTH 500 0
DWIDTH 5 0
BBX 5 10 0 -2
BITMAP 
48
48
78
78
60
60
70
58
40
00
ENDCHAR
STARTCHAR U+2480
ENCODING 9344
SWIDTH 500 0
DWIDTH 5 0
BBX 5 10 0 -2
BITMAP 
48
48
78
68
70
68
78
58
40
00
ENDCHAR
STARTCHAR U+2481
ENCODING 9345
SWIDTH 500 0
DWIDTH 5 0
BBX 5 10 0 -2
BITMAP 
48
48
70
70
70
78
70
48
40
00
ENDCHAR
STARTCHAR U+2482
ENCODING 9346
SWIDTH 500 0
DWIDTH 5 0
BBX 5 10 0 -2
BITMAP 
48
48
78
70
68
68
78
58
40
00
ENDCHAR
STARTCHAR U+2483
ENCODING 9347
SWIDTH 500 0
DWIDTH 5 0
BBX 5 10 0 -2
BITMAP 
00
B0
D0
C0
F0
F0
D0
D0
B0
00
ENDCHAR
STARTCHAR U+2484
ENCODING 9348
SWIDTH 500 0
DWIDTH 5 0
BBX 5 10 0 -2
BITMAP 
00
B0
D0
C0
C0
C0
E0
E0
80
00
ENDCHAR
STARTCHAR U+2485
ENCODING 9349
SWIDTH 500 0
DWIDTH 5 0
BBX 5 10 0 -2
BITMAP 
00
B0
D0
D0
F0
D0
D0
D0
B0
00
ENDCHAR
STARTCHAR U+2486
ENCODING 9350
SWIDTH 500 0
DWIDTH 5 0
BBX 5 10 0 -2
BITMAP 
00
B0
D0
D0
D0
F0
D0
D0
B0
00
ENDCHAR
STARTCHAR U+2487
ENCODING 9351
SWIDTH 500 0
DWIDTH 5 0
BBX 5 10 0 -2
BITMAP 
00
D0
B0
B0
B0
F0
B0
B0
D0
00
ENDCHAR
STARTCHAR U+2488
ENCODING 9352
SWIDTH 500 0
DWIDTH 5 0
BBX 5 10 0 -2
BITMAP 
00
40
00
00
00
00
00
00
00
00
ENDCHAR
STARTCHAR U+2489
ENCODING 9353
SWIDTH 500 0
DWIDTH 5 0
BBX 5 10 0 -2
BITMAP 
00
40
20
20
00
40
40
40
60
00
ENDCHAR
STARTCHAR U+248A
ENCODING 9354
SWIDTH 500 0
DWIDTH 5 0
BBX 5 10 0 -2
BITMAP 
00
40
20
00
40
00
20
60
40
00
ENDCHAR
STARTCHAR U+248B
ENCODING 9355
SWIDTH 500 0
DWIDTH 5 0
BBX 5 10 0 -2
BITMAP 
00
60
60
20
60
60
60
20
20
20
ENDCHAR
STARTCHAR U+248C
ENCODING 9356
SWIDTH 500 0
DWIDTH 5 0
BBX 5 10 0 -2
BITMAP 
00
40
40
40
60
60
20
20
40
00
ENDCHAR
STARTCHAR U+248D
ENCODING 9357
SWIDTH 500 0
DWIDTH 5 0
BBX 5 10 0 -2
BITMAP 
00
40
60
40
60
60
60
60
40
00
ENDCHAR
STARTCHAR U+248E
ENCODING 9358
SWIDTH 500 0
DWIDTH 5 0
BBX 5 10 0 -2
BITMAP 
00
60
20
20
20
00
00
00
00
00
ENDCHAR
STARTCHAR U+248F
ENCODING 9359
SWIDTH 500 0
DWIDTH 5 0
BBX 5 10 0 -2
BITMAP 
00
40
60
40
40
40
60
60
40
00
ENDCHAR
STARTCHAR U+2490
ENCODING 9360
SWIDTH 500 0
DWIDTH 5 0
BBX 5 10 0 -2
BITMAP 
00
40
60
60
60
60
20
60
40
00
ENDCHAR
STARTCHAR U+2491
ENCODING 9361
SWIDTH 500 0
DWIDTH 5 0
BBX 5 10 0 -2
BITMAP 
00
D0
D0
D0
D0
D0
D0
D0
D0
00
ENDCHAR
STARTCHAR U+2492
ENCODING 9362
SWIDTH 500 0
DWIDTH 5 0
BBX 5 10 0 -2
BITMAP 
00
A0
A0
A0
A0
A0
A0
A0
A0
00
ENDCHAR
STARTCHAR U+2493
ENCODING 9363
SWIDTH 500 0
DWIDTH 5 0
BBX 5 10 0 -2
BITMAP 
00
D0
90
90
80
A0
C0
C0
D0
00
ENDCHAR
STARTCHAR U+2494
ENCODING 9364
SWIDTH 500 0
DWIDTH 5 0
BBX 5 10 0 -2
BITMAP 
00
D0
90
90
A0
80
90
D0
D0
00
ENDCHAR
STARTCHAR U+2495
ENCODING 9365
SWIDTH 500 0
DWIDTH 5 0
BBX 5 10 0 -2
BITMAP 
00
A0
A0
80
80
C0
F0
80
80
00
ENDCHAR
STARTCHAR U+2496
ENCODING 9366
SWIDTH 500 0
DWIDTH 5 0
BBX 5 10 0 -2
BITMAP 
00
C0
C0
C0
E0
D0
90
90
D0
00
ENDCHAR
STARTCHAR U+2497
ENCODING 9367
SWIDTH 500 0
DWIDTH 5 0
BBX 5 10 0 -2
BITMAP 
00
D0
D0
C0
E0
D0
D0
D0
D0
00
ENDCHAR
STARTCHAR U+2498
ENCODING 9368
SWIDTH 500 0
DWIDTH 5 0
BBX 5 10 0 -2
BITMAP 
00
D0
80
80
80
A0
A0
A0
A0
00
ENDCHAR
STARTCHAR U+2499
ENCODING 9369
SWIDTH 500 0
DWIDTH 5 0
BBX 5 10 0 -2
BITMAP 
00
D0
D0
D0
A0
80
D0
D0
D0
00
ENDCHAR
STARTCHAR U+249A
ENCODING 9370
SWIDTH 500 0
DWIDTH 5 0
BBX 5 10 0 -2
BITMAP 
00
D0
D0
D0
D0
B0
90
D0
D0
00
ENDCHAR
STARTCHAR U+249B
ENCODING 9371
SWIDTH 500 0
DWIDTH 5 0
BBX 5 10 0 -2
BITMAP 
00
40
70
70
70
30
30
30
40
00
ENDCHAR
STARTCHAR U+249C
ENCODING 9372
SWIDTH 500 0
DWIDTH 5 0
BBX 5 10 0 -2
BITMAP 
48
48
60
60
70
70
60
48
40
00
ENDCHAR
STARTCHAR U+249D
ENCODING 9373
SWIDTH 500 0
DWIDTH 5 0
BBX 5 10 0 -2
BITMAP 
48
48
60
70
70
70
70
48
40
00
ENDCHAR
STARTCHAR U+249E
ENCODING 9374
SWIDTH 500 0
DWIDTH 5 0
BBX 5 10 0 -2
BITMAP 
48
48
60
60
60
60
60
48
40
00
ENDCHAR
STARTCHAR U+249F
ENCODING 9375
SWIDTH 500 0
DWIDTH 5 0
BBX 5 10 0 -2
BITMAP 
48
48
50
70
70
70
70
48
40
00
ENDCHAR
STARTCHAR U+24A0
ENCODING 9376
SWIDTH 500 0
DWIDTH 5 0
BBX 5 10 0 -2
BITMAP 
48
48
60
60
70
60
70
48
40
00
ENDCHAR
STARTCHAR U+24A1
ENCODING 9377
SWIDTH 500 0
DWIDTH 5 0
BBX 5 10 0 -2
BITMAP 
48
48
70
70
60
60
60
48
40
00
ENDCHAR
STARTCHAR U+24A2
ENCODING 9378
SWIDTH 500 0
DWIDTH 5 0
BBX 5 10 0 -2
BITMAP 
48
48
70
70
70
70
40
68
40
00
ENDCHAR
STARTCHAR U+24A3
ENCODING 9379
SWIDTH 500 0
DWIDTH 5 0
BBX 5 10 0 -2
BITMAP 
48
48
60
70
70
70
60
48
40
00
ENDCHAR
STARTCHAR U+24A4
ENCODING 9380
SWIDTH 500 0
DWIDTH 5 0
BBX 5 10 0 -2
BITMAP 
48
48
40
40
50
50
40
48
40
00
ENDCHAR
STARTCHAR U+24A5
ENCODING 9381
SWIDTH 500 0
DWIDTH 5 0
BBX 5 10 0 -2
BITMAP 
48
48
40
40
50
50
60
48
40
00
ENDCHAR
STARTCHAR U+24A6
ENCODING 9382
SWIDTH 500 0
DWIDTH 5 0
BBX 5 10 0 -2
BITMAP 
48
48
60
60
70
70
60
48
40
00
ENDCHAR
STARTCHAR U+24A7
ENCODING 9383
SWIDTH 500 0
DWIDTH 5 0
BBX 5 10 0 -2
BITMAP 
48
48
50
50
50
50
40
48
40
00
ENDCHAR
STARTCHAR U+24A8
ENCODING 9384
SWIDTH 500 0
DWIDTH 5 0
BBX 5 10 0 -2
BITMAP 
48
48
40
70
70
70
60
48
40
00
ENDCHAR
STARTCHAR U+24A9
ENCODING 9385
SWIDTH 500 0
DWIDTH 5 0
BBX 5 10 0 -2
BITMAP 
48
48
70
70
70
70
60
48
40
00
ENDCHAR
STARTCHAR U+24AA
ENCODING 9386
SWIDTH 500 0
DWIDTH 5 0
BBX 5 10 0 -2
BITMAP 
48
48
70
70
70
70
70
48
40
00
ENDCHAR
STARTCHAR U+24AB
ENCODING 9387
SWIDTH 500 0
DWIDTH 5 0
BBX 5 10 0 -2
BITMAP 
48
48
70
70
70
70
60
48
40
00
ENDCHAR
STARTCHAR U+24AC
ENCODING 9388
SWIDTH 500 0
DWIDTH 5 0
BBX 5 10 0 -2
BITMAP 
48
48
70
70
70
70
50
48
40
00
ENDCHAR
STARTCHAR U+24AD
ENCODING 9389
SWIDTH 500 0
DWIDTH 5 0
BBX 5 10 0 -2
BITMAP 
48
48
40
70
60
60
60
48
40
00
ENDCHAR
STARTCHAR U+24AE
ENCODING 9390
SWIDTH 500 0
DWIDTH 5 0
BBX 5 10 0 -2
BITMAP 
48
48
70
60
70
40
60
48
40
00
ENDCHAR
STARTCHAR U+24AF
ENCODING 9391
SWIDTH 500 0
DWIDTH 5 0
BBX 5 10 0 -2
BITMAP 
48
48
60
70
60
60
50
48
40
00
ENDCHAR
STARTCHAR U+24B0
ENCODING 9392
SWIDTH 500 0
DWIDTH 5 0
BBX 5 10 0 -2
BITMAP 
48
48
40
70
70
70
70
48
40
00
ENDCHAR
STARTCHAR U+24B1
ENCODING 9393
SWIDTH 500 0
DWIDTH 5 0
BBX 5 10 0 -2
BITMAP 
48
48
40
70
70
60
40
48
40
00
ENDCHAR
STARTCHAR U+24B2
ENCODING 9394
SWIDTH 500 0
DWIDTH 5 0
BBX 5 10 0 -2
BITMAP 
48
48
40
70
70
70
60
48
40
00
ENDCHAR
STARTCHAR U+24B3
ENCODING 9395
SWIDTH 500 0
DWIDTH 5 0
BBX 5 10 0 -2
BITMAP 
48
48
40
70
50
70
60
48
40
00
ENDCHAR
STARTCHAR U+24B4
ENCODING 9396
SWIDTH 500 0
DWIDTH 5 0
BBX 5 10 0 -2
BITMAP 
48
48
40
70
50
50
40
48
40
00
ENDCHAR
STARTCHAR U+24B5
ENCODING 9397
SWIDTH 500 0
DWIDTH 5 0
BBX 5 10 0 -2
BITMAP 
48
48
70
50
50
60
70
48
40
00
ENDCHAR
STARTCHAR U+24D0
ENCODING 9424
SWIDTH 500 0
DWIDTH 5 0
BBX 5 10 0 -2
BITMAP 
00
70
68
88
98
F8
D8
F8
50
70
ENDCHAR
STARTCHAR U+24D1
ENCODING 9425
SWIDTH 500 0
DWIDTH 5 0
BBX 5 10 0 -2
BITMAP 
00
70
48
C8
F8
F8
D8
F8
50
70
ENDCHAR
STARTCHAR U+24D2
ENCODING 9426
SWIDTH 500 0
DWIDTH 5 0
BBX 5 10 0 -2
BITMAP 
00
70
48
A8
C8
C8
88
B8
40
70
ENDCHAR
STARTCHAR U+24D3
ENCODING 9427
SWIDTH 500 0
DWIDTH 5 0
BBX 5 10 0 -2
BITMAP 
00
70
58
98
F8
D8
D8
F8
50
70
ENDCHAR
STARTCHAR U+24D4
ENCODING 9428
SWIDTH 500 0
DWIDTH 5 0
BBX 5 10 0 -2
BITMAP 
00
70
48
A8
88
F8
88
B8
40
70
ENDCHAR
STARTCHAR U+24D5
ENCODING 9429
SWIDTH 500 0
DWIDTH 5 0
BBX 5 10 0 -2
BITMAP 
00
70
58
A8
A8
F8
A8
A8
40
70
ENDCHAR
STARTCHAR U+24D6
ENCODING 9430
SWIDTH 500 0
DWIDTH 5 0
BBX 5 10 0 -2
BITMAP 
00
70
58
98
D8
E8
D8
F8
40
70
ENDCHAR
STARTCHAR U+24D7
ENCODING 9431
SWIDTH 500 0
DWIDTH 5 0
BBX 5 10 0 -2
BITMAP 
00
70
48
C8
F8
F8
D8
D8
50
70
ENDCHAR
STARTCHAR U+24D8
ENCODING 9432
SWIDTH 500 0
DWIDTH 5 0
BBX 5 10 0 -2
BITMAP 
00
70
48
88
A8
A8
A8
A8
40
70
ENDCHAR
STARTCHAR U+24D9
ENCODING 9433
SWIDTH 500 0
DWIDTH 5 0
BBX 5 10 0 -2
BITMAP 
00
70
48
88
B8
98
98
D8
60
70
ENDCHAR
STARTCHAR U+24DA
ENCODING 9434
SWIDTH 500 0
DWIDTH 5 0
BBX 5 10 0 -2
BITMAP 
00
70
48
D8
D8
E8
E8
D8
58
70
ENDCHAR
STARTCHAR U+24DB
ENCODING 9435
SWIDTH 500 0
DWIDTH 5 0
BBX 5 10 0 -2
BITMAP 
00
70
48
A8
A8
A8
A8
A8
40
70
ENDCHAR
STARTCHAR U+24DC
ENCODING 9436
SWIDTH 500 0
DWIDTH 5 0
BBX 5 10 0 -2
BITMAP 
00
70
48
F8
F8
F8
F8
F8
58
70
ENDCHAR
STARTCHAR U+24DD
ENCODING 9437
SWIDTH 500 0
DWIDTH 5 0
BBX 5 10 0 -2
BITMAP 
00
70
48
A8
E8
D8
D8
F8
58
70
ENDCHAR
STARTCHAR U+24DE
ENCODING 9438
SWIDTH 500 0
DWIDTH 5 0
BBX 5 10 0 -2
BITMAP 
00
70
48
A8
C8
D8
98
B8
40
70
ENDCHAR
STARTCHAR U+24DF
ENCODING 9439
SWIDTH 500 0
DWIDTH 5 0
BBX 5 10 0 -2
BITMAP 
00
70
78
F8
D8
F8
F8
E8
40
70
ENDCHAR
STARTCHAR U+24E0
ENCODING 9440
SWIDTH 500 0
DWIDTH 5 0
BBX 5 10 0 -2
BITMAP 
00
70
78
D8
D8
98
B8
98
58
70
ENDCHAR
STARTCHAR U+24E1
ENCODING 9441
SWIDTH 500 0
DWIDTH 5 0
BBX 5 10 0 -2
BITMAP 
00
70
48
B8
B8
A8
A8
A8
40
70
ENDCHAR
STARTCHAR U+24E2
ENCODING 9442
SWIDTH 500 0
DWIDTH 5 0
BBX 5 10 0 -2
BITMAP 
00
70
68
88
C8
B8
98
B8
40
70
ENDCHAR
STARTCHAR U+24E3
ENCODING 9443
SWIDTH 500 0
DWIDTH 5 0
BBX 5 10 0 -2
BITMAP 
00
70
48
A8
F8
A8
A8
B8
40
70
ENDCHAR
STARTCHAR U+24E4
ENCODING 9444
SWIDTH 500 0
DWIDTH 5 0
BBX 5 10 0 -2
BITMAP 
00
70
48
88
D8
D8
D8
B8
50
70
ENDCHAR
STARTCHAR U+24E5
ENCODING 9445
SWIDTH 500 0
DWIDTH 5 0
BBX 5 10 0 -2
BITMAP 
00
70
48
D8
D8
D8
A8
A8
40
70
ENDCHAR
STARTCHAR U+24E6
ENCODING 9446
SWIDTH 500 0
DWIDTH 5 0
BBX 5 10 0 -2
BITMAP 
00
70
48
F8
F8
F8
B8
D8
50
70
ENDCHAR
STARTCHAR U+24E7
ENCODING 9447
SWIDTH 500 0
DWIDTH 5 0
BBX 5 10 0 -2
BITMAP 
00
70
48
F8
D8
B8
B8
F8
58
70
ENDCHAR
STARTCHAR U+24E8
ENCODING 9448
SWIDTH 500 0
DWIDTH 5 0
BBX 5 10 0 -2
BITMAP 
00
70
48
F8
D8
A8
A8
E8
40
70
ENDCHAR
STARTCHAR U+24E9
ENCODING 9449
SWIDTH 500 0
DWIDTH 5 0
BBX 5 10 0 -2
BITMAP 
00
70
48
B8
98
A8
B8
F8
50
70
ENDCHAR
STARTCHAR U+2500
ENCODING 9472
SWIDTH 500 0
DWIDTH 5 0
BBX 5 10 0 -2
BITMAP 
00
00
00
00
F8
00
00
00
00
00
ENDCHAR
STARTCHAR U+2501
ENCODING 9473
SWIDTH 500 0
DWIDTH 5 0
BBX 5 10 0 -2
BITMAP 
00
00
00
00
F8
F8
00
00
00
00
ENDCHAR
STARTCHAR U+2502
ENCODING 9474
SWIDTH 500 0
DWIDTH 5 0
BBX 5 10 0 -2
BITMAP 
00
20
20
20
20
20
20
20
20
00
ENDCHAR
STARTCHAR U+2503
ENCODING 9475
SWIDTH 500 0
DWIDTH 5 0
BBX 5 10 0 -2
BITMAP 
00
30
30
30
30
30
30
30
30
00
ENDCHAR
STARTCHAR U+2504
ENCODING 9476
SWIDTH 500 0
DWIDTH 5 0
BBX 5 10 0 -2
BITMAP 
00
00
00
00
A8
00
00
00
00
00
ENDCHAR
STARTCHAR U+2505
ENCODING 9477
SWIDTH 500 0
DWIDTH 5 0
BBX 5 10 0 -2
BITMAP 
00
00
00
00
A8
A8
00
00
00
00
ENDCHAR
STARTCHAR U+2506
ENCODING 9478
SWIDTH 500 0
DWIDTH 5 0
BBX 5 10 0 -2
BITMAP 
00
20
20
00
20
20
00
20
20
00
ENDCHAR
STARTCHAR U+2507
ENCODING 9479
SWIDTH 500 0
DWIDTH 5 0
BBX 5 10 0 -2
BITMAP 
00
30
30
00
30
30
00
30
30
00
ENDCHAR
STARTCHAR U+2508
ENCODING 9480
SWIDTH 500 0
DWIDTH 5 0
BBX 5 10 0 -2
BITMAP 
00
00
00
00
A8
00
00
00
00
00
ENDCHAR
STARTCHAR U+2509
ENCODING 9481
SWIDTH 500 0
DWIDTH 5 0
BBX 5 10 0 -2
BITMAP 
00
00
00
00
A8
A8
00
00
00
00
ENDCHAR
STARTCHAR U+250A
ENCODING 9482
SWIDTH 500 0
DWIDTH 5 0
BBX 5 10 0 -2
BITMAP 
00
20
00
20
00
20
00
20
00
00
ENDCHAR
STARTCHAR U+250B
ENCODING 9483
SWIDTH 500 0
DWIDTH 5 0
BBX 5 10 0 -2
BITMAP 
00
30
00
30
00
30
00
30
00
00
ENDCHAR
STARTCHAR U+250C
ENCODING 9484
SWIDTH 500 0
DWIDTH 5 0
BBX 5 10 0 -2
BITMAP 
00
00
00
00
38
20
20
20
20
00
ENDCHAR
STARTCHAR U+250D
ENCODING 9485
SWIDTH 500 0
DWIDTH 5 0
BBX 5 10 0 -2
BITMAP 
00
00
00
00
38
38
20
20
20
00
ENDCHAR
STARTCHAR U+250E
ENCODING 9486
SWIDTH 500 0
DWIDTH 5 0
BBX 5 10 0 -2
BITMAP 
00
00
00
00
38
30
30
30
30
00
ENDCHAR
STARTCHAR U+250F
ENCODING 9487
SWIDTH 500 0
DWIDTH 5 0
BBX 5 10 0 -2
BITMAP 
00
00
00
00
38
38
30
30
30
00
ENDCHAR
STARTCHAR U+2510
ENCODING 9488
SWIDTH 500 0
DWIDTH 5 0
BBX 5 10 0 -2
BITMAP 
00
00
00
00
E0
20
20
20
20
00
ENDCHAR
STARTCHAR U+2511
ENCODING 9489
SWIDTH 500 0
DWIDTH 5 0
BBX 5 10 0 -2
BITMAP 
00
00
00
00
E0
E0
20
20
20
00
ENDCHAR
STARTCHAR U+2512
ENCODING 9490
SWIDTH 500 0
DWIDTH 5 0
BBX 5 10 0 -2
BITMAP 
00
00
00
00
F0
30
30
30
30
00
ENDCHAR
STARTCHAR U+2513
ENCODING 9491
SWIDTH 500 0
DWIDTH 5 0
BBX 5 10 0 -2
BITMAP 
00
00
00
00
F0
F0
30
30
30
00
ENDCHAR
STARTCHAR U+2514
ENCODING 9492
SWIDTH 500 0
DWIDTH 5 0
BBX 5 10 0 -2
BITMAP 
00
20
20
20
38
00
00
00
00
00
ENDCHAR
STARTCHAR U+2515
ENCODING 9493
SWIDTH 500 0
DWIDTH 5 0
BBX 5 10 0 -2
BITMAP 
00
20
20
20
38
38
00
00
00
00
ENDCHAR
STARTCHAR U+2516
ENCODING 9494
SWIDTH 500 0
DWIDTH 5 0
BBX 5 10 0 -2
BITMAP 
00
30
30
30
38
00
00
00
00
00
ENDCHAR
STARTCHAR U+2517
ENCODING 9495
SWIDTH 500 0
DWIDTH 5 0
BBX 5 10 0 -2
BITMAP 
00
30
30
30
38
38
00
00
00
00
ENDCHAR
STARTCHAR U+2518
ENCODING 9496
SWIDTH 500 0
DWIDTH 5 0
BBX 5 10 0 -2
BITMAP 
00
20
20
20
E0
00
00
00
00
00
ENDCHAR
STARTCHAR U+2519
ENCODING 9497
SWIDTH 500 0
DWIDTH 5 0
BBX 5 10 0 -2
BITMAP 
00
20
20
20
E0
E0
00
00
00
00
ENDCHAR
STARTCHAR U+251A
ENCODING 9498
SWIDTH 500 0
DWIDTH 5 0
BBX 5 10 0 -2
BITMAP 
00
30
30
30
F0
00
00
00
00
00
ENDCHAR
STARTCHAR U+251B
ENCODING 9499
SWIDTH 500 0
DWIDTH 5 0
BBX 5 10 0 -2
BITMAP 
00
30
30
30
F0
F0
00
00
00
00
ENDCHAR
STARTCHAR U+251C
ENCODING 9500
SWIDTH 500 0
DWIDTH 5 0
BBX 5 10 0 -2
BITMAP 
00
20
20
20
38
20
20
20
20
00
ENDCHAR
STARTCHAR U+251D
ENCODING 9501
SWIDTH 500 0
DWIDTH 5 0
BBX 5 10 0 -2
BITMAP 
00
20
20
20
38
38
20
20
20
00
ENDCHAR
STARTCHAR U+251E
ENCODING 9502
SWIDTH 500 0
DWIDTH 5 0
BBX 5 10 0 -2
BITMAP 
00
30
30
30
38
20
20
20
20
00
ENDCHAR
STARTCHAR U+251F
ENCODING 9503
SWIDTH 500 0
DWIDTH 5 0
BBX 5 10 0 -2
BITMAP 
00
20
20
20
38
30
30
30
30
00
ENDCHAR
STARTCHAR U+2520
ENCODING 9504
SWIDTH 500 0
DWIDTH 5 0
BBX 5 10 0 -2
BITMAP 
00
30
30
30
38
30
30
30
30
00
ENDCHAR
STARTCHAR U+2521
ENCODING 9505
SWIDTH 500 0
DWIDTH 5 0
BBX 5 10 0 -2
BITMAP 
00
30
30
30
38
38
20
20
20
00
ENDCHAR
STARTCHAR U+2522
ENCODING 9506
SWIDTH 500 0
DWIDTH 5 0
BBX 5 10 0 -2
BITMAP 
00
20
20
20
38
38
30
30
30
00
ENDCHAR
STARTCHAR U+2523
ENCODING 9507
SWIDTH 500 0
DWIDTH 5 0
BBX 5 10 0 -2
BITMAP 
00
30
30
30
38
38
30
30
30
00
ENDCHAR
STARTCHAR U+2524
ENCODING 9508
SWIDTH 500 0
DWIDTH 5 0
BBX 5 10 0 -2
BITMAP 
00
20
20
20
E0
20
20
20
20
00
ENDCHAR
STARTCHAR U+2525
ENCODING 9509
SWIDTH 500 0
DWIDTH 5 0
BBX 5 10 0 -2
BITMAP 
00
20
20
20
E0
E0
20
20
20
00
ENDCHAR
STARTCHAR U+2526
ENCODING 9510
SWIDTH 500 0
DWIDTH 5 0
BBX 5 10 0 -2
BITMAP 
00
30
30
30
F0
20
20
20
20
00
ENDCHAR
STARTCHAR U+2527
ENCODING 9511
SWIDTH 500 0
DWIDTH 5 0
BBX 5 10 0 -2
BITMAP 
00
20
20
20
F0
30
30
30
30
00
ENDCHAR
STARTCHAR U+2528
ENCODING 9512
SWIDTH 500 0
DWIDTH 5 0
BBX 5 10 0 -2
BITMAP 
00
30
30
30
F0
30
30
30
30
00
ENDCHAR
STARTCHAR U+2529
ENCODING 9513
SWIDTH 500 0
DWIDTH 5 0
BBX 5 10 0 -2
BITMAP 
00
30
30
30
F0
F0
20
20
20
00
ENDCHAR
STARTCHAR U+252A
ENCODING 9514
SWIDTH 500 0
DWIDTH 5 0
BBX 5 10 0 -2
BITMAP 
00
20
20
20
F0
F0
30
30
30
00
ENDCHAR
STARTCHAR U+252B
ENCODING 9515
SWIDTH 500 0
DWIDTH 5 0
BBX 5 10 0 -2
BITMAP 
00
30
30
30
F0
F0
30
30
30
00
ENDCHAR
STARTCHAR U+252C
ENCODING 9516
SWIDTH 500 0
DWIDTH 5 0
BBX 5 10 0 -2
BITMAP 
00
00
00
00
F8
20
20
20
20
00
ENDCHAR
STARTCHAR U+252D
ENCODING 9517
SWIDTH 500 0
DWIDTH 5 0
BBX 5 10 0 -2
BITMAP 
00
00
00
00
F8
E0
20
20
20
00
ENDCHAR
STARTCHAR U+252E
ENCODING 9518
SWIDTH 500 0
DWIDTH 5 0
BBX 5 10 0 -2
BITMAP 
00
00
00
00
F8
38
20
20
20
00
ENDCHAR
STARTCHAR U+252F
ENCODING 9519
SWIDTH 500 0
DWIDTH 5 0
BBX 5 10 0 -2
BITMAP 
00
00
00
00
F8
F8
20
20
20
00
ENDCHAR
STARTCHAR U+2530
ENCODING 9520
SWIDTH 500 0
DWIDTH 5 0
BBX 5 10 0 -2
BITMAP 
00
00
00
00
F8
30
30
30
30
00
ENDCHAR
STARTCHAR U+2531
ENCODING 9521
SWIDTH 500 0
DWIDTH 5 0
BBX 5 10 0 -2
BITMAP 
00
00
00
00
F8
F0
30
30
30
00
ENDCHAR
STARTCHAR U+2532
ENCODING 9522
SWIDTH 500 0
DWIDTH 5 0
BBX 5 10 0 -2
BITMAP 
00
00
00
00
F8
38
30
30
30
00
ENDCHAR
STARTCHAR U+2533
ENCODING 9523
SWIDTH 500 0
DWIDTH 5 0
BBX 5 10 0 -2
BITMAP 
00
00
00
00
F8
F8
30
30
30
00
ENDCHAR
STARTCHAR U+2534
ENCODING 9524
SWIDTH 500 0
DWIDTH 5 0
BBX 5 10 0 -2
BITMAP 
00
20
20
20
F8
00
00
00
00
00
ENDCHAR
STARTCHAR U+2535
ENCODING 9525
SWIDTH 500 0
DWIDTH 5 0
BBX 5 10 0 -2
BITMAP 
00
20
20
20
F8
E0
00
00
00
00
ENDCHAR
STARTCHAR U+2536
ENCODING 9526
SWIDTH 500 0
DWIDTH 5 0
BBX 5 10 0 -2
BITMAP 
00
20
20
20
F8
38
00
00
00
00
ENDCHAR
STARTCHAR U+2537
ENCODING 9527
SWIDTH 500 0
DWIDTH 5 0
BBX 5 10 0 -2
BITMAP 
00
20
20
20
F8
F8
00
00
00
00
ENDCHAR
STARTCHAR U+2538
ENCODING 9528
SWIDTH 500 0
DWIDTH 5 0
BBX 5 10 0 -2
BITMAP 
00
30
30
30
F8
00
00
00
00
00
ENDCHAR
STARTCHAR U+2539
ENCODING 9529
SWIDTH 500 0
DWIDTH 5 0
BBX 5 10 0 -2
BITMAP 
00
30
30
30
F8
F0
00
00
00
00
ENDCHAR
STARTCHAR U+253A
ENCODING 9530
SWIDTH 500 0
DWIDTH 5 0
BBX 5 10 0 -2
BITMAP 
00
30
30
30
F8
38
00
00
00
00
ENDCHAR
STARTCHAR U+253B
ENCODING 9531
SWIDTH 500 0
DWIDTH 5 0
BBX 5 10 0 -2
BITMAP 
00
30
30
30
F8
F8
00
00
00
00
ENDCHAR
STARTCHAR U+253C
ENCODING 9532
SWIDTH 500 0
DWIDTH 5 0
BBX 5 10 0 -2
BITMAP 
00
20
20
20
F8
20
20
20
20
00
ENDCHAR
STARTCHAR U+253D
ENCODING 9533
SWIDTH 500 0
DWIDTH 5 0
BBX 5 10 0 -2
BITMAP 
00
20
20
20
F8
E0
20
20
20
00
ENDCHAR
STARTCHAR U+253E
ENCODING 9534
SWIDTH 500 0
DWIDTH 5 0
BBX 5 10 0 -2
BITMAP 
00
20
20
20
F8
38
20
20
20
00
ENDCHAR
STARTCHAR U+253F
ENCODING 9535
SWIDTH 500 0
DWIDTH 5 0
BBX 5 10 0 -2
BITMAP 
00
20
20
20
F8
F8
20
20
20
00
ENDCHAR
STARTCHAR U+2540
ENCODING 9536
SWIDTH 500 0
DWIDTH 5 0
BBX 5 10 0 -2
BITMAP 
00
30
30
30
F8
20
20
20
20
00
ENDCHAR
STARTCHAR U+2541
ENCODING 9537
SWIDTH 500 0
DWIDTH 5 0
BBX 5 10 0 -2
BITMAP 
00
20
20
20
F8
30
30
30
30
00
ENDCHAR
STARTCHAR U+2542
ENCODING 9538
SWIDTH 500 0
DWIDTH 5 0
BBX 5 10 0 -2
BITMAP 
00
30
30
30
F8
30
30
30
30
00
ENDCHAR
STARTCHAR U+2543
ENCODING 9539
SWIDTH 500 0
DWIDTH 5 0
BBX 5 10 0 -2
BITMAP 
00
30
30
30
F8
F0
20
20
20
00
ENDCHAR
STARTCHAR U+2544
ENCODING 9540
SWIDTH 500 0
DWIDTH 5 0
BBX 5 10 0 -2
BITMAP 
00
30
30
30
F8
38
20
20
20
00
ENDCHAR
STARTCHAR U+2545
ENCODING 9541
SWIDTH 500 0
DWIDTH 5 0
BBX 5 10 0 -2
BITMAP 
00
20
20
20
F8
F0
30
30
30
00
ENDCHAR
STARTCHAR U+2546
ENCODING 9542
SWIDTH 500 0
DWIDTH 5 0
BBX 5 10 0 -2
BITMAP 
00
20
20
20
F8
38
30
30
30
00
ENDCHAR
STARTCHAR U+2547
ENCODING 9543
SWIDTH 500 0
DWIDTH 5 0
BBX 5 10 0 -2
BITMAP 
00
30
30
30
F8
F8
20
20
20
00
ENDCHAR
STARTCHAR U+2548
ENCODING 9544
SWIDTH 500 0
DWIDTH 5 0
BBX 5 10 0 -2
BITMAP 
00
20
20
20
F8
F8
30
30
30
00
ENDCHAR
STARTCHAR U+2549
ENCODING 9545
SWIDTH 500 0
DWIDTH 5 0
BBX 5 10 0 -2
BITMAP 
00
30
30
30
F8
F0
30
30
30
00
ENDCHAR
STARTCHAR U+254A
ENCODING 9546
SWIDTH 500 0
DWIDTH 5 0
BBX 5 10 0 -2
BITMAP 
00
30
30
30
F8
38
30
30
30
00
ENDCHAR
STARTCHAR U+254B
ENCODING 9547
SWIDTH 500 0
DWIDTH 5 0
BBX 5 10 0 -2
BITMAP 
00
30
30
30
F8
F8
30
30
30
00
ENDCHAR
STARTCHAR U+254C
ENCODING 9548
SWIDTH 500 0
DWIDTH 5 0
BBX 5 10 0 -2
BITMAP 
00
00
00
00
B0
00
00
00
00
00
ENDCHAR
STARTCHAR U+254D
ENCODING 9549
SWIDTH 500 0
DWIDTH 5 0
BBX 5 10 0 -2
BITMAP 
00
00
00
00
B0
B0
00
00
00
00
ENDCHAR
STARTCHAR U+254E
ENCODING 9550
SWIDTH 500 0
DWIDTH 5 0
BBX 5 10 0 -2
BITMAP 
00
20
20
20
00
20
20
20
00
00
ENDCHAR
STARTCHAR U+254F
ENCODING 9551
SWIDTH 500 0
DWIDTH 5 0
BBX 5 10 0 -2
BITMAP 
00
30
30
30
00
30
30
30
00
00
ENDCHAR
STARTCHAR U+2550
ENCODING 9552
SWIDTH 500 0
DWIDTH 5 0
BBX 5 10 0 -2
BITMAP 
00
00
00
F8
00
F8
00
00
00
00
ENDCHAR
STARTCHAR U+2551
ENCODING 9553
SWIDTH 500 0
DWIDTH 5 0
BBX 5 10 0 -2
BITMAP 
00
50
50
50
50
50
50
50
50
00
ENDCHAR
STARTCHAR U+2552
ENCODING 9554
SWIDTH 500 0
DWIDTH 5 0
BBX 5 10 0 -2
BITMAP 
00
00
00
38
20
38
20
20
20
00
ENDCHAR
STARTCHAR U+2553
ENCODING 9555
SWIDTH 500 0
DWIDTH 5 0
BBX 5 10 0 -2
BITMAP 
00
00
00
00
78
50
50
50
50
00
ENDCHAR
STARTCHAR U+2554
ENCODING 9556
SWIDTH 500 0
DWIDTH 5 0
BBX 5 10 0 -2
BITMAP 
00
00
00
78
40
58
50
50
50
00
ENDCHAR
STARTCHAR U+2555
ENCODING 9557
SWIDTH 500 0
DWIDTH 5 0
BBX 5 10 0 -2
BITMAP 
00
00
00
E0
20
E0
20
20
20
00
ENDCHAR
STARTCHAR U+2556
ENCODING 9558
SWIDTH 500 0
DWIDTH 5 0
BBX 5 10 0 -2
BITMAP 
00
00
00
00
F0
50
50
50
50
00
ENDCHAR
STARTCHAR U+2557
ENCODING 9559
SWIDTH 500 0
DWIDTH 5 0
BBX 5 10 0 -2
BITMAP 
00
00
00
F0
10
D0
50
50
50
00
ENDCHAR
STARTCHAR U+2558
ENCODING 9560
SWIDTH 500 0
DWIDTH 5 0
BBX 5 10 0 -2
BITMAP 
00
20
20
38
20
38
00
00
00
00
ENDCHAR
STARTCHAR U+2559
ENCODING 9561
SWIDTH 500 0
DWIDTH 5 0
BBX 5 10 0 -2
BITMAP 
00
50
50
50
78
00
00
00
00
00
ENDCHAR
STARTCHAR U+255A
ENCODING 9562
SWIDTH 500 0
DWIDTH 5 0
BBX 5 10 0 -2
BITMAP 
00
50
50
58
40
78
00
00
00
00
ENDCHAR
STARTCHAR U+255B
ENCODING 9563
SWIDTH 500 0
DWIDTH 5 0
BBX 5 10 0 -2
BITMAP 
00
20
20
E0
20
E0
00
00
00
00
ENDCHAR
STARTCHAR U+255C
ENCODING 9564
SWIDTH 500 0
DWIDTH 5 0
BBX 5 10 0 -2
BITMAP 
00
50
50
50
F0
00
00
00
00
00
ENDCHAR
STARTCHAR U+255D
ENCODING 9565
SWIDTH 500 0
DWIDTH 5 0
BBX 5 10 0 -2
BITMAP 
00
50
50
D0
10
F0
00
00
00
00
ENDCHAR
STARTCHAR U+255E
ENCODING 9566
SWIDTH 500 0
DWIDTH 5 0
BBX 5 10 0 -2
BITMAP 
00
20
20
38
20
38
20
20
20
00
ENDCHAR
STARTCHAR U+255F
ENCODING 9567
SWIDTH 500 0
DWIDTH 5 0
BBX 5 10 0 -2
BITMAP 
00
50
50
50
58
50
50
50
50
00
ENDCHAR
STARTCHAR U+2560
ENCODING 9568
SWIDTH 500 0
DWIDTH 5 0
BBX 5 10 0 -2
BITMAP 
00
50
50
58
40
58
50
50
50
00
ENDCHAR
STARTCHAR U+2561
ENCODING 9569
SWIDTH 500 0
DWIDTH 5 0
BBX 5 10 0 -2
BITMAP 
00
20
20
E0
20
E0
20
20
20
00
ENDCHAR
STARTCHAR U+2562
ENCODING 9570
SWIDTH 500 0
DWIDTH 5 0
BBX 5 10 0 -2
BITMAP 
00
50
50
50
D0
50
50
50
50
00
ENDCHAR
STARTCHAR U+2563
ENCODING 9571
SWIDTH 500 0
DWIDTH 5 0
BBX 5 10 0 -2
BITMAP 
00
50
50
D0
10
D0
50
50
50
00
ENDCHAR
STARTCHAR U+2564
ENCODING 9572
SWIDTH 500 0
DWIDTH 5 0
BBX 5 10 0 -2
BITMAP 
00
00
00
F8
00
F8
20
20
20
00
ENDCHAR
STARTCHAR U+2565
ENCODING 9573
SWIDTH 500 0
DWIDTH 5 0
BBX 5 10 0 -2
BITMAP 
00
00
00
00
F8
50
50
50
50
00
ENDCHAR
STARTCHAR U+2566
ENCODING 9574
SWIDTH 500 0
DWIDTH 5 0
BBX 5 10 0 -2
BITMAP 
00
00
00
F8
00
D8
50
50
50
00
ENDCHAR
STARTCHAR U+2567
ENCODING 9575
SWIDTH 500 0
DWIDTH 5 0
BBX 5 10 0 -2
BITMAP 
00
20
20
F8
00
F8
00
00
00
00
ENDCHAR
STARTCHAR U+2568
ENCODING 9576
SWIDTH 500 0
DWIDTH 5 0
BBX 5 10 0 -2
BITMAP 
00
50
50
50
F8
00
00
00
00
00
ENDCHAR
ENDFONT
